<svg width="28" height="28" viewBox="0 0 28 28" fill="none" xmlns="http://www.w3.org/2000/svg">
<path fill-rule="evenodd" clip-rule="evenodd" d="M13.8992 1.6002C13.8346 1.6002 13.7701 1.60069 13.7057 1.60168C13.3192 1.60764 13.001 1.2991 12.995 0.91255C12.9891 0.525997 13.2976 0.207806 13.6841 0.201851C13.7557 0.200748 13.8274 0.200195 13.8992 0.200195C13.971 0.200195 14.0427 0.200748 14.1143 0.201851C14.5008 0.207806 14.8094 0.525997 14.8034 0.91255C14.7975 1.2991 14.4793 1.60764 14.0927 1.60168C14.0283 1.60069 13.9638 1.6002 13.8992 1.6002ZM17.0545 1.2662C17.1681 0.89666 17.5597 0.689164 17.9293 0.802742C18.0663 0.844864 18.2025 0.889078 18.3376 0.935345C18.7034 1.06053 18.8984 1.45853 18.7733 1.8243C18.6481 2.19007 18.2501 2.3851 17.8843 2.25991C17.763 2.21841 17.6409 2.17875 17.518 2.14096C17.1484 2.02738 16.9409 1.63574 17.0545 1.2662ZM10.7439 1.2662C10.8575 1.63574 10.65 2.02738 10.2805 2.14096C10.1575 2.17875 10.0354 2.21841 9.91414 2.25991C9.54837 2.3851 9.15037 2.19007 9.02518 1.8243C8.89999 1.45853 9.09502 1.06053 9.46079 0.935346C9.59597 0.889079 9.73211 0.844865 9.86915 0.802743C10.2387 0.689164 10.6303 0.896661 10.7439 1.2662ZM20.8031 2.86069C21.0257 2.5446 21.4624 2.46879 21.7785 2.69138C21.8954 2.7737 22.0109 2.8578 22.1251 2.94364C22.4341 3.17598 22.4962 3.61481 22.2639 3.92381C22.0315 4.23281 21.5927 4.29495 21.2837 4.06262C21.1812 3.98552 21.0774 3.90998 20.9724 3.83605C20.6563 3.61347 20.5805 3.17678 20.8031 2.86069ZM6.99535 2.86069C7.21794 3.17678 7.14213 3.61347 6.82604 3.83605C6.72105 3.90998 6.61727 3.98552 6.51473 4.06262C6.20573 4.29495 5.7669 4.23281 5.53456 3.92381C5.30222 3.61481 5.36437 3.17598 5.67337 2.94364C5.78753 2.8578 5.90308 2.7737 6.01999 2.69138C6.33608 2.46879 6.77276 2.5446 6.99535 2.86069ZM23.8756 5.53554C24.1846 5.3032 24.6234 5.36535 24.8558 5.67434C24.9416 5.78851 25.0257 5.90406 25.108 6.02096C25.3306 6.33706 25.2548 6.77374 24.9387 6.99633C24.6226 7.21891 24.1859 7.14311 23.9634 6.82702C23.8894 6.72203 23.8139 6.61825 23.7368 6.51571C23.5045 6.20671 23.5666 5.76787 23.8756 5.53554ZM3.92283 5.53554C4.23183 5.76787 4.29398 6.20671 4.06164 6.51571C3.98454 6.61825 3.90901 6.72203 3.83508 6.82702C3.61249 7.14311 3.17581 7.21891 2.85971 6.99633C2.54362 6.77374 2.46782 6.33706 2.6904 6.02096C2.77272 5.90406 2.85682 5.78851 2.94266 5.67434C3.175 5.36535 3.61384 5.3032 3.92283 5.53554ZM25.9751 9.02616C26.3409 8.90097 26.7389 9.096 26.8641 9.46177C26.9103 9.59695 26.9545 9.73308 26.9967 9.87013C27.1103 10.2397 26.9028 10.6313 26.5332 10.7449C26.1637 10.8585 25.772 10.651 25.6585 10.2814C25.6207 10.1585 25.581 10.0364 25.5395 9.91512C25.4143 9.54935 25.6093 9.15135 25.9751 9.02616ZM1.82333 9.02616C2.18909 9.15135 2.38412 9.54935 2.25893 9.91512C2.21743 10.0364 2.17777 10.1585 2.13998 10.2814C2.02641 10.651 1.63476 10.8585 1.26522 10.7449C0.895684 10.6313 0.688187 10.2397 0.801765 9.87013C0.843888 9.73308 0.888101 9.59695 0.934368 9.46177C1.05956 9.096 1.45756 8.90097 1.82333 9.02616ZM26.8869 12.996C27.2734 12.99 27.5916 13.2986 27.5976 13.6851C27.5987 13.7567 27.5992 13.8284 27.5992 13.9002C27.5992 13.972 27.5987 14.0437 27.5976 14.1153C27.5916 14.5018 27.2734 14.8104 26.8869 14.8044C26.5003 14.7984 26.1918 14.4803 26.1977 14.0937C26.1987 14.0293 26.1992 13.9648 26.1992 13.9002C26.1992 13.8356 26.1987 13.7711 26.1977 13.7067C26.1918 13.3201 26.5003 13.0019 26.8869 12.996ZM0.911574 12.996C1.29813 13.0019 1.60666 13.3201 1.60071 13.7067C1.59972 13.7711 1.59922 13.8356 1.59922 13.9002C1.59922 13.9648 1.59972 14.0293 1.60071 14.0937C1.60666 14.4803 1.29813 14.7984 0.911574 14.8044C0.52502 14.8104 0.206829 14.5018 0.200874 14.1153C0.199772 14.0437 0.199219 13.972 0.199219 13.9002C0.199219 13.8284 0.199772 13.7567 0.200874 13.6851C0.206829 13.2986 0.52502 12.99 0.911574 12.996ZM26.5332 17.0555C26.9028 17.1691 27.1103 17.5607 26.9967 17.9303C26.9545 18.0673 26.9103 18.2034 26.8641 18.3386C26.7389 18.7044 26.3409 18.8994 25.9751 18.7742C25.6093 18.649 25.4143 18.251 25.5395 17.8853C25.581 17.764 25.6207 17.6419 25.6585 17.519C25.772 17.1494 26.1637 16.9419 26.5332 17.0555ZM1.26522 17.0555C1.63476 16.9419 2.02641 17.1494 2.13998 17.519C2.17777 17.6419 2.21743 17.764 2.25893 17.8853C2.38412 18.251 2.1891 18.649 1.82333 18.7742C1.45756 18.8994 1.05956 18.7044 0.934369 18.3386C0.888102 18.2034 0.843889 18.0673 0.801766 17.9303C0.688188 17.5607 0.895685 17.1691 1.26522 17.0555ZM2.85971 20.8041C3.17581 20.5815 3.61249 20.6573 3.83508 20.9734C3.90901 21.0784 3.98454 21.1821 4.06164 21.2847C4.29398 21.5937 4.23183 22.0325 3.92283 22.2649C3.61384 22.4972 3.175 22.435 2.94266 22.126C2.85682 22.0119 2.77272 21.8963 2.6904 21.7794C2.46782 21.4633 2.54362 21.0266 2.85971 20.8041ZM24.9387 20.8041C25.2548 21.0266 25.3306 21.4633 25.108 21.7794C25.0257 21.8963 24.9416 22.0119 24.8558 22.126C24.6234 22.435 24.1846 22.4972 23.8756 22.2649C23.5666 22.0325 23.5045 21.5937 23.7368 21.2847C23.8139 21.1821 23.8894 21.0784 23.9634 20.9734C24.1859 20.6573 24.6226 20.5815 24.9387 20.8041ZM22.2639 23.8766C22.4962 24.1856 22.4341 24.6244 22.1251 24.8568C22.0109 24.9426 21.8954 25.0267 21.7785 25.109C21.4624 25.3316 21.0257 25.2558 20.8031 24.9397C20.5805 24.6236 20.6563 24.1869 20.9724 23.9643C21.0774 23.8904 21.1812 23.8149 21.2837 23.7378C21.5927 23.5054 22.0315 23.5676 22.2639 23.8766ZM5.53456 23.8766C5.7669 23.5676 6.20573 23.5054 6.51473 23.7378C6.61727 23.8149 6.72105 23.8904 6.82604 23.9643C7.14213 24.1869 7.21794 24.6236 6.99535 24.9397C6.77277 25.2558 6.33608 25.3316 6.01999 25.109C5.90309 25.0267 5.78753 24.9426 5.67337 24.8568C5.36437 24.6244 5.30223 24.1856 5.53456 23.8766ZM18.7733 25.9761C18.8984 26.3419 18.7034 26.7399 18.3376 26.865C18.2025 26.9113 18.0663 26.9555 17.9293 26.9976C17.5597 27.1112 17.1681 26.9037 17.0545 26.5342C16.9409 26.1647 17.1484 25.773 17.518 25.6594C17.6409 25.6216 17.763 25.582 17.8843 25.5405C18.2501 25.4153 18.6481 25.6103 18.7733 25.9761ZM9.02519 25.9761C9.15037 25.6103 9.54837 25.4153 9.91414 25.5405C10.0354 25.582 10.1575 25.6216 10.2805 25.6594C10.65 25.773 10.8575 26.1647 10.7439 26.5342C10.6303 26.9037 10.2387 27.1112 9.86916 26.9977C9.73211 26.9555 9.59597 26.9113 9.46079 26.865C9.09503 26.7399 8.9 26.3419 9.02519 25.9761ZM12.995 26.8878C13.001 26.5013 13.3192 26.1928 13.7057 26.1987C13.7701 26.1997 13.8346 26.2002 13.8992 26.2002C13.9638 26.2002 14.0283 26.1997 14.0927 26.1987C14.4793 26.1928 14.7975 26.5013 14.8034 26.8878C14.8094 27.2744 14.5008 27.5926 14.1143 27.5985C14.0427 27.5996 13.971 27.6002 13.8992 27.6002C13.8274 27.6002 13.7557 27.5996 13.6842 27.5985C13.2976 27.5926 12.9891 27.2744 12.995 26.8878Z" fill="#de7c5b"/>
<path fill-rule="evenodd" clip-rule="evenodd" d="M8.72998 13.9867C8.72998 13.6553 8.99861 13.3867 9.32998 13.3867H15.6624C15.9938 13.3867 16.2624 13.6553 16.2624 13.9867C16.2624 14.3181 15.9938 14.5867 15.6624 14.5867H9.32998C8.99861 14.5867 8.72998 14.3181 8.72998 13.9867Z" fill="#de7c5b"/>
<path fill-rule="evenodd" clip-rule="evenodd" d="M15.268 10.2021C15.5023 9.96779 15.8822 9.96779 16.1165 10.2021L19.3847 13.4703C19.6709 13.7564 19.6709 14.2204 19.3847 14.5066L16.1165 17.7748C15.8822 18.0091 15.5023 18.0091 15.268 17.7748C15.0337 17.5405 15.0337 17.1606 15.268 16.9262L18.2058 13.9884L15.268 11.0506C15.0337 10.8163 15.0337 10.4364 15.268 10.2021Z" fill="#de7c5b"/>
</svg>
