<?xml version="1.0" encoding="UTF-8"?>
<svg id="_レイヤー_1" xmlns="http://www.w3.org/2000/svg" version="1.1" viewBox="0 0 1814.2 1020.5">
  <!-- Generator: Adobe Illustrator 30.3.0, SVG Export Plug-In . SVG Version: 2.1.3 Build 182)  -->
  <defs>
    <style>
      .st0, .st1 {
        opacity: .1;
      }

      .st0, .st2, .st3, .st4, .st5 {
        fill: none;
      }

      .st6 {
        fill: #fff;
      }

      .st2 {
        stroke-width: 8.5px;
      }

      .st2, .st3, .st4, .st5 {
        stroke: #fff;
        stroke-miterlimit: 10;
      }

      .st3 {
        stroke-width: 11px;
      }

      .st4 {
        stroke-width: 5.7px;
      }

      .st5 {
        stroke-width: 2.8px;
      }
    </style>
  </defs>
  <g class="st1">
    <circle class="st4" cx="90.9" cy="848.2" r="105.2"/>
    <circle class="st5" cx="345.2" cy="790.3" r="259.7"/>
    <circle class="st2" cx="1378.1" cy="937.3" r="287.8"/>
    <g>
      <path class="st6" d="M-4.8,76.8c3.3-3.3,8.7-3.3,12,0s3.3,8.7,0,12-8.7,3.3-12,0-3.3-8.7,0-12Z"/>
      <path class="st6" d="M66.9,52.9c3.3-3.3,8.7-3.3,12,0s3.3,8.7,0,12c-3.3,3.3-8.7,3.3-12,0-3.3-3.3-3.3-8.7,0-12Z"/>
      <path class="st6" d="M43,76.8c3.3-3.3,8.7-3.3,12,0s3.3,8.7,0,12-8.7,3.3-12,0-3.3-8.7,0-12Z"/>
      <path class="st6" d="M19.1,100.8c3.3-3.3,8.7-3.3,12,0s3.3,8.7,0,12-8.7,3.3-12,0-3.3-8.7,0-12Z"/>
      <path class="st6" d="M-4.8,124.7c3.3-3.3,8.7-3.3,12,0s3.3,8.7,0,12-8.7,3.3-12,0-3.3-8.7,0-12Z"/>
      <path class="st6" d="M114.7,52.9c3.3-3.3,8.7-3.3,12,0s3.3,8.7,0,12c-3.3,3.3-8.7,3.3-12,0-3.3-3.3-3.3-8.7,0-12Z"/>
      <path class="st6" d="M90.8,76.8c3.3-3.3,8.7-3.3,12,0s3.3,8.7,0,12-8.7,3.3-12,0-3.3-8.7,0-12Z"/>
      <path class="st6" d="M66.9,100.8c3.3-3.3,8.7-3.3,12,0s3.3,8.7,0,12-8.7,3.3-12,0-3.3-8.7,0-12Z"/>
      <path class="st6" d="M43,124.7c3.3-3.3,8.7-3.3,12,0s3.3,8.7,0,12-8.7,3.3-12,0-3.3-8.7,0-12Z"/>
      <path class="st6" d="M19.1,148.6c3.3-3.3,8.7-3.3,12,0s3.3,8.7,0,12-8.7,3.3-12,0-3.3-8.7,0-12Z"/>
      <path class="st6" d="M-4.8,172.5c3.3-3.3,8.7-3.3,12,0s3.3,8.7,0,12-8.7,3.3-12,0-3.3-8.7,0-12Z"/>
      <path class="st6" d="M162.6,52.9c3.3-3.3,8.7-3.3,12,0s3.3,8.7,0,12c-3.3,3.3-8.7,3.3-12,0-3.3-3.3-3.3-8.7,0-12Z"/>
      <path class="st6" d="M138.7,76.8c3.3-3.3,8.7-3.3,12,0s3.3,8.7,0,12-8.7,3.3-12,0-3.3-8.7,0-12Z"/>
      <path class="st6" d="M114.7,100.8c3.3-3.3,8.7-3.3,12,0s3.3,8.7,0,12-8.7,3.3-12,0-3.3-8.7,0-12Z"/>
      <path class="st6" d="M90.8,124.7c3.3-3.3,8.7-3.3,12,0s3.3,8.7,0,12-8.7,3.3-12,0-3.3-8.7,0-12Z"/>
      <path class="st6" d="M66.9,148.6c3.3-3.3,8.7-3.3,12,0s3.3,8.7,0,12-8.7,3.3-12,0-3.3-8.7,0-12Z"/>
      <path class="st6" d="M43,172.5c3.3-3.3,8.7-3.3,12,0s3.3,8.7,0,12-8.7,3.3-12,0-3.3-8.7,0-12Z"/>
      <path class="st6" d="M19.1,196.5c3.3-3.3,8.7-3.3,12,0s3.3,8.7,0,12-8.7,3.3-12,0-3.3-8.7,0-12Z"/>
      <path class="st6" d="M-4.8,220.4c3.3-3.3,8.7-3.3,12,0s3.3,8.7,0,12-8.7,3.3-12,0-3.3-8.7,0-12Z"/>
      <path class="st6" d="M186.5,76.8c3.3-3.3,8.7-3.3,12,0s3.3,8.7,0,12-8.7,3.3-12,0-3.3-8.7,0-12Z"/>
      <path class="st6" d="M162.6,100.8c3.3-3.3,8.7-3.3,12,0s3.3,8.7,0,12-8.7,3.3-12,0-3.3-8.7,0-12Z"/>
      <path class="st6" d="M138.7,124.7c3.3-3.3,8.7-3.3,12,0s3.3,8.7,0,12-8.7,3.3-12,0-3.3-8.7,0-12Z"/>
      <path class="st6" d="M114.7,148.6c3.3-3.3,8.7-3.3,12,0s3.3,8.7,0,12-8.7,3.3-12,0-3.3-8.7,0-12Z"/>
      <path class="st6" d="M90.8,172.5c3.3-3.3,8.7-3.3,12,0s3.3,8.7,0,12-8.7,3.3-12,0-3.3-8.7,0-12Z"/>
      <path class="st6" d="M66.9,196.5c3.3-3.3,8.7-3.3,12,0s3.3,8.7,0,12-8.7,3.3-12,0-3.3-8.7,0-12Z"/>
      <path class="st6" d="M43,220.4c3.3-3.3,8.7-3.3,12,0s3.3,8.7,0,12-8.7,3.3-12,0-3.3-8.7,0-12Z"/>
      <path class="st6" d="M19.1,244.3c3.3-3.3,8.7-3.3,12,0s3.3,8.7,0,12c-3.3,3.3-8.7,3.3-12,0-3.3-3.3-3.3-8.7,0-12Z"/>
      <path class="st6" d="M-4.8,268.2c3.3-3.3,8.7-3.3,12,0s3.3,8.7,0,12-8.7,3.3-12,0-3.3-8.7,0-12Z"/>
      <path class="st6" d="M234.4,76.8c3.3-3.3,8.7-3.3,12,0s3.3,8.7,0,12-8.7,3.3-12,0-3.3-8.7,0-12Z"/>
      <path class="st6" d="M210.4,100.8c3.3-3.3,8.7-3.3,12,0s3.3,8.7,0,12-8.7,3.3-12,0-3.3-8.7,0-12Z"/>
      <path class="st6" d="M186.5,124.7c3.3-3.3,8.7-3.3,12,0s3.3,8.7,0,12-8.7,3.3-12,0-3.3-8.7,0-12Z"/>
      <path class="st6" d="M162.6,148.6c3.3-3.3,8.7-3.3,12,0s3.3,8.7,0,12-8.7,3.3-12,0-3.3-8.7,0-12Z"/>
      <path class="st6" d="M138.7,172.5c3.3-3.3,8.7-3.3,12,0s3.3,8.7,0,12-8.7,3.3-12,0-3.3-8.7,0-12Z"/>
      <path class="st6" d="M114.7,196.5c3.3-3.3,8.7-3.3,12,0s3.3,8.7,0,12-8.7,3.3-12,0-3.3-8.7,0-12Z"/>
      <path class="st6" d="M90.8,220.4c3.3-3.3,8.7-3.3,12,0s3.3,8.7,0,12-8.7,3.3-12,0-3.3-8.7,0-12Z"/>
      <path class="st6" d="M66.9,244.3c3.3-3.3,8.7-3.3,12,0s3.3,8.7,0,12c-3.3,3.3-8.7,3.3-12,0-3.3-3.3-3.3-8.7,0-12Z"/>
      <path class="st6" d="M43,268.2c3.3-3.3,8.7-3.3,12,0s3.3,8.7,0,12-8.7,3.3-12,0-3.3-8.7,0-12Z"/>
      <path class="st6" d="M19.1,292.1c3.3-3.3,8.7-3.3,12,0s3.3,8.7,0,12-8.7,3.3-12,0-3.3-8.7,0-12Z"/>
      <path class="st6" d="M-4.8,316.1c3.3-3.3,8.7-3.3,12,0s3.3,8.7,0,12-8.7,3.3-12,0-3.3-8.7,0-12Z"/>
      <path class="st6" d="M258.3,100.8c3.3-3.3,8.7-3.3,12,0s3.3,8.7,0,12-8.7,3.3-12,0-3.3-8.7,0-12Z"/>
      <path class="st6" d="M234.4,124.7c3.3-3.3,8.7-3.3,12,0s3.3,8.7,0,12-8.7,3.3-12,0-3.3-8.7,0-12Z"/>
      <path class="st6" d="M210.4,148.6c3.3-3.3,8.7-3.3,12,0s3.3,8.7,0,12-8.7,3.3-12,0-3.3-8.7,0-12Z"/>
      <path class="st6" d="M186.5,172.5c3.3-3.3,8.7-3.3,12,0s3.3,8.7,0,12-8.7,3.3-12,0-3.3-8.7,0-12Z"/>
      <path class="st6" d="M162.6,196.5c3.3-3.3,8.7-3.3,12,0s3.3,8.7,0,12-8.7,3.3-12,0-3.3-8.7,0-12Z"/>
      <path class="st6" d="M138.7,220.4c3.3-3.3,8.7-3.3,12,0s3.3,8.7,0,12-8.7,3.3-12,0-3.3-8.7,0-12Z"/>
      <path class="st6" d="M114.7,244.3c3.3-3.3,8.7-3.3,12,0s3.3,8.7,0,12c-3.3,3.3-8.7,3.3-12,0-3.3-3.3-3.3-8.7,0-12Z"/>
      <path class="st6" d="M90.8,268.2c3.3-3.3,8.7-3.3,12,0s3.3,8.7,0,12-8.7,3.3-12,0-3.3-8.7,0-12Z"/>
      <path class="st6" d="M66.9,292.1c3.3-3.3,8.7-3.3,12,0s3.3,8.7,0,12-8.7,3.3-12,0-3.3-8.7,0-12Z"/>
      <path class="st6" d="M43,316.1c3.3-3.3,8.7-3.3,12,0s3.3,8.7,0,12-8.7,3.3-12,0-3.3-8.7,0-12Z"/>
      <path class="st6" d="M19.1,340c3.3-3.3,8.7-3.3,12,0s3.3,8.7,0,12-8.7,3.3-12,0-3.3-8.7,0-12Z"/>
      <path class="st6" d="M-4.8,363.9c3.3-3.3,8.7-3.3,12,0s3.3,8.7,0,12-8.7,3.3-12,0-3.3-8.7,0-12Z"/>
      <path class="st6" d="M282.2,124.7c3.3-3.3,8.7-3.3,12,0s3.3,8.7,0,12-8.7,3.3-12,0-3.3-8.7,0-12Z"/>
      <path class="st6" d="M258.3,148.6c3.3-3.3,8.7-3.3,12,0s3.3,8.7,0,12-8.7,3.3-12,0-3.3-8.7,0-12Z"/>
      <path class="st6" d="M234.4,172.5c3.3-3.3,8.7-3.3,12,0s3.3,8.7,0,12-8.7,3.3-12,0-3.3-8.7,0-12Z"/>
      <path class="st6" d="M210.4,196.5c3.3-3.3,8.7-3.3,12,0s3.3,8.7,0,12-8.7,3.3-12,0-3.3-8.7,0-12Z"/>
      <path class="st6" d="M186.5,220.4c3.3-3.3,8.7-3.3,12,0s3.3,8.7,0,12-8.7,3.3-12,0-3.3-8.7,0-12Z"/>
      <path class="st6" d="M162.6,244.3c3.3-3.3,8.7-3.3,12,0s3.3,8.7,0,12c-3.3,3.3-8.7,3.3-12,0-3.3-3.3-3.3-8.7,0-12Z"/>
      <path class="st6" d="M138.7,268.2c3.3-3.3,8.7-3.3,12,0s3.3,8.7,0,12-8.7,3.3-12,0-3.3-8.7,0-12Z"/>
      <path class="st6" d="M114.7,292.1c3.3-3.3,8.7-3.3,12,0s3.3,8.7,0,12-8.7,3.3-12,0-3.3-8.7,0-12Z"/>
      <path class="st6" d="M90.8,316.1c3.3-3.3,8.7-3.3,12,0s3.3,8.7,0,12-8.7,3.3-12,0-3.3-8.7,0-12Z"/>
      <path class="st6" d="M66.9,340c3.3-3.3,8.7-3.3,12,0s3.3,8.7,0,12-8.7,3.3-12,0-3.3-8.7,0-12Z"/>
      <path class="st6" d="M43,363.9c3.3-3.3,8.7-3.3,12,0s3.3,8.7,0,12-8.7,3.3-12,0-3.3-8.7,0-12Z"/>
      <path class="st6" d="M19.1,387.8c3.3-3.3,8.7-3.3,12,0s3.3,8.7,0,12-8.7,3.3-12,0-3.3-8.7,0-12Z"/>
      <path class="st6" d="M-4.8,411.8c3.3-3.3,8.7-3.3,12,0s3.3,8.7,0,12-8.7,3.3-12,0c-3.3-3.4-3.3-8.7,0-12Z"/>
      <path class="st6" d="M306.1,148.6c3.3-3.3,8.7-3.3,12,0s3.3,8.7,0,12-8.7,3.3-12,0-3.3-8.7,0-12Z"/>
      <path class="st6" d="M282.2,172.5c3.3-3.3,8.7-3.3,12,0s3.3,8.7,0,12-8.7,3.3-12,0-3.3-8.7,0-12Z"/>
      <path class="st6" d="M258.3,196.5c3.3-3.3,8.7-3.3,12,0s3.3,8.7,0,12-8.7,3.3-12,0-3.3-8.7,0-12Z"/>
      <path class="st6" d="M234.4,220.4c3.3-3.3,8.7-3.3,12,0s3.3,8.7,0,12-8.7,3.3-12,0-3.3-8.7,0-12Z"/>
      <path class="st6" d="M210.4,244.3c3.3-3.3,8.7-3.3,12,0s3.3,8.7,0,12c-3.3,3.3-8.7,3.3-12,0-3.3-3.3-3.3-8.7,0-12Z"/>
      <path class="st6" d="M186.5,268.2c3.3-3.3,8.7-3.3,12,0s3.3,8.7,0,12-8.7,3.3-12,0-3.3-8.7,0-12Z"/>
      <path class="st6" d="M162.6,292.1c3.3-3.3,8.7-3.3,12,0s3.3,8.7,0,12-8.7,3.3-12,0-3.3-8.7,0-12Z"/>
      <path class="st6" d="M138.7,316.1c3.3-3.3,8.7-3.3,12,0s3.3,8.7,0,12-8.7,3.3-12,0-3.3-8.7,0-12Z"/>
      <path class="st6" d="M114.7,340c3.3-3.3,8.7-3.3,12,0s3.3,8.7,0,12-8.7,3.3-12,0-3.3-8.7,0-12Z"/>
      <path class="st6" d="M90.8,363.9c3.3-3.3,8.7-3.3,12,0s3.3,8.7,0,12-8.7,3.3-12,0-3.3-8.7,0-12Z"/>
      <path class="st6" d="M66.9,387.8c3.3-3.3,8.7-3.3,12,0s3.3,8.7,0,12-8.7,3.3-12,0-3.3-8.7,0-12Z"/>
      <path class="st6" d="M43,411.8c3.3-3.3,8.7-3.3,12,0s3.3,8.7,0,12-8.7,3.3-12,0c-3.3-3.4-3.3-8.7,0-12Z"/>
      <path class="st6" d="M19.1,435.7c3.3-3.3,8.7-3.3,12,0s3.3,8.7,0,12-8.7,3.3-12,0-3.3-8.7,0-12Z"/>
      <path class="st6" d="M-4.8,459.6c3.3-3.3,8.7-3.3,12,0s3.3,8.7,0,12-8.7,3.3-12,0-3.3-8.7,0-12Z"/>
      <path class="st6" d="M330,172.5c3.3-3.3,8.7-3.3,12,0s3.3,8.7,0,12-8.7,3.3-12,0-3.3-8.7,0-12Z"/>
      <path class="st6" d="M306.1,196.5c3.3-3.3,8.7-3.3,12,0s3.3,8.7,0,12-8.7,3.3-12,0-3.3-8.7,0-12Z"/>
      <path class="st6" d="M282.2,220.4c3.3-3.3,8.7-3.3,12,0s3.3,8.7,0,12-8.7,3.3-12,0-3.3-8.7,0-12Z"/>
      <path class="st6" d="M258.3,244.3c3.3-3.3,8.7-3.3,12,0s3.3,8.7,0,12c-3.3,3.3-8.7,3.3-12,0-3.3-3.3-3.3-8.7,0-12Z"/>
      <path class="st6" d="M234.4,268.2c3.3-3.3,8.7-3.3,12,0s3.3,8.7,0,12-8.7,3.3-12,0-3.3-8.7,0-12Z"/>
      <path class="st6" d="M210.4,292.1c3.3-3.3,8.7-3.3,12,0s3.3,8.7,0,12-8.7,3.3-12,0-3.3-8.7,0-12Z"/>
      <path class="st6" d="M186.5,316.1c3.3-3.3,8.7-3.3,12,0s3.3,8.7,0,12-8.7,3.3-12,0-3.3-8.7,0-12Z"/>
      <path class="st6" d="M162.6,340c3.3-3.3,8.7-3.3,12,0s3.3,8.7,0,12-8.7,3.3-12,0-3.3-8.7,0-12Z"/>
      <path class="st6" d="M138.7,363.9c3.3-3.3,8.7-3.3,12,0s3.3,8.7,0,12-8.7,3.3-12,0-3.3-8.7,0-12Z"/>
      <path class="st6" d="M114.7,387.8c3.3-3.3,8.7-3.3,12,0s3.3,8.7,0,12-8.7,3.3-12,0-3.3-8.7,0-12Z"/>
      <path class="st6" d="M90.8,411.8c3.3-3.3,8.7-3.3,12,0s3.3,8.7,0,12-8.7,3.3-12,0c-3.3-3.4-3.3-8.7,0-12Z"/>
      <path class="st6" d="M66.9,435.7c3.3-3.3,8.7-3.3,12,0s3.3,8.7,0,12-8.7,3.3-12,0-3.3-8.7,0-12Z"/>
      <path class="st6" d="M43,459.6c3.3-3.3,8.7-3.3,12,0s3.3,8.7,0,12-8.7,3.3-12,0-3.3-8.7,0-12Z"/>
      <path class="st6" d="M19.1,483.5c3.3-3.3,8.7-3.3,12,0s3.3,8.7,0,12-8.7,3.3-12,0c-3.3-3.4-3.3-8.7,0-12Z"/>
      <path class="st6" d="M-4.8,507.4c3.3-3.3,8.7-3.3,12,0s3.3,8.7,0,12c-3.3,3.3-8.7,3.3-12,0-3.3-3.3-3.3-8.7,0-12Z"/>
      <path class="st6" d="M330,220.4c3.3-3.3,8.7-3.3,12,0s3.3,8.7,0,12-8.7,3.3-12,0-3.3-8.7,0-12Z"/>
      <path class="st6" d="M306.1,244.3c3.3-3.3,8.7-3.3,12,0s3.3,8.7,0,12c-3.3,3.3-8.7,3.3-12,0-3.3-3.3-3.3-8.7,0-12Z"/>
      <path class="st6" d="M282.2,268.2c3.3-3.3,8.7-3.3,12,0s3.3,8.7,0,12-8.7,3.3-12,0-3.3-8.7,0-12Z"/>
      <path class="st6" d="M258.3,292.1c3.3-3.3,8.7-3.3,12,0s3.3,8.7,0,12-8.7,3.3-12,0-3.3-8.7,0-12Z"/>
      <path class="st6" d="M234.4,316.1c3.3-3.3,8.7-3.3,12,0s3.3,8.7,0,12-8.7,3.3-12,0-3.3-8.7,0-12Z"/>
      <path class="st6" d="M210.4,340c3.3-3.3,8.7-3.3,12,0s3.3,8.7,0,12-8.7,3.3-12,0-3.3-8.7,0-12Z"/>
      <path class="st6" d="M186.5,363.9c3.3-3.3,8.7-3.3,12,0s3.3,8.7,0,12-8.7,3.3-12,0-3.3-8.7,0-12Z"/>
      <path class="st6" d="M162.6,387.8c3.3-3.3,8.7-3.3,12,0s3.3,8.7,0,12-8.7,3.3-12,0-3.3-8.7,0-12Z"/>
      <path class="st6" d="M138.7,411.8c3.3-3.3,8.7-3.3,12,0s3.3,8.7,0,12-8.7,3.3-12,0c-3.3-3.4-3.3-8.7,0-12Z"/>
      <path class="st6" d="M114.7,435.7c3.3-3.3,8.7-3.3,12,0s3.3,8.7,0,12-8.7,3.3-12,0-3.3-8.7,0-12Z"/>
      <path class="st6" d="M90.8,459.6c3.3-3.3,8.7-3.3,12,0s3.3,8.7,0,12-8.7,3.3-12,0-3.3-8.7,0-12Z"/>
      <path class="st6" d="M66.9,483.5c3.3-3.3,8.7-3.3,12,0s3.3,8.7,0,12-8.7,3.3-12,0c-3.3-3.4-3.3-8.7,0-12Z"/>
      <path class="st6" d="M43,507.4c3.3-3.3,8.7-3.3,12,0s3.3,8.7,0,12-8.7,3.3-12,0c-3.3-3.3-3.3-8.7,0-12Z"/>
      <path class="st6" d="M354,244.3c3.3-3.3,8.7-3.3,12,0s3.3,8.7,0,12c-3.3,3.3-8.7,3.3-12,0-3.3-3.3-3.3-8.7,0-12Z"/>
      <path class="st6" d="M330,268.2c3.3-3.3,8.7-3.3,12,0s3.3,8.7,0,12-8.7,3.3-12,0-3.3-8.7,0-12Z"/>
      <path class="st6" d="M306.1,292.1c3.3-3.3,8.7-3.3,12,0s3.3,8.7,0,12-8.7,3.3-12,0-3.3-8.7,0-12Z"/>
      <path class="st6" d="M282.2,316.1c3.3-3.3,8.7-3.3,12,0s3.3,8.7,0,12-8.7,3.3-12,0-3.3-8.7,0-12Z"/>
      <path class="st6" d="M258.3,340c3.3-3.3,8.7-3.3,12,0s3.3,8.7,0,12-8.7,3.3-12,0-3.3-8.7,0-12Z"/>
      <path class="st6" d="M234.4,363.9c3.3-3.3,8.7-3.3,12,0s3.3,8.7,0,12-8.7,3.3-12,0-3.3-8.7,0-12Z"/>
      <path class="st6" d="M210.4,387.8c3.3-3.3,8.7-3.3,12,0s3.3,8.7,0,12-8.7,3.3-12,0-3.3-8.7,0-12Z"/>
      <path class="st6" d="M186.5,411.8c3.3-3.3,8.7-3.3,12,0s3.3,8.7,0,12-8.7,3.3-12,0c-3.3-3.4-3.3-8.7,0-12Z"/>
      <path class="st6" d="M162.6,435.7c3.3-3.3,8.7-3.3,12,0s3.3,8.7,0,12-8.7,3.3-12,0-3.3-8.7,0-12Z"/>
      <path class="st6" d="M138.7,459.6c3.3-3.3,8.7-3.3,12,0s3.3,8.7,0,12-8.7,3.3-12,0-3.3-8.7,0-12Z"/>
      <path class="st6" d="M114.7,483.5c3.3-3.3,8.7-3.3,12,0s3.3,8.7,0,12-8.7,3.3-12,0-3.3-8.7,0-12Z"/>
      <path class="st6" d="M90.8,507.4c3.3-3.3,8.7-3.3,12,0s3.3,8.7,0,12-8.7,3.3-12,0-3.3-8.7,0-12Z"/>
      <path class="st6" d="M66.9,531.4c3.3-3.3,8.7-3.3,12,0,3.3,3.3,3.3,8.7,0,12-3.3,3.3-8.7,3.3-12,0s-3.3-8.7,0-12Z"/>
      <path class="st6" d="M354,292.1c3.3-3.3,8.7-3.3,12,0s3.3,8.7,0,12-8.7,3.3-12,0-3.3-8.7,0-12Z"/>
      <path class="st6" d="M330,316.1c3.3-3.3,8.7-3.3,12,0s3.3,8.7,0,12-8.7,3.3-12,0-3.3-8.7,0-12Z"/>
      <path class="st6" d="M306.1,340c3.3-3.3,8.7-3.3,12,0s3.3,8.7,0,12-8.7,3.3-12,0-3.3-8.7,0-12Z"/>
      <path class="st6" d="M282.2,363.9c3.3-3.3,8.7-3.3,12,0s3.3,8.7,0,12-8.7,3.3-12,0-3.3-8.7,0-12Z"/>
      <path class="st6" d="M258.3,387.8c3.3-3.3,8.7-3.3,12,0s3.3,8.7,0,12-8.7,3.3-12,0-3.3-8.7,0-12Z"/>
      <path class="st6" d="M234.4,411.8c3.3-3.3,8.7-3.3,12,0s3.3,8.7,0,12-8.7,3.3-12,0c-3.3-3.4-3.3-8.7,0-12Z"/>
      <path class="st6" d="M210.4,435.7c3.3-3.3,8.7-3.3,12,0s3.3,8.7,0,12-8.7,3.3-12,0-3.3-8.7,0-12Z"/>
      <path class="st6" d="M186.5,459.6c3.3-3.3,8.7-3.3,12,0s3.3,8.7,0,12-8.7,3.3-12,0-3.3-8.7,0-12Z"/>
      <path class="st6" d="M162.6,483.5c3.3-3.3,8.7-3.3,12,0s3.3,8.7,0,12-8.7,3.3-12,0-3.3-8.7,0-12Z"/>
      <path class="st6" d="M138.7,507.4c3.3-3.3,8.7-3.3,12,0s3.3,8.7,0,12-8.7,3.3-12,0c-3.3-3.3-3.3-8.7,0-12Z"/>
      <path class="st6" d="M114.7,531.4c3.3-3.3,8.7-3.3,12,0s3.3,8.7,0,12-8.7,3.3-12,0c-3.3-3.3-3.3-8.7,0-12Z"/>
      <path class="st6" d="M354,340c3.3-3.3,8.7-3.3,12,0s3.3,8.7,0,12-8.7,3.3-12,0-3.3-8.7,0-12Z"/>
      <path class="st6" d="M330,363.9c3.3-3.3,8.7-3.3,12,0s3.3,8.7,0,12-8.7,3.3-12,0-3.3-8.7,0-12Z"/>
      <path class="st6" d="M306.1,387.8c3.3-3.3,8.7-3.3,12,0s3.3,8.7,0,12-8.7,3.3-12,0-3.3-8.7,0-12Z"/>
      <path class="st6" d="M282.2,411.8c3.3-3.3,8.7-3.3,12,0s3.3,8.7,0,12-8.7,3.3-12,0c-3.3-3.4-3.3-8.7,0-12Z"/>
      <path class="st6" d="M258.3,435.7c3.3-3.3,8.7-3.3,12,0s3.3,8.7,0,12-8.7,3.3-12,0-3.3-8.7,0-12Z"/>
      <path class="st6" d="M234.4,459.6c3.3-3.3,8.7-3.3,12,0s3.3,8.7,0,12-8.7,3.3-12,0-3.3-8.7,0-12Z"/>
      <path class="st6" d="M210.4,483.5c3.3-3.3,8.7-3.3,12,0s3.3,8.7,0,12-8.7,3.3-12,0-3.3-8.7,0-12Z"/>
      <path class="st6" d="M186.5,507.4c3.3-3.3,8.7-3.3,12,0,3.3,3.3,3.3,8.7,0,12s-8.7,3.3-12,0-3.3-8.7,0-12Z"/>
      <path class="st6" d="M162.6,531.4c3.3-3.3,8.7-3.3,12,0,3.3,3.3,3.3,8.7,0,12-3.3,3.3-8.7,3.3-12,0s-3.3-8.7,0-12Z"/>
      <path class="st6" d="M330,411.8c3.3-3.3,8.7-3.3,12,0s3.3,8.7,0,12-8.7,3.3-12,0c-3.3-3.4-3.3-8.7,0-12Z"/>
      <path class="st6" d="M306.1,435.7c3.3-3.3,8.7-3.3,12,0s3.3,8.7,0,12-8.7,3.3-12,0-3.3-8.7,0-12Z"/>
      <path class="st6" d="M282.2,459.6c3.3-3.3,8.7-3.3,12,0s3.3,8.7,0,12-8.7,3.3-12,0-3.3-8.7,0-12Z"/>
      <path class="st6" d="M258.3,483.5c3.3-3.3,8.7-3.3,12,0s3.3,8.7,0,12-8.7,3.3-12,0-3.3-8.7,0-12Z"/>
      <path class="st6" d="M234.4,507.4c3.3-3.3,8.7-3.3,12,0s3.3,8.7,0,12-8.7,3.3-12,0c-3.3-3.3-3.3-8.7,0-12Z"/>
    </g>
    <g>
      <path class="st6" d="M1520.7,441.6c3.3-3.3,8.7-3.3,12,0s3.3,8.7,0,12c-3.4,3.3-8.7,3.3-12,0s-3.3-8.7,0-12Z"/>
      <path class="st6" d="M1496.8,465.6c3.3-3.3,8.7-3.3,12,0s3.3,8.7,0,12-8.7,3.3-12,0-3.3-8.7,0-12Z"/>
      <path class="st6" d="M1472.9,489.5c3.3-3.3,8.7-3.3,12,0s3.3,8.7,0,12-8.7,3.3-12,0-3.3-8.7,0-12Z"/>
      <path class="st6" d="M1449,513.4c3.3-3.3,8.7-3.3,12,0s3.3,8.7,0,12-8.7,3.3-12,0c-3.3-3.3-3.3-8.7,0-12Z"/>
      <path class="st6" d="M1425,537.3c3.3-3.3,8.7-3.3,12,0s3.3,8.7,0,12-8.7,3.3-12,0-3.3-8.7,0-12Z"/>
      <path class="st6" d="M1592.5,417.7c3.4-3.3,8.7-3.3,12,0s3.3,8.7,0,12c-3.4,3.3-8.7,3.3-12,0s-3.3-8.7,0-12Z"/>
      <path class="st6" d="M1568.6,441.6c3.3-3.3,8.7-3.3,12,0s3.3,8.7,0,12-8.7,3.3-12,0-3.3-8.7,0-12Z"/>
      <path class="st6" d="M1544.6,465.6c3.3-3.3,8.7-3.3,12,0,3.3,3.3,3.3,8.7,0,12-3.3,3.3-8.7,3.3-12,0s-3.3-8.7,0-12Z"/>
      <path class="st6" d="M1520.7,489.5c3.3-3.3,8.7-3.3,12,0s3.3,8.7,0,12c-3.4,3.3-8.7,3.3-12,0s-3.3-8.7,0-12Z"/>
      <path class="st6" d="M1496.8,513.4c3.3-3.3,8.7-3.3,12,0s3.3,8.7,0,12-8.7,3.3-12,0c-3.3-3.3-3.3-8.7,0-12Z"/>
      <path class="st6" d="M1472.9,537.3c3.3-3.3,8.7-3.3,12,0s3.3,8.7,0,12-8.7,3.3-12,0c-3.3-3.3-3.3-8.7,0-12Z"/>
      <path class="st6" d="M1449,561.2c3.3-3.3,8.7-3.3,12,0s3.3,8.7,0,12-8.7,3.3-12,0-3.3-8.7,0-12Z"/>
      <path class="st6" d="M1425,585.2c3.3-3.3,8.7-3.3,12,0,3.3,3.3,3.3,8.7,0,12s-8.7,3.3-12,0-3.3-8.7,0-12Z"/>
      <path class="st6" d="M1401.1,609.1c3.3-3.3,8.7-3.3,12,0,3.3,3.3,3.3,8.7,0,12s-8.7,3.3-12,0-3.3-8.7,0-12Z"/>
      <path class="st6" d="M1640.3,417.7c3.3-3.3,8.7-3.3,12,0s3.3,8.7,0,12-8.7,3.3-12,0-3.3-8.7,0-12Z"/>
      <path class="st6" d="M1616.4,441.6c3.3-3.3,8.7-3.3,12,0s3.3,8.7,0,12-8.7,3.3-12,0-3.3-8.7,0-12Z"/>
      <path class="st6" d="M1592.5,465.6c3.4-3.3,8.7-3.3,12,0s3.3,8.7,0,12c-3.4,3.3-8.7,3.3-12,0s-3.3-8.7,0-12Z"/>
      <path class="st6" d="M1568.6,489.5c3.3-3.3,8.7-3.3,12,0s3.3,8.7,0,12-8.7,3.3-12,0-3.3-8.7,0-12Z"/>
      <path class="st6" d="M1544.6,513.4c3.3-3.3,8.7-3.3,12,0,3.3,3.3,3.3,8.7,0,12s-8.7,3.3-12,0-3.3-8.7,0-12Z"/>
      <path class="st6" d="M1520.7,537.3c3.3-3.3,8.7-3.3,12,0s3.3,8.7,0,12c-3.4,3.3-8.7,3.3-12,0s-3.3-8.7,0-12Z"/>
      <path class="st6" d="M1496.8,561.2c3.3-3.3,8.7-3.3,12,0s3.3,8.7,0,12-8.7,3.3-12,0-3.3-8.7,0-12Z"/>
      <path class="st6" d="M1472.9,585.2c3.3-3.3,8.7-3.3,12,0,3.3,3.3,3.3,8.7,0,12s-8.7,3.3-12,0c-3.3-3.3-3.3-8.7,0-12Z"/>
      <path class="st6" d="M1449,609.1c3.3-3.3,8.7-3.3,12,0,3.3,3.3,3.3,8.7,0,12s-8.7,3.3-12,0c-3.3-3.3-3.3-8.7,0-12Z"/>
      <path class="st6" d="M1425,633c3.3-3.3,8.7-3.3,12,0s3.3,8.7,0,12-8.7,3.3-12,0-3.3-8.7,0-12Z"/>
      <path class="st6" d="M1401.1,656.9c3.3-3.3,8.7-3.3,12,0s3.3,8.7,0,12-8.7,3.3-12,0-3.3-8.7,0-12Z"/>
      <path class="st6" d="M1688.2,417.7c3.3-3.3,8.7-3.3,12,0s3.3,8.7,0,12-8.7,3.3-12,0-3.3-8.7,0-12Z"/>
      <path class="st6" d="M1664.3,441.6c3.3-3.3,8.7-3.3,12,0s3.3,8.7,0,12-8.7,3.3-12,0-3.3-8.7,0-12Z"/>
      <path class="st6" d="M1640.3,465.6c3.3-3.3,8.7-3.3,12,0s3.3,8.7,0,12-8.7,3.3-12,0-3.3-8.7,0-12Z"/>
      <path class="st6" d="M1616.4,489.5c3.3-3.3,8.7-3.3,12,0s3.3,8.7,0,12-8.7,3.3-12,0-3.3-8.7,0-12Z"/>
      <path class="st6" d="M1592.5,513.4c3.4-3.3,8.7-3.3,12,0s3.3,8.7,0,12c-3.4,3.3-8.7,3.3-12,0-3.3-3.3-3.3-8.7,0-12Z"/>
      <path class="st6" d="M1568.6,537.3c3.3-3.3,8.7-3.3,12,0s3.3,8.7,0,12-8.7,3.3-12,0c-3.3-3.3-3.3-8.7,0-12Z"/>
      <path class="st6" d="M1544.6,561.2c3.3-3.3,8.7-3.3,12,0,3.3,3.3,3.3,8.7,0,12s-8.7,3.3-12,0-3.3-8.7,0-12Z"/>
      <path class="st6" d="M1520.7,585.2c3.3-3.3,8.7-3.3,12,0,3.3,3.3,3.3,8.7,0,12-3.4,3.3-8.7,3.3-12,0s-3.3-8.7,0-12Z"/>
      <path class="st6" d="M1496.8,609.1c3.3-3.3,8.7-3.3,12,0,3.3,3.3,3.3,8.7,0,12s-8.7,3.3-12,0c-3.3-3.3-3.3-8.7,0-12Z"/>
      <path class="st6" d="M1472.9,633c3.3-3.3,8.7-3.3,12,0s3.3,8.7,0,12-8.7,3.3-12,0c-3.3-3.3-3.3-8.7,0-12Z"/>
      <path class="st6" d="M1449,656.9c3.3-3.3,8.7-3.3,12,0s3.3,8.7,0,12-8.7,3.3-12,0c-3.3-3.3-3.3-8.7,0-12Z"/>
      <path class="st6" d="M1425,680.9c3.3-3.3,8.7-3.3,12,0,3.3,3.3,3.3,8.7,0,12s-8.7,3.3-12,0-3.3-8.7,0-12Z"/>
      <path class="st6" d="M1401.1,704.8c3.3-3.3,8.7-3.3,12,0,3.3,3.3,3.3,8.7,0,12s-8.7,3.3-12,0-3.3-8.7,0-12Z"/>
      <path class="st6" d="M1712.1,441.6c3.3-3.3,8.7-3.3,12,0s3.3,8.7,0,12-8.7,3.3-12,0-3.3-8.7,0-12Z"/>
      <path class="st6" d="M1688.2,465.6c3.3-3.3,8.7-3.3,12,0s3.3,8.7,0,12-8.7,3.3-12,0-3.3-8.7,0-12Z"/>
      <path class="st6" d="M1664.3,489.5c3.3-3.3,8.7-3.3,12,0s3.3,8.7,0,12-8.7,3.3-12,0-3.3-8.7,0-12Z"/>
      <circle class="st6" cx="1646.3" cy="519.4" r="8.5"/>
      <path class="st6" d="M1616.4,537.3c3.3-3.3,8.7-3.3,12,0s3.3,8.7,0,12-8.7,3.3-12,0c-3.3-3.3-3.3-8.7,0-12Z"/>
      <path class="st6" d="M1592.5,561.2c3.4-3.3,8.7-3.3,12,0s3.3,8.7,0,12c-3.4,3.3-8.7,3.3-12,0s-3.3-8.7,0-12Z"/>
      <circle class="st6" cx="1574.6" cy="591.2" r="8.5"/>
      <path class="st6" d="M1544.6,609.1c3.3-3.3,8.7-3.3,12,0,3.3,3.3,3.3,8.7,0,12-3.3,3.3-8.7,3.3-12,0s-3.3-8.7,0-12Z"/>
      <path class="st6" d="M1520.7,633c3.3-3.3,8.7-3.3,12,0s3.3,8.7,0,12c-3.4,3.3-8.7,3.3-12,0s-3.3-8.7,0-12Z"/>
      <path class="st6" d="M1496.8,656.9c3.3-3.3,8.7-3.3,12,0s3.3,8.7,0,12-8.7,3.3-12,0c-3.3-3.3-3.3-8.7,0-12Z"/>
      <path class="st6" d="M1472.9,680.9c3.3-3.3,8.7-3.3,12,0,3.3,3.3,3.3,8.7,0,12s-8.7,3.3-12,0c-3.3-3.3-3.3-8.7,0-12Z"/>
      <path class="st6" d="M1449,704.8c3.3-3.3,8.7-3.3,12,0,3.3,3.3,3.3,8.7,0,12s-8.7,3.3-12,0c-3.3-3.3-3.3-8.7,0-12Z"/>
      <path class="st6" d="M1425,728.7c3.3-3.3,8.7-3.3,12,0,3.3,3.3,3.3,8.7,0,12s-8.7,3.3-12,0-3.3-8.7,0-12Z"/>
      <path class="st6" d="M1759.9,441.6c3.4-3.3,8.7-3.3,12,0s3.3,8.7,0,12-8.7,3.3-12,0-3.3-8.7,0-12Z"/>
      <path class="st6" d="M1736,465.6c3.3-3.3,8.7-3.3,12,0,3.3,3.3,3.3,8.7,0,12-3.3,3.3-8.7,3.3-12,0s-3.3-8.7,0-12Z"/>
      <path class="st6" d="M1712.1,489.5c3.3-3.3,8.7-3.3,12,0s3.3,8.7,0,12-8.7,3.3-12,0-3.3-8.7,0-12Z"/>
      <path class="st6" d="M1688.2,513.4c3.3-3.3,8.7-3.3,12,0s3.3,8.7,0,12-8.7,3.3-12,0c-3.3-3.3-3.3-8.7,0-12Z"/>
      <path class="st6" d="M1664.3,537.3c3.3-3.3,8.7-3.3,12,0s3.3,8.7,0,12c-3.3,3.3-8.7,3.3-12,0-3.3-3.3-3.3-8.7,0-12Z"/>
      <path class="st6" d="M1640.3,561.2c3.3-3.3,8.7-3.3,12,0s3.3,8.7,0,12-8.7,3.3-12,0-3.3-8.7,0-12Z"/>
      <path class="st6" d="M1616.4,585.2c3.3-3.3,8.7-3.3,12,0,3.3,3.3,3.3,8.7,0,12s-8.7,3.3-12,0c-3.3-3.3-3.3-8.7,0-12Z"/>
      <path class="st6" d="M1592.5,609.1c3.4-3.3,8.7-3.3,12,0,3.3,3.3,3.3,8.7,0,12-3.4,3.3-8.7,3.3-12,0-3.3-3.3-3.3-8.7,0-12Z"/>
      <path class="st6" d="M1568.6,633c3.3-3.3,8.7-3.3,12,0s3.3,8.7,0,12-8.7,3.3-12,0c-3.3-3.3-3.3-8.7,0-12Z"/>
      <path class="st6" d="M1544.6,656.9c3.3-3.3,8.7-3.3,12,0,3.3,3.3,3.3,8.7,0,12-3.3,3.3-8.7,3.3-12,0s-3.3-8.7,0-12Z"/>
      <path class="st6" d="M1520.7,680.9c3.3-3.3,8.7-3.3,12,0,3.3,3.3,3.3,8.7,0,12-3.4,3.3-8.7,3.3-12,0s-3.3-8.7,0-12Z"/>
      <path class="st6" d="M1496.8,704.8c3.3-3.3,8.7-3.3,12,0,3.3,3.3,3.3,8.7,0,12s-8.7,3.3-12,0c-3.3-3.3-3.3-8.7,0-12Z"/>
      <path class="st6" d="M1472.9,728.7c3.3-3.3,8.7-3.3,12,0,3.3,3.3,3.3,8.7,0,12s-8.7,3.3-12,0c-3.3-3.3-3.3-8.7,0-12Z"/>
      <path class="st6" d="M1449,752.6c3.3-3.3,8.7-3.3,12,0s3.3,8.7,0,12-8.7,3.3-12,0c-3.3-3.3-3.3-8.7,0-12Z"/>
      <path class="st6" d="M1425,776.5c3.3-3.3,8.7-3.3,12,0s3.3,8.7,0,12-8.7,3.3-12,0-3.3-8.7,0-12Z"/>
      <path class="st6" d="M1783.9,465.6c3.3-3.3,8.7-3.3,12,0,3.3,3.3,3.3,8.7,0,12-3.3,3.3-8.7,3.3-12,0s-3.3-8.7,0-12Z"/>
      <path class="st6" d="M1759.9,489.5c3.4-3.3,8.7-3.3,12,0s3.3,8.7,0,12-8.7,3.3-12,0-3.3-8.7,0-12Z"/>
      <path class="st6" d="M1736,513.4c3.3-3.3,8.7-3.3,12,0,3.3,3.3,3.3,8.7,0,12-3.3,3.3-8.7,3.3-12,0s-3.3-8.7,0-12Z"/>
      <path class="st6" d="M1712.1,537.3c3.3-3.3,8.7-3.3,12,0s3.3,8.7,0,12-8.7,3.3-12,0c-3.3-3.3-3.3-8.7,0-12Z"/>
      <path class="st6" d="M1688.2,561.2c3.3-3.3,8.7-3.3,12,0s3.3,8.7,0,12-8.7,3.3-12,0-3.3-8.7,0-12Z"/>
      <path class="st6" d="M1664.3,585.2c3.3-3.3,8.7-3.3,12,0s3.3,8.7,0,12c-3.3,3.3-8.7,3.3-12,0-3.3-3.3-3.3-8.7,0-12Z"/>
      <path class="st6" d="M1640.3,609.1c3.3-3.3,8.7-3.3,12,0,3.3,3.3,3.3,8.7,0,12s-8.7,3.3-12,0-3.3-8.7,0-12Z"/>
      <path class="st6" d="M1616.4,633c3.3-3.3,8.7-3.3,12,0s3.3,8.7,0,12-8.7,3.3-12,0c-3.3-3.3-3.3-8.7,0-12Z"/>
      <path class="st6" d="M1592.5,656.9c3.4-3.3,8.7-3.3,12,0s3.3,8.7,0,12c-3.4,3.3-8.7,3.3-12,0-3.3-3.3-3.3-8.7,0-12Z"/>
      <path class="st6" d="M1568.6,680.9c3.3-3.3,8.7-3.3,12,0,3.3,3.3,3.3,8.7,0,12s-8.7,3.3-12,0c-3.3-3.3-3.3-8.7,0-12Z"/>
      <path class="st6" d="M1544.6,704.8c3.3-3.3,8.7-3.3,12,0,3.3,3.3,3.3,8.7,0,12-3.3,3.3-8.7,3.3-12,0s-3.3-8.7,0-12Z"/>
      <path class="st6" d="M1520.7,728.7c3.3-3.3,8.7-3.3,12,0,3.3,3.3,3.3,8.7,0,12-3.4,3.3-8.7,3.3-12,0s-3.3-8.7,0-12Z"/>
      <path class="st6" d="M1496.8,752.6c3.3-3.3,8.7-3.3,12,0s3.3,8.7,0,12-8.7,3.3-12,0c-3.3-3.3-3.3-8.7,0-12Z"/>
      <path class="st6" d="M1472.9,776.5c3.3-3.3,8.7-3.3,12,0s3.3,8.7,0,12-8.7,3.3-12,0c-3.3-3.3-3.3-8.7,0-12Z"/>
      <path class="st6" d="M1449,800.5c3.3-3.3,8.7-3.3,12,0,3.3,3.3,3.3,8.7,0,12s-8.7,3.3-12,0c-3.3-3.3-3.3-8.7,0-12Z"/>
      <path class="st6" d="M1807.8,489.5c3.3-3.3,8.7-3.3,12,0,3.3,3.3,3.3,8.7,0,12-3.3,3.3-8.7,3.3-12,0-3.3-3.3-3.3-8.7,0-12Z"/>
      <path class="st6" d="M1783.9,513.4c3.3-3.3,8.7-3.3,12,0,3.3,3.3,3.3,8.7,0,12-3.3,3.3-8.7,3.3-12,0-3.3-3.3-3.3-8.7,0-12Z"/>
      <path class="st6" d="M1759.9,537.3c3.4-3.3,8.7-3.3,12,0s3.3,8.7,0,12-8.7,3.3-12,0-3.3-8.7,0-12Z"/>
      <path class="st6" d="M1736,561.2c3.3-3.3,8.7-3.3,12,0,3.3,3.3,3.3,8.7,0,12-3.3,3.3-8.7,3.3-12,0s-3.3-8.7,0-12Z"/>
      <path class="st6" d="M1712.1,585.2c3.3-3.3,8.7-3.3,12,0,3.3,3.3,3.3,8.7,0,12s-8.7,3.3-12,0c-3.3-3.3-3.3-8.7,0-12Z"/>
      <path class="st6" d="M1688.2,609.1c3.3-3.3,8.7-3.3,12,0,3.3,3.3,3.3,8.7,0,12s-8.7,3.3-12,0c-3.3-3.3-3.3-8.7,0-12Z"/>
      <path class="st6" d="M1664.3,633c3.3-3.3,8.7-3.3,12,0s3.3,8.7,0,12c-3.3,3.3-8.7,3.3-12,0-3.3-3.3-3.3-8.7,0-12Z"/>
      <path class="st6" d="M1640.3,656.9c3.3-3.3,8.7-3.3,12,0s3.3,8.7,0,12-8.7,3.3-12,0-3.3-8.7,0-12Z"/>
      <path class="st6" d="M1616.4,680.9c3.3-3.3,8.7-3.3,12,0,3.3,3.3,3.3,8.7,0,12s-8.7,3.3-12,0c-3.3-3.3-3.3-8.7,0-12Z"/>
      <path class="st6" d="M1592.5,704.8c3.4-3.3,8.7-3.3,12,0,3.3,3.3,3.3,8.7,0,12-3.4,3.3-8.7,3.3-12,0-3.3-3.3-3.3-8.7,0-12Z"/>
      <path class="st6" d="M1568.6,728.7c3.3-3.3,8.7-3.3,12,0,3.3,3.3,3.3,8.7,0,12s-8.7,3.3-12,0c-3.3-3.3-3.3-8.7,0-12Z"/>
      <path class="st6" d="M1544.6,752.6c3.3-3.3,8.7-3.3,12,0,3.3,3.3,3.3,8.7,0,12-3.3,3.3-8.7,3.3-12,0s-3.3-8.7,0-12Z"/>
      <path class="st6" d="M1520.7,776.5c3.3-3.3,8.7-3.3,12,0s3.3,8.7,0,12c-3.4,3.3-8.7,3.3-12,0s-3.3-8.7,0-12Z"/>
      <path class="st6" d="M1496.8,800.5c3.3-3.3,8.7-3.3,12,0,3.3,3.3,3.3,8.7,0,12s-8.7,3.3-12,0c-3.3-3.3-3.3-8.7,0-12Z"/>
      <path class="st6" d="M1472.9,824.4c3.3-3.3,8.7-3.3,12,0,3.3,3.3,3.3,8.7,0,12s-8.7,3.3-12,0c-3.3-3.3-3.3-8.7,0-12Z"/>
      <path class="st6" d="M1807.8,537.3c3.3-3.3,8.7-3.3,12,0,3.3,3.3,3.3,8.7,0,12-3.3,3.3-8.7,3.3-12,0-3.3-3.3-3.3-8.7,0-12Z"/>
      <path class="st6" d="M1783.9,561.2c3.3-3.3,8.7-3.3,12,0,3.3,3.3,3.3,8.7,0,12s-8.7,3.3-12,0-3.3-8.7,0-12Z"/>
      <path class="st6" d="M1759.9,585.2c3.4-3.3,8.7-3.3,12,0,3.3,3.3,3.3,8.7,0,12s-8.7,3.3-12,0-3.3-8.7,0-12Z"/>
      <path class="st6" d="M1736,609.1c3.3-3.3,8.7-3.3,12,0,3.3,3.3,3.3,8.7,0,12-3.3,3.3-8.7,3.3-12,0s-3.3-8.7,0-12Z"/>
      <path class="st6" d="M1712.1,633c3.3-3.3,8.7-3.3,12,0s3.3,8.7,0,12-8.7,3.3-12,0c-3.3-3.3-3.3-8.7,0-12Z"/>
      <path class="st6" d="M1688.2,656.9c3.3-3.3,8.7-3.3,12,0s3.3,8.7,0,12-8.7,3.3-12,0c-3.3-3.3-3.3-8.7,0-12Z"/>
      <path class="st6" d="M1664.3,680.9c3.3-3.3,8.7-3.3,12,0s3.3,8.7,0,12c-3.3,3.3-8.7,3.3-12,0-3.3-3.3-3.3-8.7,0-12Z"/>
      <path class="st6" d="M1640.3,704.8c3.3-3.3,8.7-3.3,12,0,3.3,3.3,3.3,8.7,0,12s-8.7,3.3-12,0-3.3-8.7,0-12Z"/>
      <path class="st6" d="M1616.4,728.7c3.3-3.3,8.7-3.3,12,0,3.3,3.3,3.3,8.7,0,12s-8.7,3.3-12,0c-3.3-3.3-3.3-8.7,0-12Z"/>
      <path class="st6" d="M1592.5,752.6c3.4-3.3,8.7-3.3,12,0s3.3,8.7,0,12c-3.4,3.3-8.7,3.3-12,0-3.3-3.3-3.3-8.7,0-12Z"/>
      <path class="st6" d="M1568.6,776.5c3.3-3.3,8.7-3.3,12,0s3.3,8.7,0,12-8.7,3.3-12,0c-3.3-3.3-3.3-8.7,0-12Z"/>
      <path class="st6" d="M1544.6,800.5c3.3-3.3,8.7-3.3,12,0,3.3,3.3,3.3,8.7,0,12s-8.7,3.3-12,0-3.3-8.7,0-12Z"/>
      <path class="st6" d="M1520.7,824.4c3.3-3.3,8.7-3.3,12,0,3.3,3.3,3.3,8.7,0,12-3.4,3.3-8.7,3.3-12,0s-3.3-8.7,0-12Z"/>
      <path class="st6" d="M1496.8,848.3c3.3-3.3,8.7-3.3,12,0,3.3,3.3,3.3,8.7,0,12s-8.7,3.3-12,0c-3.3-3.3-3.3-8.7,0-12Z"/>
      <path class="st6" d="M1807.8,585.2c3.3-3.3,8.7-3.3,12,0,3.3,3.3,3.3,8.7,0,12-3.3,3.3-8.7,3.3-12,0-3.3-3.3-3.3-8.7,0-12Z"/>
      <path class="st6" d="M1783.9,609.1c3.3-3.3,8.7-3.3,12,0,3.3,3.3,3.3,8.7,0,12-3.3,3.3-8.7,3.3-12,0-3.3-3.3-3.3-8.7,0-12Z"/>
      <path class="st6" d="M1759.9,633c3.4-3.3,8.7-3.3,12,0s3.3,8.7,0,12-8.7,3.3-12,0-3.3-8.7,0-12Z"/>
      <path class="st6" d="M1736,656.9c3.3-3.3,8.7-3.3,12,0,3.3,3.3,3.3,8.7,0,12-3.3,3.3-8.7,3.3-12,0s-3.3-8.7,0-12Z"/>
      <path class="st6" d="M1712.1,680.9c3.3-3.3,8.7-3.3,12,0,3.3,3.3,3.3,8.7,0,12s-8.7,3.3-12,0c-3.3-3.3-3.3-8.7,0-12Z"/>
      <path class="st6" d="M1688.2,704.8c3.3-3.3,8.7-3.3,12,0,3.3,3.3,3.3,8.7,0,12s-8.7,3.3-12,0c-3.3-3.3-3.3-8.7,0-12Z"/>
      <path class="st6" d="M1664.3,728.7c3.3-3.3,8.7-3.3,12,0s3.3,8.7,0,12c-3.3,3.3-8.7,3.3-12,0-3.3-3.3-3.3-8.7,0-12Z"/>
      <path class="st6" d="M1640.3,752.6c3.3-3.3,8.7-3.3,12,0s3.3,8.7,0,12-8.7,3.3-12,0-3.3-8.7,0-12Z"/>
      <path class="st6" d="M1616.4,776.5c3.3-3.3,8.7-3.3,12,0s3.3,8.7,0,12-8.7,3.3-12,0c-3.3-3.3-3.3-8.7,0-12Z"/>
      <path class="st6" d="M1592.5,800.5c3.4-3.3,8.7-3.3,12,0,3.3,3.3,3.3,8.7,0,12-3.4,3.3-8.7,3.3-12,0-3.3-3.3-3.3-8.7,0-12Z"/>
      <path class="st6" d="M1568.6,824.4c3.3-3.3,8.7-3.3,12,0,3.3,3.3,3.3,8.7,0,12s-8.7,3.3-12,0c-3.3-3.3-3.3-8.7,0-12Z"/>
      <path class="st6" d="M1544.6,848.3c3.3-3.3,8.7-3.3,12,0,3.3,3.3,3.3,8.7,0,12-3.3,3.3-8.7,3.3-12,0s-3.3-8.7,0-12Z"/>
      <path class="st6" d="M1520.7,872.2c3.3-3.3,8.7-3.3,12,0s3.3,8.7,0,12c-3.4,3.3-8.7,3.3-12,0s-3.3-8.7,0-12Z"/>
      <path class="st6" d="M1807.8,633c3.3-3.3,8.7-3.3,12,0,3.3,3.3,3.3,8.7,0,12-3.3,3.3-8.7,3.3-12,0-3.3-3.3-3.3-8.7,0-12Z"/>
      <path class="st6" d="M1783.9,656.9c3.3-3.3,8.7-3.3,12,0,3.3,3.3,3.3,8.7,0,12-3.3,3.3-8.7,3.3-12,0-3.3-3.3-3.3-8.7,0-12Z"/>
      <path class="st6" d="M1759.9,680.9c3.4-3.3,8.7-3.3,12,0,3.3,3.3,3.3,8.7,0,12s-8.7,3.3-12,0-3.3-8.7,0-12Z"/>
      <path class="st6" d="M1736,704.8c3.3-3.3,8.7-3.3,12,0,3.3,3.3,3.3,8.7,0,12-3.3,3.3-8.7,3.3-12,0s-3.3-8.7,0-12Z"/>
      <path class="st6" d="M1712.1,728.7c3.3-3.3,8.7-3.3,12,0,3.3,3.3,3.3,8.7,0,12s-8.7,3.3-12,0c-3.3-3.3-3.3-8.7,0-12Z"/>
      <path class="st6" d="M1688.2,752.6c3.3-3.3,8.7-3.3,12,0s3.3,8.7,0,12-8.7,3.3-12,0c-3.3-3.3-3.3-8.7,0-12Z"/>
      <path class="st6" d="M1664.3,776.5c3.3-3.3,8.7-3.3,12,0s3.3,8.7,0,12c-3.3,3.3-8.7,3.3-12,0-3.3-3.3-3.3-8.7,0-12Z"/>
      <path class="st6" d="M1640.3,800.5c3.3-3.3,8.7-3.3,12,0,3.3,3.3,3.3,8.7,0,12s-8.7,3.3-12,0-3.3-8.7,0-12Z"/>
      <path class="st6" d="M1616.4,824.4c3.3-3.3,8.7-3.3,12,0,3.3,3.3,3.3,8.7,0,12s-8.7,3.3-12,0c-3.3-3.3-3.3-8.7,0-12Z"/>
      <path class="st6" d="M1592.5,848.3c3.4-3.3,8.7-3.3,12,0,3.3,3.3,3.3,8.7,0,12-3.4,3.3-8.7,3.3-12,0-3.3-3.3-3.3-8.7,0-12Z"/>
      <path class="st6" d="M1568.6,872.2c3.3-3.3,8.7-3.3,12,0s3.3,8.7,0,12-8.7,3.3-12,0c-3.3-3.3-3.3-8.7,0-12Z"/>
      <path class="st6" d="M1807.8,680.9c3.3-3.3,8.7-3.3,12,0,3.3,3.3,3.3,8.7,0,12-3.3,3.3-8.7,3.3-12,0-3.3-3.3-3.3-8.7,0-12Z"/>
      <path class="st6" d="M1783.9,704.8c3.3-3.3,8.7-3.3,12,0,3.3,3.3,3.3,8.7,0,12-3.3,3.3-8.7,3.3-12,0-3.3-3.3-3.3-8.7,0-12Z"/>
      <path class="st6" d="M1759.9,728.7c3.4-3.3,8.7-3.3,12,0,3.3,3.3,3.3,8.7,0,12s-8.7,3.3-12,0-3.3-8.7,0-12Z"/>
      <path class="st6" d="M1736,752.6c3.3-3.3,8.7-3.3,12,0,3.3,3.3,3.3,8.7,0,12s-8.7,3.3-12,0-3.3-8.7,0-12Z"/>
      <path class="st6" d="M1712.1,776.5c3.3-3.3,8.7-3.3,12,0s3.3,8.7,0,12-8.7,3.3-12,0c-3.3-3.3-3.3-8.7,0-12Z"/>
      <path class="st6" d="M1688.2,800.5c3.3-3.3,8.7-3.3,12,0,3.3,3.3,3.3,8.7,0,12s-8.7,3.3-12,0c-3.3-3.3-3.3-8.7,0-12Z"/>
      <path class="st6" d="M1664.3,824.4c3.3-3.3,8.7-3.3,12,0s3.3,8.7,0,12c-3.3,3.3-8.7,3.3-12,0-3.3-3.3-3.3-8.7,0-12Z"/>
      <path class="st6" d="M1640.3,848.3c3.3-3.3,8.7-3.3,12,0,3.3,3.3,3.3,8.7,0,12s-8.7,3.3-12,0-3.3-8.7,0-12Z"/>
      <path class="st6" d="M1616.4,872.2c3.3-3.3,8.7-3.3,12,0s3.3,8.7,0,12-8.7,3.3-12,0c-3.3-3.3-3.3-8.7,0-12Z"/>
      <path class="st6" d="M1592.5,896.2c3.4-3.3,8.7-3.3,12,0,3.3,3.3,3.3,8.7,0,12-3.4,3.3-8.7,3.3-12,0-3.3-3.3-3.3-8.7,0-12Z"/>
      <path class="st6" d="M1807.8,728.7c3.3-3.3,8.7-3.3,12,0,3.3,3.3,3.3,8.7,0,12-3.3,3.3-8.7,3.3-12,0-3.3-3.3-3.3-8.7,0-12Z"/>
      <path class="st6" d="M1783.9,752.6c3.3-3.3,8.7-3.3,12,0,3.3,3.3,3.3,8.7,0,12-3.3,3.3-8.7,3.3-12,0-3.3-3.3-3.3-8.7,0-12Z"/>
      <path class="st6" d="M1759.9,776.5c3.4-3.3,8.7-3.3,12,0s3.3,8.7,0,12-8.7,3.3-12,0-3.3-8.7,0-12Z"/>
      <path class="st6" d="M1736,800.5c3.3-3.3,8.7-3.3,12,0,3.3,3.3,3.3,8.7,0,12s-8.7,3.3-12,0-3.3-8.7,0-12Z"/>
      <path class="st6" d="M1712.1,824.4c3.3-3.3,8.7-3.3,12,0,3.3,3.3,3.3,8.7,0,12s-8.7,3.3-12,0c-3.3-3.3-3.3-8.7,0-12Z"/>
      <path class="st6" d="M1688.2,848.3c3.3-3.3,8.7-3.3,12,0,3.3,3.3,3.3,8.7,0,12s-8.7,3.3-12,0c-3.3-3.3-3.3-8.7,0-12Z"/>
      <path class="st6" d="M1664.3,872.2c3.3-3.3,8.7-3.3,12,0s3.3,8.7,0,12c-3.3,3.3-8.7,3.3-12,0-3.3-3.3-3.3-8.7,0-12Z"/>
      <path class="st6" d="M1640.3,896.2c3.3-3.3,8.7-3.3,12,0,3.3,3.3,3.3,8.7,0,12s-8.7,3.3-12,0c-3.3-3.3-3.3-8.7,0-12Z"/>
      <path class="st6" d="M1807.8,776.5c3.3-3.3,8.7-3.3,12,0,3.3,3.3,3.3,8.7,0,12-3.3,3.3-8.7,3.3-12,0-3.3-3.3-3.3-8.7,0-12Z"/>
      <path class="st6" d="M1783.9,800.5c3.3-3.3,8.7-3.3,12,0,3.3,3.3,3.3,8.7,0,12-3.3,3.3-8.7,3.3-12,0-3.3-3.3-3.3-8.7,0-12Z"/>
      <path class="st6" d="M1759.9,824.4c3.4-3.3,8.7-3.3,12,0,3.3,3.3,3.3,8.7,0,12s-8.7,3.3-12,0-3.3-8.7,0-12Z"/>
      <path class="st6" d="M1736,848.3c3.3-3.3,8.7-3.3,12,0,3.3,3.3,3.3,8.7,0,12s-8.7,3.3-12,0-3.3-8.7,0-12Z"/>
      <path class="st6" d="M1712.1,872.2c3.3-3.3,8.7-3.3,12,0s3.3,8.7,0,12-8.7,3.3-12,0c-3.3-3.3-3.3-8.7,0-12Z"/>
      <path class="st6" d="M1688.2,896.2c3.3-3.3,8.7-3.3,12,0,3.3,3.3,3.3,8.7,0,12s-8.7,3.3-12,0c-3.3-3.3-3.3-8.7,0-12Z"/>
      <path class="st6" d="M1807.8,824.4c3.3-3.3,8.7-3.3,12,0,3.3,3.3,3.3,8.7,0,12-3.3,3.3-8.7,3.3-12,0-3.3-3.3-3.3-8.7,0-12Z"/>
      <path class="st6" d="M1783.9,848.3c3.3-3.3,8.7-3.3,12,0,3.3,3.3,3.3,8.7,0,12-3.3,3.3-8.7,3.3-12,0-3.3-3.3-3.3-8.7,0-12Z"/>
      <path class="st6" d="M1759.9,872.2c3.4-3.3,8.7-3.3,12,0s3.3,8.7,0,12-8.7,3.3-12,0-3.3-8.7,0-12Z"/>
    </g>
    <circle class="st3" cx="407.8" cy="539.2" r="179"/>
    <g>
      <path class="st6" d="M79.1,675.4h0c-10.7-10.7-24-17.3-37.9-19.7l57.6,57.6c-2.4-13.9-9-27.2-19.7-37.9h0Z"/>
      <path class="st6" d="M22.3,655c-5.1.4-10.2,1.5-15.1,3.1l89.3,89.3c1.6-4.9,2.6-10,3.1-15.1l-77.3-77.3h0Z"/>
      <path class="st6" d="M-5.5,663.7c-3.8,2.1-7.4,4.6-10.8,7.4l99.8,99.8c2.8-3.4,5.3-7,7.4-10.8L-5.5,663.7h0Z"/>
      <path class="st6" d="M-25.4,680.2c-2.8,3.4-5.3,7-7.4,10.8l96.4,96.4c3.8-2.1,7.4-4.6,10.8-7.4l-99.8-99.8h0Z"/>
      <path class="st6" d="M-38.4,703.7c-1.6,4.9-2.6,10-3.1,15.1l77.3,77.3c5.1-.4,10.2-1.5,15.1-3.1l-89.3-89.3h0Z"/>
      <path class="st6" d="M-40.8,737.7h0c2.4,13.9,9,27.2,19.7,37.9s24,17.3,37.9,19.7l-57.6-57.6h0Z"/>
    </g>
    <path class="st6" d="M566.1,1115.9h-1.4c-5,0-9.4-3.7-10.1-8.8h0c-.8-5.6,3.1-10.7,8.7-11.5h0c5.6-.8,10.8,3.1,11.6,8.7h0c.8,5.6-3.1,10.8-8.7,11.6h0ZM533.6,1107.1h0c-.7,5.1-5.1,8.8-10.1,8.8h-1.4c-5.6-.8-9.5-6-8.7-11.6h0c.8-5.6,6-9.5,11.6-8.7h0c5.6.8,9.5,6,8.7,11.6h0ZM604.4,1104.4h0c-3.9,0-7.6-2.2-9.3-6h0c-2.3-5.1,0-11.2,5.1-13.5h0c5.1-2.3,11.2,0,13.5,5.1h0c2.3,5.1,0,11.2-5.1,13.5-1.3.6-2.8.9-4.2.9ZM493.2,1098.4h0c-1.7,3.8-5.4,6-9.3,6h0c-1.4,0-2.8-.3-4.2-.9h0c-5-2.4-7.3-8.5-5-13.6h0c2.4-5,8.5-7.3,13.6-5h0c5,2.3,7.3,8.4,5,13.5h0ZM645.7,1079.7c-1.9,1.7-4.3,2.5-6.7,2.5h0c-2.8,0-5.7-1.2-7.7-3.5h0c-3.7-4.2-3.3-10.7,1-14.4h0c4.3-3.7,10.7-3.3,14.4,1h0c3.7,4.3,3.3,10.7-1,14.4h0ZM457.1,1078.6h0c-2,2.3-4.8,3.5-7.7,3.5h0c-2.4,0-4.8-.8-6.7-2.5h0c-4.2-3.7-4.7-10.1-1-14.4h0c3.7-4.2,10.1-4.7,14.4-1h0c4.2,3.7,4.7,10.1,1,14.4h0ZM674.7,1046.4h0c-2,3.1-5.3,4.7-8.6,4.7h0c-1.9,0-3.8-.5-5.5-1.6h0c-4.8-3-6.1-9.4-3.1-14.1h0c3-4.8,9.4-6.2,14.1-3.1h0c4.7,3,6.1,9.4,3,14.1h0ZM427.9,1049.3c-1.7,1.1-3.6,1.6-5.5,1.6h0c-3.4,0-6.7-1.7-8.6-4.7h0c-3-4.7-1.6-11,3.1-14.1h0c4.7-3,11-1.6,14.1,3.1h0c3,4.7,1.6,11.1-3.1,14.1h0ZM693,1006.2h0c-1.3,4.4-5.4,7.3-9.8,7.3h0c-1,0-1.9-.1-2.9-.4h0c-5.4-1.6-8.5-7.3-6.9-12.7h0c1.6-5.4,7.3-8.5,12.7-6.9h0c5.4,1.6,8.5,7.3,6.9,12.7h0ZM408.1,1013.1h0c-1,.3-2,.4-2.9.4h0c-4.4,0-8.5-2.9-9.8-7.4h0c-1.6-5.5,1.5-11.1,6.9-12.7h0c5.4-1.6,11.1,1.5,12.7,6.9h0c1.6,5.5-1.5,11.1-6.9,12.7h0ZM699.3,962.6c0,5.6-4.6,10.2-10.2,10.2h0c-5.6,0-10.2-4.6-10.2-10.2h0c0-5.6,4.5-10.2,10.2-10.2h0c5.6,0,10.2,4.5,10.2,10.2h0ZM409.6,962.5h0c0,5.6-4.6,10.2-10.2,10.2h0c-5.6,0-10.2-4.6-10.2-10.2h0v-.2h0v-.2h0c0-5.6,4.6-10.2,10.2-10.2h0c5.6,0,10.2,4.6,10.2,10.2h0v.3h0ZM686.2,931.6c-1,.3-2,.4-2.9.4h0c-4.4,0-8.5-2.9-9.8-7.4h0c-1.6-5.5,1.5-11.1,6.9-12.7h0c5.4-1.5,11.1,1.6,12.7,7h0c1.6,5.5-1.5,11.1-6.9,12.7h0ZM415.1,924.2h0c-1.3,4.4-5.4,7.3-9.8,7.3h0c-1,0-1.9-.1-2.9-.4h0c-5.4-1.6-8.5-7.3-6.9-12.7h0c1.6-5.4,7.3-8.5,12.7-6.9h0c5.4,1.6,8.5,7.3,6.9,12.7h0ZM671.7,892.9h0c-1.7,1.1-3.6,1.6-5.5,1.6h0c-3.4,0-6.6-1.7-8.6-4.7h0c-3-4.7-1.7-11.1,3.1-14.1h0c4.7-3,11.1-1.7,14.1,3.1h0c3,4.7,1.6,11.1-3.1,14.1h0ZM431.1,889.4c-2,3-5.3,4.7-8.6,4.7h0c-1.9,0-3.8-.6-5.5-1.7h0c-4.7-3-6-9.4-3-14.1h0c3-4.7,9.4-6.1,14.1-3h0c4.7,3,6.1,9.4,3,14.1h0ZM647,859.8c-2,2.3-4.8,3.5-7.7,3.5h0c-2.4,0-4.8-.8-6.7-2.5h0c-4.2-3.7-4.7-10.2-1-14.4h0c3.7-4.2,10.1-4.7,14.4-1h0c4.2,3.7,4.7,10.2,1,14.4h0ZM456.3,860.5c-2,1.7-4.3,2.5-6.7,2.5h0c-2.9,0-5.8-1.2-7.8-3.5h0c-3.6-4.3-3.2-10.7,1.1-14.4h0c4.3-3.7,10.7-3.3,14.4,1h0c3.7,4.2,3.3,10.7-1,14.4h0ZM613.8,834.9h0c-1.7,3.8-5.4,6-9.3,6h0c-1.4,0-2.8-.2-4.2-.9h0c-5-2.3-7.3-8.4-5-13.5h0c2.4-5.1,8.5-7.4,13.6-5h0c5,2.3,7.3,8.4,5,13.5h0ZM488.6,839.9h0c-1.4.6-2.8.9-4.2.9h0c-3.9,0-7.6-2.2-9.3-6h0c-2.3-5.1,0-11.2,5.1-13.5h0c5.1-2.4,11.2,0,13.5,5h0c2.3,5.1,0,11.2-5.1,13.5h0ZM575.2,820.4h0c-.7,5.1-5.1,8.8-10.1,8.8h-1.5c-5.6-.8-9.5-6-8.7-11.6h0c.8-5.6,6-9.5,11.6-8.7h0c5.6.8,9.5,6,8.7,11.6h0ZM525.2,829.3h-1.4c-5,0-9.4-3.7-10.1-8.8h0c-.8-5.5,3.1-10.7,8.7-11.5h0c5.6-.8,10.8,3.1,11.6,8.7h0c.8,5.5-3.1,10.7-8.7,11.5h0Z"/>
    <path class="st6" d="M1139.6,847.4h-1c-3.5,0-6.5-2.6-7-6.1h0c-.6-3.9,2.1-7.5,6-8h0c3.9-.6,7.5,2.1,8,6h0c.6,3.9-2.1,7.5-6,8h0ZM1117.1,841.2c-.5,3.6-3.5,6.1-7,6.1h-1c-3.9-.5-6.5-4.1-6-8h0c.5-3.9,4.1-6.5,8-6h0c3.9.5,6.5,4.1,6,8h0ZM1166.1,839.4h0c-2.7,0-5.3-1.6-6.5-4.2h0c-1.6-3.6,0-7.8,3.5-9.4h0c3.6-1.6,7.8,0,9.4,3.5h0c1.6,3.6,0,7.8-3.5,9.4-.9.5-1.9.7-2.9.7ZM1089.2,835.2h0c-1.2,2.6-3.8,4.1-6.5,4.1h0c-1,0-2-.2-3-.6h0c-3.5-1.6-5.1-5.8-3.5-9.4h0c1.6-3.5,5.8-5.1,9.4-3.5h0c3.5,1.6,5.1,5.8,3.5,9.4h0ZM1194.7,822.3h0c-1.3,1.1-3,1.7-4.6,1.7h0c-2,0-4-.9-5.4-2.5h0c-2.6-3-2.3-7.4.7-10h0c3-2.6,7.4-2.3,10,.7h0c2.6,3,2.3,7.4-.7,10h0ZM1064.1,821.4h0c-1.4,1.6-3.4,2.4-5.4,2.4h0c-1.7,0-3.4-.5-4.7-1.7h0c-2.9-2.6-3.2-7-.7-10h0c2.6-2.9,7-3.3,10-.7h0c2.9,2.6,3.3,7,.7,10h.1ZM1214.8,799.1h0c-1.4,2.1-3.7,3.2-6,3.2h0c-1.3,0-2.6-.3-3.8-1.1h0c-3.3-2.1-4.2-6.5-2.1-9.8h0c2.1-3.3,6.5-4.2,9.8-2.1h0c3.3,2.1,4.2,6.5,2.1,9.8h0ZM1043.7,801.1c-1.2.7-2.5,1.1-3.8,1.1h0c-2.4,0-4.7-1.1-6-3.2h0c-2.1-3.3-1.2-7.7,2.1-9.8h0c3.3-2.1,7.7-1.2,9.8,2.1h0c2.1,3.3,1.2,7.7-2.1,9.8h0ZM1227.5,771.3c-.9,3.1-3.7,5.1-6.8,5.1h0c-.7,0-1.3,0-2-.3h0c-3.8-1.1-5.9-5-4.8-8.8h0c1.1-3.8,5-5.9,8.8-4.8h0c3.8,1.1,5.9,5,4.8,8.8h0ZM1028,776.3h0c-3.1,0-5.9-2-6.8-5.1h0c-1.1-3.8,1-7.7,4.8-8.8h0c3.8-1.1,7.7,1,8.8,4.8h0c1.1,3.8-1.1,7.7-4.8,8.8-.7.3-1.3.3-2,.3ZM1231.9,741c0,3.9-3.2,7.1-7.1,7.1h0c-3.9,0-7.1-3.2-7.1-7.1h0c0-3.9,3.2-7.1,7.1-7.1h0c3.9,0,7.1,3.2,7.1,7.1h0ZM1031.1,740.9c0,3.9-3.2,7.1-7.1,7.1h0c-3.9,0-7.1-3.2-7.1-7.1h0v-.2h0c0-3.9,3.2-7.1,7.1-7.1h0c3.9,0,7.1,3.2,7.1,7.1h0v.2h0ZM1222.8,719.5c-.7.3-1.3.3-2,.3h0c-3.1,0-5.9-2-6.8-5.1h0c-1.1-3.8,1-7.7,4.8-8.8h0c3.8-1.1,7.7,1,8.8,4.8h0c1.1,3.8-1,7.7-4.8,8.8h0ZM1034.9,714.4c-.9,3.1-3.8,5.1-6.8,5.1h0c-.7,0-1.3,0-2-.3h0c-3.8-1.1-5.9-5-4.8-8.8h0c1.1-3.8,5-5.9,8.8-4.8h0c3.8,1.1,5.9,5,4.8,8.8h0ZM1212.8,692.8h0c-1.2.7-2.5,1.1-3.8,1.1h0c-2.4,0-4.6-1.2-6-3.3h0c-2.1-3.3-1.2-7.7,2.1-9.8h0c3.3-2.1,7.7-1.2,9.8,2.1h0c2.1,3.3,1.2,7.7-2.1,9.8h0ZM1045.9,690.4h0c-1.4,2-3.7,3.2-6,3.2h0c-1.3,0-2.6-.4-3.8-1.2h0c-3.3-2.1-4.2-6.5-2.1-9.8h0c2.1-3.3,6.5-4.2,9.8-2.1h0c3.3,2.1,4.2,6.5,2.1,9.8h0ZM1195.6,669.8c-1.4,1.6-3.4,2.4-5.4,2.4h0c-1.6,0-3.3-.5-4.6-1.7h0c-2.9-2.6-3.3-7-.7-10h0c2.6-2.9,7-3.3,10-.7h0c2.9,2.6,3.3,7,.7,10h0ZM1063.4,670.4h0c-1.3,1.1-3,1.7-4.6,1.7h0c-2,0-4-.9-5.4-2.5h0c-2.6-3-2.3-7.5.7-10h0c3-2.6,7.5-2.3,10,.7h0c2.6,3,2.3,7.4-.7,10h0ZM1172.8,652.7h0c-1.2,2.6-3.8,4.1-6.5,4.1h0c-1,0-2-.2-3-.7h0c-3.5-1.6-5.1-5.9-3.5-9.4h0c1.6-3.5,5.8-5.1,9.4-3.5h0c3.5,1.6,5.1,5.8,3.5,9.4h0ZM1085.8,656c-.9.4-1.9.6-2.9.6h0c-2.7,0-5.3-1.6-6.5-4.2h0c-1.6-3.6,0-7.8,3.5-9.4h0c3.6-1.6,7.8,0,9.4,3.5h0c1.6,3.6,0,7.8-3.5,9.4h0ZM1145.8,642.4c-.5,3.6-3.5,6.1-7,6.1h-1c-3.9-.5-6.5-4.1-6-8h0c.5-3.9,4.1-6.6,8-6h0c3.9.5,6.5,4.1,6,8h0ZM1111.2,648.6h-1c-3.5,0-6.5-2.6-7-6.1h0c-.6-3.9,2.1-7.5,6-8h0c3.9-.6,7.5,2.1,8,6h0c.6,3.9-2.1,7.5-6,8h0Z"/>
    <circle class="st4" cx="1228.4" cy="640.2" r="105.2"/>
    <circle class="st4" cx="764.7" cy="940" r="105.2" transform="translate(-440.7 816.1) rotate(-45)"/>
  </g>
  <rect class="st0" x="-.8" y="0" width="1814.2" height="1020.5" transform="translate(1812.6 1020.5) rotate(-180)"/>
</svg>