<?xml version="1.0" encoding="UTF-8"?>
<svg id="_レイヤー_1" xmlns="http://www.w3.org/2000/svg" version="1.1" viewBox="0 0 1814.2 1020.5">
  <!-- Generator: Adobe Illustrator 30.3.0, SVG Export Plug-In . SVG Version: 2.1.3 Build 182)  -->
  <defs>
    <style>
      .st0 {
        fill: #fff;
      }

      .st1, .st2 {
        opacity: .3;
      }

      .st3 {
        stroke-width: 8.5px;
      }

      .st3, .st2, .st4, .st5, .st6 {
        fill: none;
      }

      .st3, .st4, .st5, .st6 {
        stroke: #fff;
        stroke-miterlimit: 10;
      }

      .st4 {
        stroke-width: 11px;
      }

      .st5 {
        stroke-width: 5.7px;
      }

      .st6 {
        stroke-width: 2.8px;
      }
    </style>
  </defs>
  <g class="st1">
    <circle class="st5" cx="1722.5" cy="848.2" r="105.2"/>
    <circle class="st6" cx="1468.2" cy="790.3" r="259.7"/>
    <circle class="st3" cx="435.3" cy="937.3" r="287.8"/>
    <g>
      <path class="st0" d="M1818.2,88.8c-3.3,3.3-8.7,3.3-12,0s-3.3-8.7,0-12,8.7-3.3,12,0,3.3,8.7,0,12Z"/>
      <path class="st0" d="M1746.5,64.9c-3.3,3.3-8.7,3.3-12,0-3.3-3.3-3.3-8.7,0-12s8.7-3.3,12,0,3.3,8.7,0,12Z"/>
      <path class="st0" d="M1770.4,88.8c-3.3,3.3-8.7,3.3-12,0s-3.3-8.7,0-12,8.7-3.3,12,0,3.3,8.7,0,12Z"/>
      <path class="st0" d="M1794.3,112.8c-3.3,3.3-8.7,3.3-12,0s-3.3-8.7,0-12,8.7-3.3,12,0,3.3,8.7,0,12Z"/>
      <path class="st0" d="M1818.2,136.7c-3.3,3.3-8.7,3.3-12,0s-3.3-8.7,0-12,8.7-3.3,12,0,3.3,8.7,0,12Z"/>
      <path class="st0" d="M1698.7,64.9c-3.3,3.3-8.7,3.3-12,0-3.3-3.3-3.3-8.7,0-12s8.7-3.3,12,0,3.3,8.7,0,12Z"/>
      <path class="st0" d="M1722.6,88.8c-3.3,3.3-8.7,3.3-12,0s-3.3-8.7,0-12,8.7-3.3,12,0,3.3,8.7,0,12Z"/>
      <path class="st0" d="M1746.5,112.8c-3.3,3.3-8.7,3.3-12,0s-3.3-8.7,0-12,8.7-3.3,12,0,3.3,8.7,0,12Z"/>
      <path class="st0" d="M1770.4,136.7c-3.3,3.3-8.7,3.3-12,0s-3.3-8.7,0-12,8.7-3.3,12,0,3.3,8.7,0,12Z"/>
      <path class="st0" d="M1794.3,160.6c-3.3,3.3-8.7,3.3-12,0s-3.3-8.7,0-12,8.7-3.3,12,0,3.3,8.7,0,12Z"/>
      <path class="st0" d="M1818.2,184.5c-3.3,3.3-8.7,3.3-12,0s-3.3-8.7,0-12,8.7-3.3,12,0,3.3,8.7,0,12Z"/>
      <path class="st0" d="M1650.8,64.9c-3.3,3.3-8.7,3.3-12,0-3.3-3.3-3.3-8.7,0-12s8.7-3.3,12,0,3.3,8.7,0,12Z"/>
      <path class="st0" d="M1674.7,88.8c-3.3,3.3-8.7,3.3-12,0s-3.3-8.7,0-12,8.7-3.3,12,0,3.3,8.7,0,12Z"/>
      <path class="st0" d="M1698.7,112.8c-3.3,3.3-8.7,3.3-12,0s-3.3-8.7,0-12,8.7-3.3,12,0,3.3,8.7,0,12Z"/>
      <path class="st0" d="M1722.6,136.7c-3.3,3.3-8.7,3.3-12,0s-3.3-8.7,0-12,8.7-3.3,12,0,3.3,8.7,0,12Z"/>
      <path class="st0" d="M1746.5,160.6c-3.3,3.3-8.7,3.3-12,0s-3.3-8.7,0-12,8.7-3.3,12,0,3.3,8.7,0,12Z"/>
      <path class="st0" d="M1770.4,184.5c-3.3,3.3-8.7,3.3-12,0s-3.3-8.7,0-12,8.7-3.3,12,0,3.3,8.7,0,12Z"/>
      <path class="st0" d="M1794.3,208.5c-3.3,3.3-8.7,3.3-12,0s-3.3-8.7,0-12,8.7-3.3,12,0,3.3,8.7,0,12Z"/>
      <path class="st0" d="M1818.2,232.4c-3.3,3.3-8.7,3.3-12,0s-3.3-8.7,0-12,8.7-3.3,12,0,3.3,8.7,0,12Z"/>
      <path class="st0" d="M1626.9,88.8c-3.3,3.3-8.7,3.3-12,0s-3.3-8.7,0-12,8.7-3.3,12,0,3.3,8.7,0,12Z"/>
      <path class="st0" d="M1650.8,112.8c-3.3,3.3-8.7,3.3-12,0s-3.3-8.7,0-12,8.7-3.3,12,0,3.3,8.7,0,12Z"/>
      <path class="st0" d="M1674.7,136.7c-3.3,3.3-8.7,3.3-12,0s-3.3-8.7,0-12,8.7-3.3,12,0,3.3,8.7,0,12Z"/>
      <path class="st0" d="M1698.7,160.6c-3.3,3.3-8.7,3.3-12,0s-3.3-8.7,0-12,8.7-3.3,12,0,3.3,8.7,0,12Z"/>
      <path class="st0" d="M1722.6,184.5c-3.3,3.3-8.7,3.3-12,0s-3.3-8.7,0-12,8.7-3.3,12,0,3.3,8.7,0,12Z"/>
      <path class="st0" d="M1746.5,208.5c-3.3,3.3-8.7,3.3-12,0s-3.3-8.7,0-12,8.7-3.3,12,0,3.3,8.7,0,12Z"/>
      <path class="st0" d="M1770.4,232.4c-3.3,3.3-8.7,3.3-12,0s-3.3-8.7,0-12,8.7-3.3,12,0,3.3,8.7,0,12Z"/>
      <path class="st0" d="M1794.3,256.3c-3.3,3.3-8.7,3.3-12,0-3.3-3.3-3.3-8.7,0-12s8.7-3.3,12,0,3.3,8.7,0,12Z"/>
      <path class="st0" d="M1818.2,280.2c-3.3,3.3-8.7,3.3-12,0s-3.3-8.7,0-12,8.7-3.3,12,0,3.3,8.7,0,12Z"/>
      <path class="st0" d="M1579,88.8c-3.3,3.3-8.7,3.3-12,0s-3.3-8.7,0-12,8.7-3.3,12,0,3.3,8.7,0,12Z"/>
      <path class="st0" d="M1603,112.8c-3.3,3.3-8.7,3.3-12,0s-3.3-8.7,0-12,8.7-3.3,12,0,3.3,8.7,0,12Z"/>
      <path class="st0" d="M1626.9,136.7c-3.3,3.3-8.7,3.3-12,0s-3.3-8.7,0-12,8.7-3.3,12,0,3.3,8.7,0,12Z"/>
      <path class="st0" d="M1650.8,160.6c-3.3,3.3-8.7,3.3-12,0s-3.3-8.7,0-12,8.7-3.3,12,0,3.3,8.7,0,12Z"/>
      <path class="st0" d="M1674.7,184.5c-3.3,3.3-8.7,3.3-12,0s-3.3-8.7,0-12,8.7-3.3,12,0,3.3,8.7,0,12Z"/>
      <path class="st0" d="M1698.7,208.5c-3.3,3.3-8.7,3.3-12,0s-3.3-8.7,0-12,8.7-3.3,12,0,3.3,8.7,0,12Z"/>
      <path class="st0" d="M1722.6,232.4c-3.3,3.3-8.7,3.3-12,0s-3.3-8.7,0-12,8.7-3.3,12,0,3.3,8.7,0,12Z"/>
      <path class="st0" d="M1746.5,256.3c-3.3,3.3-8.7,3.3-12,0-3.3-3.3-3.3-8.7,0-12s8.7-3.3,12,0,3.3,8.7,0,12Z"/>
      <path class="st0" d="M1770.4,280.2c-3.3,3.3-8.7,3.3-12,0s-3.3-8.7,0-12,8.7-3.3,12,0,3.3,8.7,0,12Z"/>
      <path class="st0" d="M1794.3,304.1c-3.3,3.3-8.7,3.3-12,0s-3.3-8.7,0-12,8.7-3.3,12,0,3.3,8.7,0,12Z"/>
      <path class="st0" d="M1818.2,328.1c-3.3,3.3-8.7,3.3-12,0s-3.3-8.7,0-12,8.7-3.3,12,0,3.3,8.7,0,12Z"/>
      <path class="st0" d="M1555.1,112.8c-3.3,3.3-8.7,3.3-12,0s-3.3-8.7,0-12,8.7-3.3,12,0,3.3,8.7,0,12Z"/>
      <path class="st0" d="M1579,136.7c-3.3,3.3-8.7,3.3-12,0s-3.3-8.7,0-12,8.7-3.3,12,0,3.3,8.7,0,12Z"/>
      <path class="st0" d="M1603,160.6c-3.3,3.3-8.7,3.3-12,0s-3.3-8.7,0-12,8.7-3.3,12,0,3.3,8.7,0,12Z"/>
      <path class="st0" d="M1626.9,184.5c-3.3,3.3-8.7,3.3-12,0s-3.3-8.7,0-12,8.7-3.3,12,0,3.3,8.7,0,12Z"/>
      <path class="st0" d="M1650.8,208.5c-3.3,3.3-8.7,3.3-12,0s-3.3-8.7,0-12,8.7-3.3,12,0,3.3,8.7,0,12Z"/>
      <path class="st0" d="M1674.7,232.4c-3.3,3.3-8.7,3.3-12,0s-3.3-8.7,0-12,8.7-3.3,12,0,3.3,8.7,0,12Z"/>
      <path class="st0" d="M1698.7,256.3c-3.3,3.3-8.7,3.3-12,0-3.3-3.3-3.3-8.7,0-12s8.7-3.3,12,0,3.3,8.7,0,12Z"/>
      <path class="st0" d="M1722.6,280.2c-3.3,3.3-8.7,3.3-12,0s-3.3-8.7,0-12,8.7-3.3,12,0,3.3,8.7,0,12Z"/>
      <path class="st0" d="M1746.5,304.1c-3.3,3.3-8.7,3.3-12,0s-3.3-8.7,0-12,8.7-3.3,12,0,3.3,8.7,0,12Z"/>
      <path class="st0" d="M1770.4,328.1c-3.3,3.3-8.7,3.3-12,0s-3.3-8.7,0-12,8.7-3.3,12,0,3.3,8.7,0,12Z"/>
      <path class="st0" d="M1794.3,352c-3.3,3.3-8.7,3.3-12,0s-3.3-8.7,0-12,8.7-3.3,12,0,3.3,8.7,0,12Z"/>
      <path class="st0" d="M1818.2,375.9c-3.3,3.3-8.7,3.3-12,0s-3.3-8.7,0-12,8.7-3.3,12,0,3.3,8.7,0,12Z"/>
      <path class="st0" d="M1531.2,136.7c-3.3,3.3-8.7,3.3-12,0s-3.3-8.7,0-12,8.7-3.3,12,0,3.3,8.7,0,12Z"/>
      <path class="st0" d="M1555.1,160.6c-3.3,3.3-8.7,3.3-12,0s-3.3-8.7,0-12,8.7-3.3,12,0,3.3,8.7,0,12Z"/>
      <path class="st0" d="M1579,184.5c-3.3,3.3-8.7,3.3-12,0s-3.3-8.7,0-12,8.7-3.3,12,0,3.3,8.7,0,12Z"/>
      <path class="st0" d="M1603,208.5c-3.3,3.3-8.7,3.3-12,0s-3.3-8.7,0-12,8.7-3.3,12,0,3.3,8.7,0,12Z"/>
      <path class="st0" d="M1626.9,232.4c-3.3,3.3-8.7,3.3-12,0s-3.3-8.7,0-12,8.7-3.3,12,0,3.3,8.7,0,12Z"/>
      <path class="st0" d="M1650.8,256.3c-3.3,3.3-8.7,3.3-12,0-3.3-3.3-3.3-8.7,0-12s8.7-3.3,12,0,3.3,8.7,0,12Z"/>
      <path class="st0" d="M1674.7,280.2c-3.3,3.3-8.7,3.3-12,0s-3.3-8.7,0-12,8.7-3.3,12,0,3.3,8.7,0,12Z"/>
      <path class="st0" d="M1698.7,304.1c-3.3,3.3-8.7,3.3-12,0s-3.3-8.7,0-12,8.7-3.3,12,0,3.3,8.7,0,12Z"/>
      <path class="st0" d="M1722.6,328.1c-3.3,3.3-8.7,3.3-12,0s-3.3-8.7,0-12,8.7-3.3,12,0,3.3,8.7,0,12Z"/>
      <path class="st0" d="M1746.5,352c-3.3,3.3-8.7,3.3-12,0s-3.3-8.7,0-12,8.7-3.3,12,0,3.3,8.7,0,12Z"/>
      <path class="st0" d="M1770.4,375.9c-3.3,3.3-8.7,3.3-12,0s-3.3-8.7,0-12,8.7-3.3,12,0,3.3,8.7,0,12Z"/>
      <path class="st0" d="M1794.3,399.8c-3.3,3.3-8.7,3.3-12,0s-3.3-8.7,0-12,8.7-3.3,12,0,3.3,8.7,0,12Z"/>
      <path class="st0" d="M1818.2,423.8c-3.3,3.3-8.7,3.3-12,0s-3.3-8.7,0-12,8.7-3.3,12,0,3.3,8.6,0,12Z"/>
      <path class="st0" d="M1507.3,160.6c-3.3,3.3-8.7,3.3-12,0s-3.3-8.7,0-12,8.7-3.3,12,0,3.3,8.7,0,12Z"/>
      <path class="st0" d="M1531.2,184.5c-3.3,3.3-8.7,3.3-12,0s-3.3-8.7,0-12,8.7-3.3,12,0,3.3,8.7,0,12Z"/>
      <path class="st0" d="M1555.1,208.5c-3.3,3.3-8.7,3.3-12,0s-3.3-8.7,0-12,8.7-3.3,12,0,3.3,8.7,0,12Z"/>
      <path class="st0" d="M1579,232.4c-3.3,3.3-8.7,3.3-12,0s-3.3-8.7,0-12,8.7-3.3,12,0,3.3,8.7,0,12Z"/>
      <path class="st0" d="M1603,256.3c-3.3,3.3-8.7,3.3-12,0-3.3-3.3-3.3-8.7,0-12s8.7-3.3,12,0,3.3,8.7,0,12Z"/>
      <path class="st0" d="M1626.9,280.2c-3.3,3.3-8.7,3.3-12,0s-3.3-8.7,0-12,8.7-3.3,12,0,3.3,8.7,0,12Z"/>
      <path class="st0" d="M1650.8,304.1c-3.3,3.3-8.7,3.3-12,0s-3.3-8.7,0-12,8.7-3.3,12,0,3.3,8.7,0,12Z"/>
      <path class="st0" d="M1674.7,328.1c-3.3,3.3-8.7,3.3-12,0s-3.3-8.7,0-12,8.7-3.3,12,0,3.3,8.7,0,12Z"/>
      <path class="st0" d="M1698.7,352c-3.3,3.3-8.7,3.3-12,0s-3.3-8.7,0-12,8.7-3.3,12,0,3.3,8.7,0,12Z"/>
      <path class="st0" d="M1722.6,375.9c-3.3,3.3-8.7,3.3-12,0s-3.3-8.7,0-12,8.7-3.3,12,0,3.3,8.7,0,12Z"/>
      <path class="st0" d="M1746.5,399.8c-3.3,3.3-8.7,3.3-12,0s-3.3-8.7,0-12,8.7-3.3,12,0,3.3,8.7,0,12Z"/>
      <path class="st0" d="M1770.4,423.8c-3.3,3.3-8.7,3.3-12,0s-3.3-8.7,0-12,8.7-3.3,12,0,3.3,8.6,0,12Z"/>
      <path class="st0" d="M1794.3,447.7c-3.3,3.3-8.7,3.3-12,0s-3.3-8.7,0-12,8.7-3.3,12,0,3.3,8.7,0,12Z"/>
      <path class="st0" d="M1818.2,471.6c-3.3,3.3-8.7,3.3-12,0s-3.3-8.7,0-12,8.7-3.3,12,0,3.3,8.7,0,12Z"/>
      <path class="st0" d="M1483.4,184.5c-3.3,3.3-8.7,3.3-12,0s-3.3-8.7,0-12,8.7-3.3,12,0,3.3,8.7,0,12Z"/>
      <path class="st0" d="M1507.3,208.5c-3.3,3.3-8.7,3.3-12,0s-3.3-8.7,0-12,8.7-3.3,12,0,3.3,8.7,0,12Z"/>
      <path class="st0" d="M1531.2,232.4c-3.3,3.3-8.7,3.3-12,0s-3.3-8.7,0-12,8.7-3.3,12,0,3.3,8.7,0,12Z"/>
      <path class="st0" d="M1555.1,256.3c-3.3,3.3-8.7,3.3-12,0-3.3-3.3-3.3-8.7,0-12s8.7-3.3,12,0,3.3,8.7,0,12Z"/>
      <path class="st0" d="M1579,280.2c-3.3,3.3-8.7,3.3-12,0s-3.3-8.7,0-12,8.7-3.3,12,0,3.3,8.7,0,12Z"/>
      <path class="st0" d="M1603,304.1c-3.3,3.3-8.7,3.3-12,0s-3.3-8.7,0-12,8.7-3.3,12,0,3.3,8.7,0,12Z"/>
      <path class="st0" d="M1626.9,328.1c-3.3,3.3-8.7,3.3-12,0s-3.3-8.7,0-12,8.7-3.3,12,0,3.3,8.7,0,12Z"/>
      <path class="st0" d="M1650.8,352c-3.3,3.3-8.7,3.3-12,0s-3.3-8.7,0-12,8.7-3.3,12,0,3.3,8.7,0,12Z"/>
      <path class="st0" d="M1674.7,375.9c-3.3,3.3-8.7,3.3-12,0s-3.3-8.7,0-12,8.7-3.3,12,0,3.3,8.7,0,12Z"/>
      <path class="st0" d="M1698.7,399.8c-3.3,3.3-8.7,3.3-12,0s-3.3-8.7,0-12,8.7-3.3,12,0,3.3,8.7,0,12Z"/>
      <path class="st0" d="M1722.6,423.8c-3.3,3.3-8.7,3.3-12,0s-3.3-8.7,0-12,8.7-3.3,12,0,3.3,8.6,0,12Z"/>
      <path class="st0" d="M1746.5,447.7c-3.3,3.3-8.7,3.3-12,0s-3.3-8.7,0-12,8.7-3.3,12,0,3.3,8.7,0,12Z"/>
      <path class="st0" d="M1770.4,471.6c-3.3,3.3-8.7,3.3-12,0s-3.3-8.7,0-12,8.7-3.3,12,0,3.3,8.7,0,12Z"/>
      <path class="st0" d="M1794.3,495.5c-3.3,3.3-8.7,3.3-12,0s-3.3-8.7,0-12,8.7-3.3,12,0,3.3,8.6,0,12Z"/>
      <path class="st0" d="M1818.2,519.4c-3.3,3.3-8.7,3.3-12,0s-3.3-8.7,0-12,8.7-3.3,12,0,3.3,8.7,0,12Z"/>
      <path class="st0" d="M1483.4,232.4c-3.3,3.3-8.7,3.3-12,0s-3.3-8.7,0-12,8.7-3.3,12,0,3.3,8.7,0,12Z"/>
      <path class="st0" d="M1507.3,256.3c-3.3,3.3-8.7,3.3-12,0-3.3-3.3-3.3-8.7,0-12s8.7-3.3,12,0,3.3,8.7,0,12Z"/>
      <path class="st0" d="M1531.2,280.2c-3.3,3.3-8.7,3.3-12,0s-3.3-8.7,0-12,8.7-3.3,12,0,3.3,8.7,0,12Z"/>
      <path class="st0" d="M1555.1,304.1c-3.3,3.3-8.7,3.3-12,0s-3.3-8.7,0-12,8.7-3.3,12,0,3.3,8.7,0,12Z"/>
      <path class="st0" d="M1579,328.1c-3.3,3.3-8.7,3.3-12,0s-3.3-8.7,0-12,8.7-3.3,12,0,3.3,8.7,0,12Z"/>
      <path class="st0" d="M1603,352c-3.3,3.3-8.7,3.3-12,0s-3.3-8.7,0-12,8.7-3.3,12,0,3.3,8.7,0,12Z"/>
      <path class="st0" d="M1626.9,375.9c-3.3,3.3-8.7,3.3-12,0s-3.3-8.7,0-12,8.7-3.3,12,0,3.3,8.7,0,12Z"/>
      <path class="st0" d="M1650.8,399.8c-3.3,3.3-8.7,3.3-12,0s-3.3-8.7,0-12,8.7-3.3,12,0,3.3,8.7,0,12Z"/>
      <path class="st0" d="M1674.7,423.8c-3.3,3.3-8.7,3.3-12,0s-3.3-8.7,0-12,8.7-3.3,12,0,3.3,8.6,0,12Z"/>
      <path class="st0" d="M1698.7,447.7c-3.3,3.3-8.7,3.3-12,0s-3.3-8.7,0-12,8.7-3.3,12,0,3.3,8.7,0,12Z"/>
      <path class="st0" d="M1722.6,471.6c-3.3,3.3-8.7,3.3-12,0s-3.3-8.7,0-12,8.7-3.3,12,0,3.3,8.7,0,12Z"/>
      <path class="st0" d="M1746.5,495.5c-3.3,3.3-8.7,3.3-12,0s-3.3-8.7,0-12,8.7-3.3,12,0,3.3,8.6,0,12Z"/>
      <path class="st0" d="M1770.4,519.4c-3.3,3.3-8.7,3.3-12,0s-3.3-8.7,0-12,8.7-3.3,12,0,3.3,8.7,0,12Z"/>
      <path class="st0" d="M1459.4,256.3c-3.3,3.3-8.7,3.3-12,0-3.3-3.3-3.3-8.7,0-12s8.7-3.3,12,0,3.3,8.7,0,12Z"/>
      <path class="st0" d="M1483.4,280.2c-3.3,3.3-8.7,3.3-12,0s-3.3-8.7,0-12,8.7-3.3,12,0,3.3,8.7,0,12Z"/>
      <path class="st0" d="M1507.3,304.1c-3.3,3.3-8.7,3.3-12,0s-3.3-8.7,0-12,8.7-3.3,12,0,3.3,8.7,0,12Z"/>
      <path class="st0" d="M1531.2,328.1c-3.3,3.3-8.7,3.3-12,0s-3.3-8.7,0-12,8.7-3.3,12,0,3.3,8.7,0,12Z"/>
      <path class="st0" d="M1555.1,352c-3.3,3.3-8.7,3.3-12,0s-3.3-8.7,0-12,8.7-3.3,12,0,3.3,8.7,0,12Z"/>
      <path class="st0" d="M1579,375.9c-3.3,3.3-8.7,3.3-12,0s-3.3-8.7,0-12,8.7-3.3,12,0,3.3,8.7,0,12Z"/>
      <path class="st0" d="M1603,399.8c-3.3,3.3-8.7,3.3-12,0s-3.3-8.7,0-12,8.7-3.3,12,0,3.3,8.7,0,12Z"/>
      <path class="st0" d="M1626.9,423.8c-3.3,3.3-8.7,3.3-12,0s-3.3-8.7,0-12,8.7-3.3,12,0,3.3,8.6,0,12Z"/>
      <path class="st0" d="M1650.8,447.7c-3.3,3.3-8.7,3.3-12,0s-3.3-8.7,0-12,8.7-3.3,12,0,3.3,8.7,0,12Z"/>
      <path class="st0" d="M1674.7,471.6c-3.3,3.3-8.7,3.3-12,0s-3.3-8.7,0-12,8.7-3.3,12,0,3.3,8.7,0,12Z"/>
      <path class="st0" d="M1698.7,495.5c-3.3,3.3-8.7,3.3-12,0s-3.3-8.7,0-12,8.7-3.3,12,0,3.3,8.7,0,12Z"/>
      <path class="st0" d="M1722.6,519.4c-3.3,3.3-8.7,3.3-12,0s-3.3-8.7,0-12,8.7-3.3,12,0,3.3,8.7,0,12Z"/>
      <path class="st0" d="M1746.5,543.4c-3.3,3.3-8.7,3.3-12,0s-3.3-8.7,0-12,8.7-3.3,12,0,3.3,8.7,0,12Z"/>
      <path class="st0" d="M1459.4,304.1c-3.3,3.3-8.7,3.3-12,0s-3.3-8.7,0-12,8.7-3.3,12,0,3.3,8.7,0,12Z"/>
      <path class="st0" d="M1483.4,328.1c-3.3,3.3-8.7,3.3-12,0s-3.3-8.7,0-12,8.7-3.3,12,0,3.3,8.7,0,12Z"/>
      <path class="st0" d="M1507.3,352c-3.3,3.3-8.7,3.3-12,0s-3.3-8.7,0-12,8.7-3.3,12,0,3.3,8.7,0,12Z"/>
      <path class="st0" d="M1531.2,375.9c-3.3,3.3-8.7,3.3-12,0s-3.3-8.7,0-12,8.7-3.3,12,0,3.3,8.7,0,12Z"/>
      <path class="st0" d="M1555.1,399.8c-3.3,3.3-8.7,3.3-12,0s-3.3-8.7,0-12,8.7-3.3,12,0,3.3,8.7,0,12Z"/>
      <path class="st0" d="M1579,423.8c-3.3,3.3-8.7,3.3-12,0s-3.3-8.7,0-12,8.7-3.3,12,0,3.3,8.6,0,12Z"/>
      <path class="st0" d="M1603,447.7c-3.3,3.3-8.7,3.3-12,0s-3.3-8.7,0-12,8.7-3.3,12,0,3.3,8.7,0,12Z"/>
      <path class="st0" d="M1626.9,471.6c-3.3,3.3-8.7,3.3-12,0s-3.3-8.7,0-12,8.7-3.3,12,0,3.3,8.7,0,12Z"/>
      <path class="st0" d="M1650.8,495.5c-3.3,3.3-8.7,3.3-12,0s-3.3-8.7,0-12,8.7-3.3,12,0,3.3,8.7,0,12Z"/>
      <path class="st0" d="M1674.7,519.4c-3.3,3.3-8.7,3.3-12,0s-3.3-8.7,0-12,8.7-3.3,12,0,3.3,8.7,0,12Z"/>
      <path class="st0" d="M1698.7,543.4c-3.3,3.3-8.7,3.3-12,0s-3.3-8.7,0-12,8.7-3.3,12,0,3.3,8.7,0,12Z"/>
      <path class="st0" d="M1459.4,352c-3.3,3.3-8.7,3.3-12,0s-3.3-8.7,0-12,8.7-3.3,12,0,3.3,8.7,0,12Z"/>
      <path class="st0" d="M1483.4,375.9c-3.3,3.3-8.7,3.3-12,0s-3.3-8.7,0-12,8.7-3.3,12,0,3.3,8.7,0,12Z"/>
      <path class="st0" d="M1507.3,399.8c-3.3,3.3-8.7,3.3-12,0s-3.3-8.7,0-12,8.7-3.3,12,0,3.3,8.7,0,12Z"/>
      <path class="st0" d="M1531.2,423.8c-3.3,3.3-8.7,3.3-12,0s-3.3-8.7,0-12,8.7-3.3,12,0,3.3,8.6,0,12Z"/>
      <path class="st0" d="M1555.1,447.7c-3.3,3.3-8.7,3.3-12,0s-3.3-8.7,0-12,8.7-3.3,12,0,3.3,8.7,0,12Z"/>
      <path class="st0" d="M1579,471.6c-3.3,3.3-8.7,3.3-12,0s-3.3-8.7,0-12,8.7-3.3,12,0,3.3,8.7,0,12Z"/>
      <path class="st0" d="M1603,495.5c-3.3,3.3-8.7,3.3-12,0s-3.3-8.7,0-12,8.7-3.3,12,0,3.3,8.7,0,12Z"/>
      <path class="st0" d="M1626.9,519.4c-3.3,3.3-8.7,3.3-12,0s-3.3-8.7,0-12,8.7-3.3,12,0,3.3,8.7,0,12Z"/>
      <path class="st0" d="M1650.8,543.4c-3.3,3.3-8.7,3.3-12,0s-3.3-8.7,0-12,8.7-3.3,12,0,3.3,8.7,0,12Z"/>
      <path class="st0" d="M1483.4,423.8c-3.3,3.3-8.7,3.3-12,0s-3.3-8.7,0-12,8.7-3.3,12,0,3.3,8.6,0,12Z"/>
      <path class="st0" d="M1507.3,447.7c-3.3,3.3-8.7,3.3-12,0s-3.3-8.7,0-12,8.7-3.3,12,0,3.3,8.7,0,12Z"/>
      <path class="st0" d="M1531.2,471.6c-3.3,3.3-8.7,3.3-12,0s-3.3-8.7,0-12,8.7-3.3,12,0,3.3,8.7,0,12Z"/>
      <path class="st0" d="M1555.1,495.5c-3.3,3.3-8.7,3.3-12,0s-3.3-8.7,0-12,8.7-3.3,12,0,3.3,8.7,0,12Z"/>
      <path class="st0" d="M1579,519.4c-3.3,3.3-8.7,3.3-12,0s-3.3-8.7,0-12,8.7-3.3,12,0,3.3,8.7,0,12Z"/>
    </g>
    <g>
      <path class="st0" d="M292.7,453.6c-3.3,3.3-8.6,3.3-12,0-3.3-3.3-3.3-8.7,0-12s8.7-3.3,12,0,3.3,8.7,0,12Z"/>
      <path class="st0" d="M316.6,477.6c-3.3,3.3-8.7,3.3-12,0s-3.3-8.7,0-12,8.7-3.3,12,0,3.3,8.7,0,12Z"/>
      <path class="st0" d="M340.5,501.5c-3.3,3.3-8.7,3.3-12,0s-3.3-8.7,0-12,8.7-3.3,12,0,3.3,8.7,0,12Z"/>
      <path class="st0" d="M364.4,525.4c-3.3,3.3-8.7,3.3-12,0s-3.3-8.7,0-12,8.7-3.3,12,0,3.3,8.7,0,12Z"/>
      <path class="st0" d="M388.4,549.3c-3.3,3.3-8.7,3.3-12,0s-3.3-8.7,0-12,8.7-3.3,12,0,3.3,8.7,0,12Z"/>
      <path class="st0" d="M220.9,429.7c-3.3,3.3-8.6,3.3-12,0-3.3-3.3-3.3-8.7,0-12s8.6-3.3,12,0c3.3,3.3,3.3,8.7,0,12Z"/>
      <path class="st0" d="M244.8,453.6c-3.3,3.3-8.7,3.3-12,0s-3.3-8.7,0-12,8.7-3.3,12,0,3.3,8.7,0,12Z"/>
      <path class="st0" d="M268.8,477.6c-3.3,3.3-8.7,3.3-12,0-3.3-3.3-3.3-8.7,0-12,3.3-3.3,8.7-3.3,12,0s3.3,8.7,0,12Z"/>
      <path class="st0" d="M292.7,501.5c-3.3,3.3-8.6,3.3-12,0-3.3-3.3-3.3-8.7,0-12s8.7-3.3,12,0,3.3,8.7,0,12Z"/>
      <path class="st0" d="M316.6,525.4c-3.3,3.3-8.7,3.3-12,0s-3.3-8.7,0-12,8.7-3.3,12,0,3.3,8.7,0,12Z"/>
      <path class="st0" d="M340.5,549.3c-3.3,3.3-8.7,3.3-12,0s-3.3-8.7,0-12,8.7-3.3,12,0,3.3,8.7,0,12Z"/>
      <path class="st0" d="M364.4,573.2c-3.3,3.3-8.7,3.3-12,0s-3.3-8.7,0-12,8.7-3.3,12,0,3.3,8.7,0,12Z"/>
      <path class="st0" d="M388.4,597.2c-3.3,3.3-8.7,3.3-12,0s-3.3-8.7,0-12,8.7-3.3,12,0,3.3,8.7,0,12Z"/>
      <path class="st0" d="M412.3,621.1c-3.3,3.3-8.7,3.3-12,0s-3.3-8.7,0-12,8.7-3.3,12,0,3.3,8.7,0,12Z"/>
      <path class="st0" d="M173.1,429.7c-3.3,3.3-8.7,3.3-12,0s-3.3-8.7,0-12,8.7-3.3,12,0,3.3,8.7,0,12Z"/>
      <path class="st0" d="M197,453.6c-3.3,3.3-8.7,3.3-12,0s-3.3-8.7,0-12,8.7-3.3,12,0,3.3,8.7,0,12Z"/>
      <path class="st0" d="M220.9,477.6c-3.3,3.3-8.6,3.3-12,0-3.3-3.3-3.3-8.7,0-12s8.6-3.3,12,0c3.3,3.3,3.3,8.7,0,12Z"/>
      <path class="st0" d="M244.8,501.5c-3.3,3.3-8.7,3.3-12,0s-3.3-8.7,0-12,8.7-3.3,12,0,3.3,8.7,0,12Z"/>
      <path class="st0" d="M268.8,525.4c-3.3,3.3-8.7,3.3-12,0s-3.3-8.7,0-12c3.3-3.3,8.7-3.3,12,0s3.3,8.7,0,12Z"/>
      <path class="st0" d="M292.7,549.3c-3.3,3.3-8.6,3.3-12,0-3.3-3.3-3.3-8.7,0-12s8.7-3.3,12,0,3.3,8.7,0,12Z"/>
      <path class="st0" d="M316.6,573.2c-3.3,3.3-8.7,3.3-12,0s-3.3-8.7,0-12,8.7-3.3,12,0,3.3,8.7,0,12Z"/>
      <path class="st0" d="M340.5,597.2c-3.3,3.3-8.7,3.3-12,0s-3.3-8.7,0-12,8.7-3.3,12,0,3.3,8.7,0,12Z"/>
      <path class="st0" d="M364.4,621.1c-3.3,3.3-8.7,3.3-12,0s-3.3-8.7,0-12,8.7-3.3,12,0,3.3,8.7,0,12Z"/>
      <path class="st0" d="M388.4,645c-3.3,3.3-8.7,3.3-12,0s-3.3-8.7,0-12,8.7-3.3,12,0,3.3,8.7,0,12Z"/>
      <path class="st0" d="M412.3,668.9c-3.3,3.3-8.7,3.3-12,0s-3.3-8.7,0-12,8.7-3.3,12,0,3.3,8.7,0,12Z"/>
      <path class="st0" d="M125.2,429.7c-3.3,3.3-8.7,3.3-12,0s-3.3-8.7,0-12,8.7-3.3,12,0,3.3,8.7,0,12Z"/>
      <path class="st0" d="M149.1,453.6c-3.3,3.3-8.7,3.3-12,0s-3.3-8.7,0-12,8.7-3.3,12,0,3.3,8.7,0,12Z"/>
      <path class="st0" d="M173.1,477.6c-3.3,3.3-8.7,3.3-12,0s-3.3-8.7,0-12,8.7-3.3,12,0,3.3,8.7,0,12Z"/>
      <path class="st0" d="M197,501.5c-3.3,3.3-8.7,3.3-12,0s-3.3-8.7,0-12,8.7-3.3,12,0,3.3,8.7,0,12Z"/>
      <path class="st0" d="M220.9,525.4c-3.3,3.3-8.6,3.3-12,0-3.3-3.3-3.3-8.7,0-12s8.6-3.3,12,0c3.3,3.3,3.3,8.7,0,12Z"/>
      <path class="st0" d="M244.8,549.3c-3.3,3.3-8.7,3.3-12,0s-3.3-8.7,0-12,8.7-3.3,12,0,3.3,8.7,0,12Z"/>
      <path class="st0" d="M268.8,573.2c-3.3,3.3-8.7,3.3-12,0s-3.3-8.7,0-12c3.3-3.3,8.7-3.3,12,0s3.3,8.7,0,12Z"/>
      <path class="st0" d="M292.7,597.2c-3.3,3.3-8.6,3.3-12,0-3.3-3.3-3.3-8.7,0-12s8.7-3.3,12,0,3.3,8.7,0,12Z"/>
      <path class="st0" d="M316.6,621.1c-3.3,3.3-8.7,3.3-12,0s-3.3-8.7,0-12,8.7-3.3,12,0,3.3,8.7,0,12Z"/>
      <path class="st0" d="M340.5,645c-3.3,3.3-8.7,3.3-12,0s-3.3-8.7,0-12,8.7-3.3,12,0,3.3,8.7,0,12Z"/>
      <path class="st0" d="M364.4,668.9c-3.3,3.3-8.7,3.3-12,0s-3.3-8.7,0-12,8.7-3.3,12,0,3.3,8.7,0,12Z"/>
      <path class="st0" d="M388.4,692.9c-3.3,3.3-8.7,3.3-12,0s-3.3-8.7,0-12,8.7-3.3,12,0,3.3,8.7,0,12Z"/>
      <path class="st0" d="M412.3,716.8c-3.3,3.3-8.7,3.3-12,0s-3.3-8.7,0-12,8.7-3.3,12,0,3.3,8.7,0,12Z"/>
      <path class="st0" d="M101.3,453.6c-3.3,3.3-8.7,3.3-12,0s-3.3-8.7,0-12,8.7-3.3,12,0,3.3,8.7,0,12Z"/>
      <path class="st0" d="M125.2,477.6c-3.3,3.3-8.7,3.3-12,0s-3.3-8.7,0-12,8.7-3.3,12,0,3.3,8.7,0,12Z"/>
      <path class="st0" d="M149.1,501.5c-3.3,3.3-8.7,3.3-12,0s-3.3-8.7,0-12,8.7-3.3,12,0,3.3,8.7,0,12Z"/>
      <circle class="st0" cx="167.1" cy="519.4" r="8.5"/>
      <path class="st0" d="M197,549.3c-3.3,3.3-8.7,3.3-12,0s-3.3-8.7,0-12,8.7-3.3,12,0,3.3,8.7,0,12Z"/>
      <path class="st0" d="M220.9,573.2c-3.3,3.3-8.6,3.3-12,0-3.3-3.3-3.3-8.7,0-12s8.6-3.3,12,0c3.3,3.3,3.3,8.7,0,12Z"/>
      <circle class="st0" cx="238.8" cy="591.2" r="8.5"/>
      <path class="st0" d="M268.8,621.1c-3.3,3.3-8.7,3.3-12,0-3.3-3.3-3.3-8.7,0-12,3.3-3.3,8.7-3.3,12,0s3.3,8.7,0,12Z"/>
      <path class="st0" d="M292.7,645c-3.3,3.3-8.6,3.3-12,0-3.3-3.3-3.3-8.7,0-12s8.7-3.3,12,0,3.3,8.7,0,12Z"/>
      <path class="st0" d="M316.6,668.9c-3.3,3.3-8.7,3.3-12,0s-3.3-8.7,0-12,8.7-3.3,12,0,3.3,8.7,0,12Z"/>
      <path class="st0" d="M340.5,692.9c-3.3,3.3-8.7,3.3-12,0s-3.3-8.7,0-12,8.7-3.3,12,0,3.3,8.7,0,12Z"/>
      <path class="st0" d="M364.4,716.8c-3.3,3.3-8.7,3.3-12,0s-3.3-8.7,0-12,8.7-3.3,12,0,3.3,8.7,0,12Z"/>
      <path class="st0" d="M388.4,740.7c-3.3,3.3-8.7,3.3-12,0s-3.3-8.7,0-12,8.7-3.3,12,0,3.3,8.7,0,12Z"/>
      <path class="st0" d="M53.5,453.6c-3.3,3.3-8.7,3.3-12,0s-3.3-8.7,0-12,8.6-3.3,12,0c3.3,3.3,3.3,8.7,0,12Z"/>
      <path class="st0" d="M77.4,477.6c-3.3,3.3-8.7,3.3-12,0-3.3-3.3-3.3-8.7,0-12,3.3-3.3,8.7-3.3,12,0s3.3,8.7,0,12Z"/>
      <path class="st0" d="M101.3,501.5c-3.3,3.3-8.7,3.3-12,0s-3.3-8.7,0-12,8.7-3.3,12,0,3.3,8.7,0,12Z"/>
      <path class="st0" d="M125.2,525.4c-3.3,3.3-8.7,3.3-12,0s-3.3-8.7,0-12,8.7-3.3,12,0,3.3,8.7,0,12Z"/>
      <path class="st0" d="M149.1,549.3c-3.3,3.3-8.7,3.3-12,0s-3.3-8.7,0-12,8.7-3.3,12,0,3.3,8.7,0,12Z"/>
      <path class="st0" d="M173.1,573.2c-3.3,3.3-8.7,3.3-12,0s-3.3-8.7,0-12,8.7-3.3,12,0,3.3,8.7,0,12Z"/>
      <path class="st0" d="M197,597.2c-3.3,3.3-8.7,3.3-12,0s-3.3-8.7,0-12,8.7-3.3,12,0,3.3,8.7,0,12Z"/>
      <path class="st0" d="M220.9,621.1c-3.3,3.3-8.6,3.3-12,0-3.3-3.3-3.3-8.7,0-12s8.6-3.3,12,0c3.3,3.3,3.3,8.7,0,12Z"/>
      <path class="st0" d="M244.8,645c-3.3,3.3-8.7,3.3-12,0s-3.3-8.7,0-12,8.7-3.3,12,0,3.3,8.7,0,12Z"/>
      <path class="st0" d="M268.8,668.9c-3.3,3.3-8.7,3.3-12,0-3.3-3.3-3.3-8.7,0-12,3.3-3.3,8.7-3.3,12,0s3.3,8.7,0,12Z"/>
      <path class="st0" d="M292.7,692.9c-3.3,3.3-8.6,3.3-12,0-3.3-3.3-3.3-8.7,0-12s8.7-3.3,12,0,3.3,8.7,0,12Z"/>
      <path class="st0" d="M316.6,716.8c-3.3,3.3-8.7,3.3-12,0s-3.3-8.7,0-12,8.7-3.3,12,0,3.3,8.7,0,12Z"/>
      <path class="st0" d="M340.5,740.7c-3.3,3.3-8.7,3.3-12,0s-3.3-8.7,0-12,8.7-3.3,12,0,3.3,8.7,0,12Z"/>
      <path class="st0" d="M364.4,764.6c-3.3,3.3-8.7,3.3-12,0s-3.3-8.7,0-12,8.7-3.3,12,0,3.3,8.7,0,12Z"/>
      <path class="st0" d="M388.4,788.5c-3.3,3.3-8.7,3.3-12,0s-3.3-8.7,0-12,8.7-3.3,12,0,3.3,8.7,0,12Z"/>
      <path class="st0" d="M29.5,477.6c-3.3,3.3-8.7,3.3-12,0-3.3-3.3-3.3-8.7,0-12,3.3-3.3,8.7-3.3,12,0s3.3,8.7,0,12Z"/>
      <path class="st0" d="M53.5,501.5c-3.3,3.3-8.7,3.3-12,0s-3.3-8.7,0-12,8.6-3.3,12,0c3.3,3.3,3.3,8.7,0,12Z"/>
      <path class="st0" d="M77.4,525.4c-3.3,3.3-8.7,3.3-12,0-3.3-3.3-3.3-8.7,0-12,3.3-3.3,8.7-3.3,12,0s3.3,8.7,0,12Z"/>
      <path class="st0" d="M101.3,549.3c-3.3,3.3-8.7,3.3-12,0s-3.3-8.7,0-12,8.7-3.3,12,0,3.3,8.7,0,12Z"/>
      <path class="st0" d="M125.2,573.2c-3.3,3.3-8.7,3.3-12,0s-3.3-8.7,0-12,8.7-3.3,12,0,3.3,8.7,0,12Z"/>
      <path class="st0" d="M149.1,597.2c-3.3,3.3-8.7,3.3-12,0s-3.3-8.7,0-12,8.7-3.3,12,0,3.3,8.7,0,12Z"/>
      <path class="st0" d="M173.1,621.1c-3.3,3.3-8.7,3.3-12,0s-3.3-8.7,0-12,8.7-3.3,12,0,3.3,8.7,0,12Z"/>
      <path class="st0" d="M197,645c-3.3,3.3-8.7,3.3-12,0s-3.3-8.7,0-12,8.7-3.3,12,0,3.3,8.7,0,12Z"/>
      <path class="st0" d="M220.9,668.9c-3.3,3.3-8.6,3.3-12,0-3.3-3.3-3.3-8.7,0-12s8.6-3.3,12,0c3.3,3.3,3.3,8.7,0,12Z"/>
      <path class="st0" d="M244.8,692.9c-3.3,3.3-8.7,3.3-12,0s-3.3-8.7,0-12,8.7-3.3,12,0,3.3,8.7,0,12Z"/>
      <path class="st0" d="M268.8,716.8c-3.3,3.3-8.7,3.3-12,0-3.3-3.3-3.3-8.7,0-12,3.3-3.3,8.7-3.3,12,0s3.3,8.7,0,12Z"/>
      <path class="st0" d="M292.7,740.7c-3.3,3.3-8.6,3.3-12,0-3.3-3.3-3.3-8.7,0-12s8.7-3.3,12,0,3.3,8.7,0,12Z"/>
      <path class="st0" d="M316.6,764.6c-3.3,3.3-8.7,3.3-12,0s-3.3-8.7,0-12,8.7-3.3,12,0,3.3,8.7,0,12Z"/>
      <path class="st0" d="M340.5,788.5c-3.3,3.3-8.7,3.3-12,0s-3.3-8.7,0-12,8.7-3.3,12,0,3.3,8.7,0,12Z"/>
      <path class="st0" d="M364.4,812.5c-3.3,3.3-8.7,3.3-12,0s-3.3-8.7,0-12,8.7-3.3,12,0,3.3,8.7,0,12Z"/>
      <path class="st0" d="M5.6,501.5c-3.3,3.3-8.7,3.3-12,0-3.3-3.3-3.3-8.7,0-12,3.3-3.3,8.7-3.3,12,0,3.3,3.3,3.3,8.7,0,12Z"/>
      <path class="st0" d="M29.5,525.4c-3.3,3.3-8.7,3.3-12,0s-3.3-8.7,0-12c3.3-3.3,8.7-3.3,12,0s3.3,8.7,0,12Z"/>
      <path class="st0" d="M53.5,549.3c-3.3,3.3-8.7,3.3-12,0s-3.3-8.7,0-12,8.6-3.3,12,0c3.3,3.3,3.3,8.7,0,12Z"/>
      <path class="st0" d="M77.4,573.2c-3.3,3.3-8.7,3.3-12,0-3.3-3.3-3.3-8.7,0-12,3.3-3.3,8.7-3.3,12,0s3.3,8.7,0,12Z"/>
      <path class="st0" d="M101.3,597.2c-3.3,3.3-8.7,3.3-12,0s-3.3-8.7,0-12,8.7-3.3,12,0,3.3,8.7,0,12Z"/>
      <path class="st0" d="M125.2,621.1c-3.3,3.3-8.7,3.3-12,0s-3.3-8.7,0-12,8.7-3.3,12,0,3.3,8.7,0,12Z"/>
      <path class="st0" d="M149.1,645c-3.3,3.3-8.7,3.3-12,0s-3.3-8.7,0-12,8.7-3.3,12,0,3.3,8.7,0,12Z"/>
      <path class="st0" d="M173.1,668.9c-3.3,3.3-8.7,3.3-12,0s-3.3-8.7,0-12,8.7-3.3,12,0,3.3,8.7,0,12Z"/>
      <path class="st0" d="M197,692.9c-3.3,3.3-8.7,3.3-12,0s-3.3-8.7,0-12,8.7-3.3,12,0,3.3,8.7,0,12Z"/>
      <path class="st0" d="M220.9,716.8c-3.3,3.3-8.6,3.3-12,0-3.3-3.3-3.3-8.7,0-12s8.6-3.3,12,0c3.3,3.3,3.3,8.7,0,12Z"/>
      <path class="st0" d="M244.8,740.7c-3.3,3.3-8.7,3.3-12,0s-3.3-8.7,0-12,8.7-3.3,12,0,3.3,8.7,0,12Z"/>
      <path class="st0" d="M268.8,764.6c-3.3,3.3-8.7,3.3-12,0-3.3-3.3-3.3-8.7,0-12,3.3-3.3,8.7-3.3,12,0s3.3,8.7,0,12Z"/>
      <path class="st0" d="M292.7,788.5c-3.3,3.3-8.6,3.3-12,0-3.3-3.3-3.3-8.7,0-12s8.7-3.3,12,0,3.3,8.7,0,12Z"/>
      <path class="st0" d="M316.6,812.5c-3.3,3.3-8.7,3.3-12,0s-3.3-8.7,0-12,8.7-3.3,12,0,3.3,8.7,0,12Z"/>
      <path class="st0" d="M340.5,836.4c-3.3,3.3-8.7,3.3-12,0s-3.3-8.7,0-12,8.7-3.3,12,0,3.3,8.7,0,12Z"/>
      <path class="st0" d="M5.6,549.3c-3.3,3.3-8.7,3.3-12,0-3.3-3.3-3.3-8.7,0-12,3.3-3.3,8.7-3.3,12,0,3.3,3.3,3.3,8.7,0,12Z"/>
      <path class="st0" d="M29.5,573.2c-3.3,3.3-8.7,3.3-12,0s-3.3-8.7,0-12c3.3-3.3,8.7-3.3,12,0s3.3,8.7,0,12Z"/>
      <path class="st0" d="M53.5,597.2c-3.3,3.3-8.7,3.3-12,0s-3.3-8.7,0-12,8.6-3.3,12,0c3.3,3.3,3.3,8.7,0,12Z"/>
      <path class="st0" d="M77.4,621.1c-3.3,3.3-8.7,3.3-12,0-3.3-3.3-3.3-8.7,0-12,3.3-3.3,8.7-3.3,12,0s3.3,8.7,0,12Z"/>
      <path class="st0" d="M101.3,645c-3.3,3.3-8.7,3.3-12,0s-3.3-8.7,0-12,8.7-3.3,12,0,3.3,8.7,0,12Z"/>
      <path class="st0" d="M125.2,668.9c-3.3,3.3-8.7,3.3-12,0s-3.3-8.7,0-12,8.7-3.3,12,0,3.3,8.7,0,12Z"/>
      <path class="st0" d="M149.1,692.9c-3.3,3.3-8.7,3.3-12,0s-3.3-8.7,0-12,8.7-3.3,12,0,3.3,8.7,0,12Z"/>
      <path class="st0" d="M173.1,716.8c-3.3,3.3-8.7,3.3-12,0s-3.3-8.7,0-12,8.7-3.3,12,0,3.3,8.7,0,12Z"/>
      <path class="st0" d="M197,740.7c-3.3,3.3-8.7,3.3-12,0s-3.3-8.7,0-12,8.7-3.3,12,0,3.3,8.7,0,12Z"/>
      <path class="st0" d="M220.9,764.6c-3.3,3.3-8.6,3.3-12,0-3.3-3.3-3.3-8.7,0-12s8.6-3.3,12,0c3.3,3.3,3.3,8.7,0,12Z"/>
      <path class="st0" d="M244.8,788.5c-3.3,3.3-8.7,3.3-12,0s-3.3-8.7,0-12,8.7-3.3,12,0,3.3,8.7,0,12Z"/>
      <path class="st0" d="M268.8,812.5c-3.3,3.3-8.7,3.3-12,0s-3.3-8.7,0-12c3.3-3.3,8.7-3.3,12,0s3.3,8.7,0,12Z"/>
      <path class="st0" d="M292.7,836.4c-3.3,3.3-8.6,3.3-12,0-3.3-3.3-3.3-8.7,0-12s8.7-3.3,12,0,3.3,8.7,0,12Z"/>
      <path class="st0" d="M316.6,860.3c-3.3,3.3-8.7,3.3-12,0s-3.3-8.7,0-12,8.7-3.3,12,0,3.3,8.7,0,12Z"/>
      <path class="st0" d="M5.6,597.2c-3.3,3.3-8.7,3.3-12,0-3.3-3.3-3.3-8.7,0-12,3.3-3.3,8.7-3.3,12,0,3.3,3.3,3.3,8.7,0,12Z"/>
      <path class="st0" d="M29.5,621.1c-3.3,3.3-8.7,3.3-12,0-3.3-3.3-3.3-8.7,0-12,3.3-3.3,8.7-3.3,12,0s3.3,8.7,0,12Z"/>
      <path class="st0" d="M53.5,645c-3.3,3.3-8.7,3.3-12,0s-3.3-8.7,0-12,8.6-3.3,12,0c3.3,3.3,3.3,8.7,0,12Z"/>
      <path class="st0" d="M77.4,668.9c-3.3,3.3-8.7,3.3-12,0-3.3-3.3-3.3-8.7,0-12,3.3-3.3,8.7-3.3,12,0s3.3,8.7,0,12Z"/>
      <path class="st0" d="M101.3,692.9c-3.3,3.3-8.7,3.3-12,0s-3.3-8.7,0-12,8.7-3.3,12,0,3.3,8.7,0,12Z"/>
      <path class="st0" d="M125.2,716.8c-3.3,3.3-8.7,3.3-12,0s-3.3-8.7,0-12,8.7-3.3,12,0,3.3,8.7,0,12Z"/>
      <path class="st0" d="M149.1,740.7c-3.3,3.3-8.7,3.3-12,0s-3.3-8.7,0-12,8.7-3.3,12,0,3.3,8.7,0,12Z"/>
      <path class="st0" d="M173.1,764.6c-3.3,3.3-8.7,3.3-12,0s-3.3-8.7,0-12,8.7-3.3,12,0,3.3,8.7,0,12Z"/>
      <path class="st0" d="M197,788.5c-3.3,3.3-8.7,3.3-12,0s-3.3-8.7,0-12,8.7-3.3,12,0,3.3,8.7,0,12Z"/>
      <path class="st0" d="M220.9,812.5c-3.3,3.3-8.6,3.3-12,0-3.3-3.3-3.3-8.7,0-12s8.6-3.3,12,0c3.3,3.3,3.3,8.7,0,12Z"/>
      <path class="st0" d="M244.8,836.4c-3.3,3.3-8.7,3.3-12,0s-3.3-8.7,0-12,8.7-3.3,12,0,3.3,8.7,0,12Z"/>
      <path class="st0" d="M268.8,860.3c-3.3,3.3-8.7,3.3-12,0-3.3-3.3-3.3-8.7,0-12,3.3-3.3,8.7-3.3,12,0s3.3,8.7,0,12Z"/>
      <path class="st0" d="M292.7,884.2c-3.3,3.3-8.6,3.3-12,0-3.3-3.3-3.3-8.7,0-12s8.7-3.3,12,0,3.3,8.7,0,12Z"/>
      <path class="st0" d="M5.6,645c-3.3,3.3-8.7,3.3-12,0-3.3-3.3-3.3-8.7,0-12,3.3-3.3,8.7-3.3,12,0,3.3,3.3,3.3,8.7,0,12Z"/>
      <path class="st0" d="M29.5,668.9c-3.3,3.3-8.7,3.3-12,0-3.3-3.3-3.3-8.7,0-12,3.3-3.3,8.7-3.3,12,0s3.3,8.7,0,12Z"/>
      <path class="st0" d="M53.5,692.9c-3.3,3.3-8.7,3.3-12,0s-3.3-8.7,0-12,8.6-3.3,12,0c3.3,3.3,3.3,8.7,0,12Z"/>
      <path class="st0" d="M77.4,716.8c-3.3,3.3-8.7,3.3-12,0-3.3-3.3-3.3-8.7,0-12,3.3-3.3,8.7-3.3,12,0s3.3,8.7,0,12Z"/>
      <path class="st0" d="M101.3,740.7c-3.3,3.3-8.7,3.3-12,0s-3.3-8.7,0-12,8.7-3.3,12,0,3.3,8.7,0,12Z"/>
      <path class="st0" d="M125.2,764.6c-3.3,3.3-8.7,3.3-12,0s-3.3-8.7,0-12,8.7-3.3,12,0,3.3,8.7,0,12Z"/>
      <path class="st0" d="M149.1,788.5c-3.3,3.3-8.7,3.3-12,0s-3.3-8.7,0-12,8.7-3.3,12,0,3.3,8.7,0,12Z"/>
      <path class="st0" d="M173.1,812.5c-3.3,3.3-8.7,3.3-12,0s-3.3-8.7,0-12,8.7-3.3,12,0,3.3,8.7,0,12Z"/>
      <path class="st0" d="M197,836.4c-3.3,3.3-8.7,3.3-12,0s-3.3-8.7,0-12,8.7-3.3,12,0,3.3,8.7,0,12Z"/>
      <path class="st0" d="M220.9,860.3c-3.3,3.3-8.6,3.3-12,0-3.3-3.3-3.3-8.7,0-12s8.6-3.3,12,0c3.3,3.3,3.3,8.7,0,12Z"/>
      <path class="st0" d="M244.8,884.2c-3.3,3.3-8.7,3.3-12,0s-3.3-8.7,0-12,8.7-3.3,12,0,3.3,8.7,0,12Z"/>
      <path class="st0" d="M5.6,692.9c-3.3,3.3-8.7,3.3-12,0-3.3-3.3-3.3-8.7,0-12,3.3-3.3,8.7-3.3,12,0,3.3,3.3,3.3,8.7,0,12Z"/>
      <path class="st0" d="M29.5,716.8c-3.3,3.3-8.7,3.3-12,0-3.3-3.3-3.3-8.7,0-12,3.3-3.3,8.7-3.3,12,0s3.3,8.7,0,12Z"/>
      <path class="st0" d="M53.5,740.7c-3.3,3.3-8.7,3.3-12,0s-3.3-8.7,0-12,8.6-3.3,12,0c3.3,3.3,3.3,8.7,0,12Z"/>
      <path class="st0" d="M77.4,764.6c-3.3,3.3-8.7,3.3-12,0s-3.3-8.7,0-12c3.3-3.3,8.7-3.3,12,0s3.3,8.7,0,12Z"/>
      <path class="st0" d="M101.3,788.5c-3.3,3.3-8.7,3.3-12,0s-3.3-8.7,0-12,8.7-3.3,12,0,3.3,8.7,0,12Z"/>
      <path class="st0" d="M125.2,812.5c-3.3,3.3-8.7,3.3-12,0s-3.3-8.7,0-12,8.7-3.3,12,0,3.3,8.7,0,12Z"/>
      <path class="st0" d="M149.1,836.4c-3.3,3.3-8.7,3.3-12,0s-3.3-8.7,0-12,8.7-3.3,12,0,3.3,8.7,0,12Z"/>
      <path class="st0" d="M173.1,860.3c-3.3,3.3-8.7,3.3-12,0s-3.3-8.7,0-12,8.7-3.3,12,0,3.3,8.7,0,12Z"/>
      <path class="st0" d="M197,884.2c-3.3,3.3-8.7,3.3-12,0s-3.3-8.7,0-12,8.7-3.3,12,0,3.3,8.7,0,12Z"/>
      <path class="st0" d="M220.9,908.2c-3.3,3.3-8.6,3.3-12,0-3.3-3.3-3.3-8.7,0-12s8.6-3.3,12,0c3.3,3.3,3.3,8.7,0,12Z"/>
      <path class="st0" d="M5.6,740.7c-3.3,3.3-8.7,3.3-12,0-3.3-3.3-3.3-8.7,0-12,3.3-3.3,8.7-3.3,12,0,3.3,3.3,3.3,8.7,0,12Z"/>
      <path class="st0" d="M29.5,764.6c-3.3,3.3-8.7,3.3-12,0-3.3-3.3-3.3-8.7,0-12,3.3-3.3,8.7-3.3,12,0s3.3,8.7,0,12Z"/>
      <path class="st0" d="M53.5,788.5c-3.3,3.3-8.7,3.3-12,0s-3.3-8.7,0-12,8.6-3.3,12,0c3.3,3.3,3.3,8.7,0,12Z"/>
      <path class="st0" d="M77.4,812.5c-3.3,3.3-8.7,3.3-12,0s-3.3-8.7,0-12c3.3-3.3,8.7-3.3,12,0s3.3,8.7,0,12Z"/>
      <path class="st0" d="M101.3,836.4c-3.3,3.3-8.7,3.3-12,0s-3.3-8.7,0-12,8.7-3.3,12,0,3.3,8.7,0,12Z"/>
      <path class="st0" d="M125.2,860.3c-3.3,3.3-8.7,3.3-12,0s-3.3-8.7,0-12,8.7-3.3,12,0,3.3,8.7,0,12Z"/>
      <path class="st0" d="M149.1,884.2c-3.3,3.3-8.7,3.3-12,0s-3.3-8.7,0-12,8.7-3.3,12,0,3.3,8.7,0,12Z"/>
      <path class="st0" d="M173.1,908.2c-3.3,3.3-8.7,3.3-12,0s-3.3-8.7,0-12,8.7-3.3,12,0,3.3,8.7,0,12Z"/>
      <path class="st0" d="M5.6,788.5c-3.3,3.3-8.7,3.3-12,0-3.3-3.3-3.3-8.7,0-12,3.3-3.3,8.7-3.3,12,0,3.3,3.3,3.3,8.7,0,12Z"/>
      <path class="st0" d="M29.5,812.5c-3.3,3.3-8.7,3.3-12,0s-3.3-8.7,0-12c3.3-3.3,8.7-3.3,12,0s3.3,8.7,0,12Z"/>
      <path class="st0" d="M53.5,836.4c-3.3,3.3-8.7,3.3-12,0s-3.3-8.7,0-12,8.6-3.3,12,0c3.3,3.3,3.3,8.7,0,12Z"/>
      <path class="st0" d="M77.4,860.3c-3.3,3.3-8.7,3.3-12,0s-3.3-8.7,0-12c3.3-3.3,8.7-3.3,12,0s3.3,8.7,0,12Z"/>
      <path class="st0" d="M101.3,884.2c-3.3,3.3-8.7,3.3-12,0s-3.3-8.7,0-12,8.7-3.3,12,0,3.3,8.7,0,12Z"/>
      <path class="st0" d="M125.2,908.2c-3.3,3.3-8.7,3.3-12,0s-3.3-8.7,0-12,8.7-3.3,12,0,3.3,8.7,0,12Z"/>
      <path class="st0" d="M5.6,836.4c-3.3,3.3-8.7,3.3-12,0-3.3-3.3-3.3-8.7,0-12,3.3-3.3,8.7-3.3,12,0,3.3,3.3,3.3,8.7,0,12Z"/>
      <path class="st0" d="M29.5,860.3c-3.3,3.3-8.7,3.3-12,0-3.3-3.3-3.3-8.7,0-12,3.3-3.3,8.7-3.3,12,0s3.3,8.7,0,12Z"/>
      <path class="st0" d="M53.5,884.2c-3.3,3.3-8.7,3.3-12,0s-3.3-8.7,0-12,8.6-3.3,12,0c3.3,3.3,3.3,8.7,0,12Z"/>
    </g>
    <circle class="st4" cx="1405.6" cy="539.2" r="179"/>
    <g>
      <path class="st0" d="M1734.3,675.4c-10.7,10.7-17.3,24-19.7,37.9l57.6-57.6c-13.9,2.4-27.2,9-37.9,19.7h0Z"/>
      <path class="st0" d="M1791.1,655l-77.3,77.3c.5,5.1,1.5,10.2,3.1,15.1l89.3-89.3c-4.9-1.6-10-2.7-15.1-3.1h0Z"/>
      <path class="st0" d="M1818.9,663.7l-96.4,96.4c2.1,3.8,4.6,7.4,7.4,10.8l99.8-99.8c-3.4-2.8-7-5.3-10.8-7.4h0Z"/>
      <path class="st0" d="M1838.8,680.2l-99.8,99.8c3.4,2.8,7,5.3,10.8,7.4l96.4-96.4c-2.1-3.8-4.6-7.4-7.4-10.8h0Z"/>
      <path class="st0" d="M1851.8,703.7l-89.3,89.3c4.9,1.6,10,2.7,15.1,3.1l77.3-77.3c-.5-5.1-1.5-10.2-3.1-15.1h0Z"/>
      <path class="st0" d="M1854.2,737.7l-57.6,57.6c13.9-2.4,27.2-9,37.9-19.7s17.3-24,19.7-37.9h0Z"/>
    </g>
    <path class="st0" d="M1247.2,1115.9h0c-5.6-.8-9.5-6-8.7-11.6h0c.8-5.6,6-9.5,11.6-8.7h0c5.6.8,9.5,5.9,8.7,11.5h0c-.7,5.1-5.1,8.8-10.1,8.8h-1.5ZM1279.7,1107.2c-.8-5.6,3.1-10.8,8.7-11.6h0c5.6-.8,10.8,3.1,11.6,8.7h0c.8,5.6-3.1,10.8-8.7,11.6h-1.4c-5,0-9.4-3.7-10.1-8.8h0ZM1204.8,1103.5c-5.1-2.3-7.4-8.4-5.1-13.5h0c2.3-5.1,8.4-7.4,13.5-5.1h0c5.1,2.3,7.4,8.4,5.1,13.5h0c-1.7,3.8-5.4,6-9.3,6h0c-1.4,0-2.9-.3-4.2-.9ZM1320.1,1098.4c-2.3-5.1,0-11.2,5-13.5h0c5.1-2.3,11.2,0,13.6,5h0c2.3,5.1,0,11.2-5,13.6h0c-1.4.6-2.8.9-4.2.9h0c-3.9,0-7.6-2.2-9.3-6h0ZM1167.7,1079.7c-4.3-3.7-4.7-10.1-1-14.4h0c3.7-4.3,10.1-4.7,14.4-1h0c4.3,3.7,4.7,10.2,1,14.4h0c-2,2.3-4.9,3.5-7.7,3.5h0c-2.4,0-4.8-.8-6.7-2.5h0ZM1356.3,1078.6c-3.7-4.3-3.2-10.7,1-14.4h0c4.3-3.7,10.7-3.2,14.4,1h0c3.7,4.3,3.2,10.7-1,14.4h0c-1.9,1.7-4.3,2.5-6.7,2.5h0c-2.9,0-5.7-1.2-7.7-3.5h0ZM1138.8,1046.4h0c-3.1-4.7-1.7-11.1,3-14.1h0c4.7-3.1,11.1-1.7,14.1,3.1h0c3,4.7,1.7,11.1-3.1,14.1h0c-1.7,1.1-3.6,1.6-5.5,1.6h0c-3.3,0-6.6-1.6-8.6-4.7h0ZM1385.5,1049.3c-4.7-3-6.1-9.4-3.1-14.1h0c3.1-4.7,9.4-6.1,14.1-3.1h0c4.7,3.1,6.1,9.4,3.1,14.1h0c-1.9,3-5.2,4.7-8.6,4.7h0c-1.9,0-3.8-.5-5.5-1.6h0ZM1120.4,1006.2c-1.6-5.4,1.5-11.1,6.9-12.7h0c5.4-1.6,11.1,1.5,12.7,6.9h0c1.6,5.4-1.5,11.1-6.9,12.7h0c-1,.3-1.9.4-2.9.4h0c-4.4,0-8.5-2.9-9.8-7.3h0ZM1405.3,1013c-5.4-1.6-8.5-7.2-6.9-12.7h0c1.6-5.4,7.3-8.5,12.7-6.9h0c5.4,1.6,8.5,7.2,6.9,12.7h0c-1.3,4.5-5.4,7.4-9.8,7.4h0c-.9,0-1.9,0-2.9-.4h0ZM1114.1,962.6h0c0-5.7,4.6-10.2,10.2-10.2h0c5.7,0,10.2,4.6,10.2,10.2h0c0,5.6-4.6,10.2-10.2,10.2h0c-5.6,0-10.2-4.6-10.2-10.2h0ZM1403.8,962.4h0v-.3h0c0-5.6,4.6-10.2,10.2-10.2h0c5.6,0,10.2,4.6,10.2,10.2h0v.2h0v.2h0c0,5.6-4.6,10.2-10.2,10.2h0c-5.6,0-10.2-4.6-10.2-10.2h0ZM1127.2,931.6c-5.4-1.6-8.5-7.2-6.9-12.7h0c1.6-5.4,7.3-8.5,12.7-7h0c5.4,1.6,8.5,7.2,6.9,12.7h0c-1.3,4.5-5.4,7.4-9.8,7.4h0c-.9,0-1.9,0-2.9-.4h0ZM1398.3,924.2h0c-1.6-5.4,1.5-11.1,6.9-12.7h0c5.4-1.6,11.1,1.5,12.7,6.9h0c1.6,5.4-1.5,11.1-6.9,12.7h0c-1,.3-1.9.4-2.9.4h0c-4.4,0-8.5-2.9-9.8-7.3h0ZM1141.7,892.9c-4.7-3-6.1-9.4-3.1-14.1h0c3-4.8,9.4-6.1,14.1-3.1h0c4.8,3,6.1,9.4,3.1,14.1h0c-2,3-5.2,4.7-8.6,4.7h0c-1.9,0-3.8-.5-5.5-1.6h0ZM1382.3,889.4c-3.1-4.7-1.7-11.1,3-14.1h0c4.7-3.1,11.1-1.7,14.1,3h0c3,4.7,1.7,11.1-3,14.1h0c-1.7,1.1-3.6,1.7-5.5,1.7h0c-3.3,0-6.6-1.7-8.6-4.7h0ZM1166.4,859.8c-3.7-4.2-3.2-10.7,1-14.4h0c4.3-3.7,10.7-3.2,14.4,1h0c3.7,4.2,3.2,10.7-1,14.4h0c-1.9,1.7-4.3,2.5-6.7,2.5h0c-2.9,0-5.7-1.2-7.7-3.5h0ZM1357.1,860.5c-4.3-3.7-4.7-10.2-1-14.4h0c3.7-4.3,10.1-4.7,14.4-1h0c4.3,3.7,4.7,10.1,1.1,14.4h0c-2,2.3-4.9,3.5-7.8,3.5h0c-2.4,0-4.7-.8-6.7-2.5h0ZM1199.5,835c-2.3-5.1,0-11.2,5-13.5h0c5.1-2.4,11.2,0,13.6,5h0c2.3,5.1,0,11.2-5,13.5h0c-1.4.7-2.8.9-4.2.9h0c-3.9,0-7.6-2.2-9.3-6h0ZM1324.8,839.8c-5.1-2.3-7.4-8.4-5.1-13.5h0c2.3-5.1,8.4-7.4,13.5-5h0c5.1,2.3,7.4,8.4,5.1,13.5h0c-1.7,3.8-5.4,6-9.3,6h0c-1.4,0-2.8-.3-4.2-.9h0ZM1238.2,820.5c-.8-5.6,3.1-10.8,8.7-11.6h0c5.6-.8,10.8,3.1,11.6,8.7h0c.8,5.6-3.1,10.8-8.7,11.6h-1.5c-5,0-9.4-3.7-10.1-8.8h0ZM1288.1,829.2c-5.6-.8-9.5-6-8.7-11.5h0c.8-5.6,6-9.5,11.6-8.7h0c5.6.8,9.5,6,8.7,11.5h0c-.7,5.1-5.1,8.8-10.1,8.8h-1.5Z"/>
    <path class="st0" d="M673.8,847.3h0c-3.9-.5-6.6-4.1-6-8h0c.5-3.9,4.1-6.6,8-6h0c3.9.5,6.6,4.1,6,8h0c-.5,3.5-3.5,6.1-7,6.1h-1ZM696.3,841.3c-.5-3.9,2.1-7.5,6-8h0c3.9-.5,7.5,2.1,8,6h0c.5,3.9-2.1,7.5-6,8h-1c-3.5,0-6.5-2.5-7-6.1h0ZM644.4,838.7c-3.5-1.6-5.1-5.8-3.5-9.4h0c1.6-3.6,5.8-5.1,9.4-3.5h0c3.6,1.6,5.1,5.8,3.5,9.4h0c-1.2,2.6-3.8,4.2-6.5,4.2h0c-1,0-2-.2-2.9-.7ZM724.3,835.2c-1.6-3.6,0-7.8,3.5-9.4h0c3.6-1.6,7.8,0,9.4,3.5h0c1.6,3.6,0,7.8-3.5,9.4h0c-1,.4-2,.6-3,.6h0c-2.7,0-5.3-1.5-6.5-4.1h0ZM618.7,822.2c-3-2.6-3.3-7-.7-10h0c2.6-3,7-3.3,10-.7h0c3,2.6,3.3,7,.7,10h0c-1.4,1.6-3.4,2.5-5.4,2.5h0c-1.6,0-3.3-.6-4.6-1.7h0ZM749.4,821.4c-2.6-3-2.2-7.4.7-10h0c3-2.6,7.4-2.2,10,.7h0c2.5,3,2.2,7.4-.7,10h0c-1.3,1.2-3,1.7-4.7,1.7h0c-2,0-4-.8-5.4-2.4h.1ZM598.6,799.1h0c-2.1-3.3-1.2-7.7,2.1-9.8h0c3.3-2.1,7.7-1.2,9.8,2.1h0c2.1,3.3,1.2,7.7-2.1,9.8h0c-1.2.8-2.5,1.1-3.8,1.1h0c-2.3,0-4.6-1.1-6-3.2h0ZM769.7,801.1c-3.3-2.1-4.2-6.5-2.1-9.8h0c2.1-3.3,6.5-4.2,9.8-2.1h0c3.3,2.1,4.2,6.5,2.1,9.8h0c-1.3,2.1-3.6,3.2-6,3.2h0c-1.3,0-2.6-.4-3.8-1.1h0ZM585.9,771.3c-1.1-3.8,1-7.7,4.8-8.8h0c3.8-1.1,7.7,1,8.8,4.8h0c1.1,3.8-1,7.7-4.8,8.8h0c-.7.2-1.3.3-2,.3h0c-3.1,0-5.9-2-6.8-5.1h0ZM783.4,776c-3.7-1.1-5.9-5-4.8-8.8h0c1.1-3.8,5-5.9,8.8-4.8h0c3.8,1.1,5.9,5,4.8,8.8h0c-.9,3.1-3.7,5.1-6.8,5.1h0c-.7,0-1.3,0-2-.3ZM581.5,741h0c0-3.9,3.2-7.1,7.1-7.1h0c3.9,0,7.1,3.2,7.1,7.1h0c0,3.9-3.2,7.1-7.1,7.1h0c-3.9,0-7.1-3.2-7.1-7.1h0ZM782.3,740.9h0v-.2h0c0-3.9,3.2-7.1,7.1-7.1h0c3.9,0,7.1,3.2,7.1,7.1h0v.2h0c0,3.9-3.2,7.1-7.1,7.1h0c-3.9,0-7.1-3.2-7.1-7.1h0ZM590.6,719.5c-3.8-1.1-5.9-5-4.8-8.8h0c1.1-3.8,5-5.9,8.8-4.8h0c3.8,1.1,5.9,5,4.8,8.8h0c-.9,3.1-3.7,5.1-6.8,5.1h0c-.7,0-1.3,0-2-.3h0ZM778.5,714.4h0c-1.1-3.8,1-7.7,4.8-8.8h0c3.8-1.1,7.7,1,8.8,4.8h0c1.1,3.8-1,7.7-4.8,8.8h0c-.7.2-1.3.3-2,.3h0c-3,0-5.9-2-6.8-5.1h0ZM600.6,692.7c-3.3-2.1-4.2-6.5-2.1-9.8h0c2.1-3.3,6.5-4.2,9.8-2.1h0c3.3,2.1,4.2,6.5,2.1,9.8h0c-1.4,2.1-3.6,3.3-6,3.3h0c-1.3,0-2.6-.4-3.8-1.1h0ZM767.5,690.3c-2.1-3.3-1.2-7.7,2.1-9.8h0c3.3-2.1,7.7-1.2,9.8,2.1h0c2.1,3.3,1.2,7.7-2.1,9.8h0c-1.2.8-2.5,1.2-3.8,1.2h0c-2.3,0-4.6-1.2-6-3.2h0ZM617.8,669.8c-2.6-3-2.2-7.4.7-10h0c3-2.6,7.4-2.2,10,.7h0c2.6,3,2.2,7.4-.7,10h0c-1.3,1.2-3,1.7-4.6,1.7h0c-2,0-4-.8-5.4-2.4h0ZM750,670.3c-3-2.6-3.3-7-.7-10h0c2.5-3,7-3.3,10-.7h0c3,2.5,3.3,7,.7,10h0c-1.4,1.6-3.4,2.5-5.4,2.5h0c-1.6,0-3.3-.6-4.6-1.7h0ZM640.7,652.6c-1.6-3.6,0-7.8,3.5-9.4h0c3.6-1.6,7.8,0,9.4,3.5h0c1.6,3.5,0,7.8-3.5,9.4h0c-1,.5-2,.7-3,.7h0c-2.7,0-5.3-1.5-6.5-4.1h0ZM727.6,655.9c-3.5-1.6-5.1-5.8-3.5-9.4h0c1.6-3.6,5.8-5.1,9.4-3.5h0c3.6,1.6,5.1,5.8,3.5,9.4h0c-1.2,2.6-3.8,4.2-6.5,4.2h0c-1,0-2-.2-2.9-.6h0ZM667.6,642.5c-.5-3.9,2.1-7.5,6-8h0c3.9-.6,7.5,2.1,8,6h0c.5,3.9-2.1,7.5-6,8h-1c-3.5,0-6.5-2.5-7-6.1h0ZM702.2,648.5c-3.9-.5-6.6-4.1-6-8h0c.5-3.9,4.1-6.6,8-6h0c3.9.5,6.6,4.1,6,8h0c-.5,3.5-3.5,6.1-7,6.1h-1Z"/>
    <circle class="st5" cx="585" cy="640.2" r="105.2"/>
    <circle class="st5" cx="1048.7" cy="940" r="105.2" transform="translate(-357.5 1016.9) rotate(-45)"/>
  </g>
  <rect class="st2" width="1814.2" height="1020.5"/>
</svg>