<?xml version="1.0" encoding="UTF-8"?>
<svg id="_レイヤー_1" xmlns="http://www.w3.org/2000/svg" version="1.1" viewBox="0 0 1814.2 619">
  <!-- Generator: Adobe Illustrator 30.3.0, SVG Export Plug-In . SVG Version: 2.1.3 Build 182)  -->
  <defs>
    <style>
      .st0 {
        stroke-width: 8.5px;
      }

      .st0, .st1, .st2, .st3, .st4 {
        fill: none;
      }

      .st0, .st2 {
        stroke-miterlimit: 10;
      }

      .st0, .st2, .st3, .st4 {
        stroke: #fff;
      }

      .st1, .st5 {
        opacity: .1;
      }

      .st6 {
        fill: #fff;
      }

      .st2 {
        stroke-width: 5.7px;
      }

      .st3 {
        stroke-width: 2.8px;
      }

      .st3, .st4 {
        stroke-miterlimit: 10;
      }

      .st4 {
        stroke-width: 11px;
      }
    </style>
  </defs>
  <g class="st5">
    <circle class="st2" cx="1722.5" cy="446.8" r="105.2"/>
    <circle class="st3" cx="1468.2" cy="388.9" r="259.7"/>
    <circle class="st0" cx="435.3" cy="535.8" r="287.8"/>
    <g>
      <path class="st6" d="M292.7,52.2c-3.3,3.3-8.6,3.3-12,0-3.3-3.3-3.3-8.7,0-12s8.7-3.3,12,0,3.3,8.7,0,12Z"/>
      <path class="st6" d="M316.6,76.1c-3.3,3.3-8.7,3.3-12,0s-3.3-8.7,0-12,8.7-3.3,12,0,3.3,8.7,0,12Z"/>
      <path class="st6" d="M340.5,100c-3.3,3.3-8.7,3.3-12,0s-3.3-8.7,0-12,8.7-3.3,12,0,3.3,8.7,0,12Z"/>
      <path class="st6" d="M364.4,123.9c-3.3,3.3-8.7,3.3-12,0s-3.3-8.7,0-12c3.3-3.3,8.7-3.3,12,0s3.3,8.7,0,12Z"/>
      <path class="st6" d="M388.4,147.9c-3.3,3.3-8.7,3.3-12,0s-3.3-8.7,0-12c3.3-3.3,8.7-3.3,12,0s3.3,8.7,0,12Z"/>
      <path class="st6" d="M220.9,28.2c-3.3,3.3-8.6,3.3-12,0-3.3-3.3-3.3-8.7,0-12s8.6-3.3,12,0c3.3,3.3,3.3,8.7,0,12Z"/>
      <path class="st6" d="M244.8,52.2c-3.3,3.3-8.7,3.3-12,0s-3.3-8.7,0-12,8.7-3.3,12,0,3.3,8.7,0,12Z"/>
      <path class="st6" d="M268.8,76.1c-3.3,3.3-8.7,3.3-12,0-3.3-3.3-3.3-8.7,0-12,3.3-3.3,8.7-3.3,12,0s3.3,8.7,0,12Z"/>
      <path class="st6" d="M292.7,100c-3.3,3.3-8.6,3.3-12,0-3.3-3.3-3.3-8.7,0-12s8.7-3.3,12,0,3.3,8.7,0,12Z"/>
      <path class="st6" d="M316.6,123.9c-3.3,3.3-8.7,3.3-12,0s-3.3-8.7,0-12c3.3-3.3,8.7-3.3,12,0s3.3,8.7,0,12Z"/>
      <path class="st6" d="M340.5,147.9c-3.3,3.3-8.7,3.3-12,0s-3.3-8.7,0-12c3.3-3.3,8.7-3.3,12,0s3.3,8.7,0,12Z"/>
      <path class="st6" d="M364.4,171.8c-3.3,3.3-8.7,3.3-12,0s-3.3-8.7,0-12c3.3-3.3,8.7-3.3,12,0s3.3,8.7,0,12Z"/>
      <path class="st6" d="M388.4,195.7c-3.3,3.3-8.7,3.3-12,0s-3.3-8.7,0-12c3.3-3.3,8.7-3.3,12,0s3.3,8.7,0,12Z"/>
      <path class="st6" d="M412.3,219.6c-3.3,3.3-8.7,3.3-12,0s-3.3-8.7,0-12c3.3-3.3,8.7-3.3,12,0s3.3,8.7,0,12Z"/>
      <path class="st6" d="M173.1,28.2c-3.3,3.3-8.7,3.3-12,0s-3.3-8.7,0-12,8.7-3.3,12,0,3.3,8.7,0,12Z"/>
      <path class="st6" d="M197,52.2c-3.3,3.3-8.7,3.3-12,0s-3.3-8.7,0-12,8.7-3.3,12,0,3.3,8.7,0,12Z"/>
      <path class="st6" d="M220.9,76.1c-3.3,3.3-8.6,3.3-12,0-3.3-3.3-3.3-8.7,0-12s8.6-3.3,12,0c3.3,3.3,3.3,8.7,0,12Z"/>
      <path class="st6" d="M244.8,100c-3.3,3.3-8.7,3.3-12,0s-3.3-8.7,0-12,8.7-3.3,12,0,3.3,8.7,0,12Z"/>
      <path class="st6" d="M268.8,123.9c-3.3,3.3-8.7,3.3-12,0s-3.3-8.7,0-12c3.3-3.3,8.7-3.3,12,0s3.3,8.7,0,12Z"/>
      <path class="st6" d="M292.7,147.9c-3.3,3.3-8.6,3.3-12,0-3.3-3.3-3.3-8.7,0-12,3.3-3.3,8.7-3.3,12,0s3.3,8.7,0,12Z"/>
      <path class="st6" d="M316.6,171.8c-3.3,3.3-8.7,3.3-12,0s-3.3-8.7,0-12c3.3-3.3,8.7-3.3,12,0s3.3,8.7,0,12Z"/>
      <path class="st6" d="M340.5,195.7c-3.3,3.3-8.7,3.3-12,0s-3.3-8.7,0-12c3.3-3.3,8.7-3.3,12,0s3.3,8.7,0,12Z"/>
      <path class="st6" d="M364.4,219.6c-3.3,3.3-8.7,3.3-12,0s-3.3-8.7,0-12c3.3-3.3,8.7-3.3,12,0s3.3,8.7,0,12Z"/>
      <path class="st6" d="M388.4,243.5c-3.3,3.3-8.7,3.3-12,0s-3.3-8.7,0-12c3.3-3.3,8.7-3.3,12,0s3.3,8.7,0,12Z"/>
      <path class="st6" d="M412.3,267.5c-3.3,3.3-8.7,3.3-12,0s-3.3-8.7,0-12c3.3-3.3,8.7-3.3,12,0s3.3,8.7,0,12Z"/>
      <path class="st6" d="M125.2,28.2c-3.3,3.3-8.7,3.3-12,0-3.3-3.3-3.3-8.7,0-12s8.7-3.3,12,0,3.3,8.7,0,12Z"/>
      <path class="st6" d="M149.1,52.2c-3.3,3.3-8.7,3.3-12,0s-3.3-8.7,0-12,8.7-3.3,12,0,3.3,8.7,0,12Z"/>
      <path class="st6" d="M173.1,76.1c-3.3,3.3-8.7,3.3-12,0s-3.3-8.7,0-12,8.7-3.3,12,0,3.3,8.7,0,12Z"/>
      <path class="st6" d="M197,100c-3.3,3.3-8.7,3.3-12,0s-3.3-8.7,0-12,8.7-3.3,12,0,3.3,8.7,0,12Z"/>
      <path class="st6" d="M220.9,123.9c-3.3,3.3-8.6,3.3-12,0-3.3-3.3-3.3-8.7,0-12,3.3-3.3,8.6-3.3,12,0,3.3,3.3,3.3,8.7,0,12Z"/>
      <path class="st6" d="M244.8,147.9c-3.3,3.3-8.7,3.3-12,0s-3.3-8.7,0-12,8.7-3.3,12,0,3.3,8.7,0,12Z"/>
      <path class="st6" d="M268.8,171.8c-3.3,3.3-8.7,3.3-12,0s-3.3-8.7,0-12c3.3-3.3,8.7-3.3,12,0s3.3,8.7,0,12Z"/>
      <path class="st6" d="M292.7,195.7c-3.3,3.3-8.6,3.3-12,0-3.3-3.3-3.3-8.7,0-12,3.3-3.3,8.7-3.3,12,0s3.3,8.7,0,12Z"/>
      <path class="st6" d="M316.6,219.6c-3.3,3.3-8.7,3.3-12,0s-3.3-8.7,0-12c3.3-3.3,8.7-3.3,12,0s3.3,8.7,0,12Z"/>
      <path class="st6" d="M340.5,243.5c-3.3,3.3-8.7,3.3-12,0s-3.3-8.7,0-12c3.3-3.3,8.7-3.3,12,0s3.3,8.7,0,12Z"/>
      <path class="st6" d="M364.4,267.5c-3.3,3.3-8.7,3.3-12,0s-3.3-8.7,0-12c3.3-3.3,8.7-3.3,12,0s3.3,8.7,0,12Z"/>
      <path class="st6" d="M388.4,291.4c-3.3,3.3-8.7,3.3-12,0s-3.3-8.7,0-12c3.3-3.3,8.7-3.3,12,0s3.3,8.7,0,12Z"/>
      <path class="st6" d="M412.3,315.3c-3.3,3.3-8.7,3.3-12,0s-3.3-8.7,0-12c3.3-3.3,8.7-3.3,12,0s3.3,8.7,0,12Z"/>
      <path class="st6" d="M101.3,52.2c-3.3,3.3-8.7,3.3-12,0-3.3-3.3-3.3-8.7,0-12s8.7-3.3,12,0,3.3,8.7,0,12Z"/>
      <path class="st6" d="M125.2,76.1c-3.3,3.3-8.7,3.3-12,0-3.3-3.3-3.3-8.7,0-12s8.7-3.3,12,0,3.3,8.7,0,12Z"/>
      <path class="st6" d="M149.1,100c-3.3,3.3-8.7,3.3-12,0s-3.3-8.7,0-12,8.7-3.3,12,0,3.3,8.7,0,12Z"/>
      <circle class="st6" cx="167.1" cy="118" r="8.5"/>
      <path class="st6" d="M197,147.9c-3.3,3.3-8.7,3.3-12,0s-3.3-8.7,0-12,8.7-3.3,12,0,3.3,8.7,0,12Z"/>
      <path class="st6" d="M220.9,171.8c-3.3,3.3-8.6,3.3-12,0-3.3-3.3-3.3-8.7,0-12,3.3-3.3,8.6-3.3,12,0,3.3,3.3,3.3,8.7,0,12Z"/>
      <circle class="st6" cx="238.8" cy="189.7" r="8.5"/>
      <path class="st6" d="M268.8,219.6c-3.3,3.3-8.7,3.3-12,0-3.3-3.3-3.3-8.7,0-12,3.3-3.3,8.7-3.3,12,0s3.3,8.7,0,12Z"/>
      <path class="st6" d="M292.7,243.5c-3.3,3.3-8.6,3.3-12,0-3.3-3.3-3.3-8.7,0-12,3.3-3.3,8.7-3.3,12,0s3.3,8.7,0,12Z"/>
      <path class="st6" d="M316.6,267.5c-3.3,3.3-8.7,3.3-12,0s-3.3-8.7,0-12c3.3-3.3,8.7-3.3,12,0s3.3,8.7,0,12Z"/>
      <path class="st6" d="M340.5,291.4c-3.3,3.3-8.7,3.3-12,0s-3.3-8.7,0-12c3.3-3.3,8.7-3.3,12,0s3.3,8.7,0,12Z"/>
      <path class="st6" d="M364.4,315.3c-3.3,3.3-8.7,3.3-12,0s-3.3-8.7,0-12c3.3-3.3,8.7-3.3,12,0s3.3,8.7,0,12Z"/>
      <path class="st6" d="M388.4,339.2c-3.3,3.3-8.7,3.3-12,0s-3.3-8.7,0-12c3.3-3.3,8.7-3.3,12,0s3.3,8.7,0,12Z"/>
      <path class="st6" d="M53.5,52.2c-3.3,3.3-8.7,3.3-12,0s-3.3-8.7,0-12,8.6-3.3,12,0c3.3,3.3,3.3,8.7,0,12Z"/>
      <path class="st6" d="M77.4,76.1c-3.3,3.3-8.7,3.3-12,0-3.3-3.3-3.3-8.7,0-12,3.3-3.3,8.7-3.3,12,0,3.3,3.3,3.3,8.7,0,12Z"/>
      <path class="st6" d="M101.3,100c-3.3,3.3-8.7,3.3-12,0-3.3-3.3-3.3-8.7,0-12s8.7-3.3,12,0,3.3,8.7,0,12Z"/>
      <path class="st6" d="M125.2,123.9c-3.3,3.3-8.7,3.3-12,0-3.3-3.3-3.3-8.7,0-12,3.3-3.3,8.7-3.3,12,0s3.3,8.7,0,12Z"/>
      <path class="st6" d="M149.1,147.9c-3.3,3.3-8.7,3.3-12,0s-3.3-8.7,0-12c3.3-3.3,8.7-3.3,12,0s3.3,8.7,0,12Z"/>
      <path class="st6" d="M173.1,171.8c-3.3,3.3-8.7,3.3-12,0s-3.3-8.7,0-12c3.3-3.3,8.7-3.3,12,0s3.3,8.7,0,12Z"/>
      <path class="st6" d="M197,195.7c-3.3,3.3-8.7,3.3-12,0s-3.3-8.7,0-12,8.7-3.3,12,0,3.3,8.7,0,12Z"/>
      <path class="st6" d="M220.9,219.6c-3.3,3.3-8.6,3.3-12,0-3.3-3.3-3.3-8.7,0-12,3.3-3.3,8.6-3.3,12,0,3.3,3.3,3.3,8.7,0,12Z"/>
      <path class="st6" d="M244.8,243.5c-3.3,3.3-8.7,3.3-12,0s-3.3-8.7,0-12c3.3-3.3,8.7-3.3,12,0s3.3,8.7,0,12Z"/>
      <path class="st6" d="M268.8,267.5c-3.3,3.3-8.7,3.3-12,0-3.3-3.3-3.3-8.7,0-12,3.3-3.3,8.7-3.3,12,0s3.3,8.7,0,12Z"/>
      <path class="st6" d="M292.7,291.4c-3.3,3.3-8.6,3.3-12,0-3.3-3.3-3.3-8.7,0-12,3.3-3.3,8.7-3.3,12,0s3.3,8.7,0,12Z"/>
      <path class="st6" d="M316.6,315.3c-3.3,3.3-8.7,3.3-12,0s-3.3-8.7,0-12c3.3-3.3,8.7-3.3,12,0s3.3,8.7,0,12Z"/>
      <path class="st6" d="M340.5,339.2c-3.3,3.3-8.7,3.3-12,0s-3.3-8.7,0-12c3.3-3.3,8.7-3.3,12,0s3.3,8.7,0,12Z"/>
      <path class="st6" d="M364.4,363.2c-3.3,3.3-8.7,3.3-12,0s-3.3-8.7,0-12c3.3-3.3,8.7-3.3,12,0s3.3,8.7,0,12Z"/>
      <path class="st6" d="M388.4,387.1c-3.3,3.3-8.7,3.3-12,0s-3.3-8.7,0-12,8.7-3.3,12,0,3.3,8.7,0,12Z"/>
      <path class="st6" d="M29.5,76.1c-3.3,3.3-8.7,3.3-12,0-3.3-3.3-3.3-8.7,0-12,3.3-3.3,8.7-3.3,12,0s3.3,8.7,0,12Z"/>
      <path class="st6" d="M53.5,100c-3.3,3.3-8.7,3.3-12,0s-3.3-8.7,0-12,8.6-3.3,12,0c3.3,3.3,3.3,8.7,0,12Z"/>
      <path class="st6" d="M77.4,123.9c-3.3,3.3-8.7,3.3-12,0-3.3-3.3-3.3-8.7,0-12,3.3-3.3,8.7-3.3,12,0,3.3,3.3,3.3,8.7,0,12Z"/>
      <path class="st6" d="M101.3,147.9c-3.3,3.3-8.7,3.3-12,0-3.3-3.3-3.3-8.7,0-12,3.3-3.3,8.7-3.3,12,0s3.3,8.7,0,12Z"/>
      <path class="st6" d="M125.2,171.8c-3.3,3.3-8.7,3.3-12,0-3.3-3.3-3.3-8.7,0-12,3.3-3.3,8.7-3.3,12,0s3.3,8.7,0,12Z"/>
      <path class="st6" d="M149.1,195.7c-3.3,3.3-8.7,3.3-12,0s-3.3-8.7,0-12c3.3-3.3,8.7-3.3,12,0s3.3,8.7,0,12Z"/>
      <path class="st6" d="M173.1,219.6c-3.3,3.3-8.7,3.3-12,0s-3.3-8.7,0-12c3.3-3.3,8.7-3.3,12,0s3.3,8.7,0,12Z"/>
      <path class="st6" d="M197,243.5c-3.3,3.3-8.7,3.3-12,0s-3.3-8.7,0-12,8.7-3.3,12,0,3.3,8.7,0,12Z"/>
      <path class="st6" d="M220.9,267.5c-3.3,3.3-8.6,3.3-12,0-3.3-3.3-3.3-8.7,0-12,3.3-3.3,8.6-3.3,12,0,3.3,3.3,3.3,8.7,0,12Z"/>
      <path class="st6" d="M244.8,291.4c-3.3,3.3-8.7,3.3-12,0s-3.3-8.7,0-12c3.3-3.3,8.7-3.3,12,0s3.3,8.7,0,12Z"/>
      <path class="st6" d="M268.8,315.3c-3.3,3.3-8.7,3.3-12,0-3.3-3.3-3.3-8.7,0-12,3.3-3.3,8.7-3.3,12,0s3.3,8.7,0,12Z"/>
      <path class="st6" d="M292.7,339.2c-3.3,3.3-8.6,3.3-12,0-3.3-3.3-3.3-8.7,0-12,3.3-3.3,8.7-3.3,12,0s3.3,8.7,0,12Z"/>
      <path class="st6" d="M316.6,363.2c-3.3,3.3-8.7,3.3-12,0s-3.3-8.7,0-12c3.3-3.3,8.7-3.3,12,0s3.3,8.7,0,12Z"/>
      <path class="st6" d="M340.5,387.1c-3.3,3.3-8.7,3.3-12,0s-3.3-8.7,0-12c3.3-3.3,8.7-3.3,12,0s3.3,8.7,0,12Z"/>
      <path class="st6" d="M364.4,411c-3.3,3.3-8.7,3.3-12,0s-3.3-8.7,0-12c3.3-3.3,8.7-3.3,12,0s3.3,8.7,0,12Z"/>
      <path class="st6" d="M5.6,100c-3.3,3.3-8.7,3.3-12,0-3.3-3.3-3.3-8.7,0-12,3.3-3.3,8.7-3.3,12,0,3.3,3.3,3.3,8.7,0,12Z"/>
      <path class="st6" d="M29.5,123.9c-3.3,3.3-8.7,3.3-12,0s-3.3-8.7,0-12c3.3-3.3,8.7-3.3,12,0s3.3,8.7,0,12Z"/>
      <path class="st6" d="M53.5,147.9c-3.3,3.3-8.7,3.3-12,0s-3.3-8.7,0-12c3.3-3.3,8.6-3.3,12,0,3.3,3.3,3.3,8.7,0,12Z"/>
      <path class="st6" d="M77.4,171.8c-3.3,3.3-8.7,3.3-12,0-3.3-3.3-3.3-8.7,0-12,3.3-3.3,8.7-3.3,12,0,3.3,3.3,3.3,8.7,0,12Z"/>
      <path class="st6" d="M101.3,195.7c-3.3,3.3-8.7,3.3-12,0-3.3-3.3-3.3-8.7,0-12,3.3-3.3,8.7-3.3,12,0s3.3,8.7,0,12Z"/>
      <path class="st6" d="M125.2,219.6c-3.3,3.3-8.7,3.3-12,0-3.3-3.3-3.3-8.7,0-12,3.3-3.3,8.7-3.3,12,0s3.3,8.7,0,12Z"/>
      <path class="st6" d="M149.1,243.5c-3.3,3.3-8.7,3.3-12,0s-3.3-8.7,0-12c3.3-3.3,8.7-3.3,12,0s3.3,8.7,0,12Z"/>
      <path class="st6" d="M173.1,267.5c-3.3,3.3-8.7,3.3-12,0s-3.3-8.7,0-12c3.3-3.3,8.7-3.3,12,0s3.3,8.7,0,12Z"/>
      <path class="st6" d="M197,291.4c-3.3,3.3-8.7,3.3-12,0s-3.3-8.7,0-12c3.3-3.3,8.7-3.3,12,0s3.3,8.7,0,12Z"/>
      <path class="st6" d="M220.9,315.3c-3.3,3.3-8.6,3.3-12,0-3.3-3.3-3.3-8.7,0-12,3.3-3.3,8.6-3.3,12,0,3.3,3.3,3.3,8.7,0,12Z"/>
      <path class="st6" d="M244.8,339.2c-3.3,3.3-8.7,3.3-12,0s-3.3-8.7,0-12c3.3-3.3,8.7-3.3,12,0s3.3,8.7,0,12Z"/>
      <path class="st6" d="M268.8,363.2c-3.3,3.3-8.7,3.3-12,0-3.3-3.3-3.3-8.7,0-12,3.3-3.3,8.7-3.3,12,0s3.3,8.7,0,12Z"/>
      <path class="st6" d="M292.7,387.1c-3.3,3.3-8.6,3.3-12,0-3.3-3.3-3.3-8.7,0-12,3.3-3.3,8.7-3.3,12,0s3.3,8.7,0,12Z"/>
      <path class="st6" d="M316.6,411c-3.3,3.3-8.7,3.3-12,0s-3.3-8.7,0-12c3.3-3.3,8.7-3.3,12,0s3.3,8.7,0,12Z"/>
      <path class="st6" d="M340.5,434.9c-3.3,3.3-8.7,3.3-12,0s-3.3-8.7,0-12c3.3-3.3,8.7-3.3,12,0s3.3,8.7,0,12Z"/>
      <path class="st6" d="M5.6,147.9c-3.3,3.3-8.7,3.3-12,0-3.3-3.3-3.3-8.7,0-12,3.3-3.3,8.7-3.3,12,0,3.3,3.3,3.3,8.7,0,12Z"/>
      <path class="st6" d="M29.5,171.8c-3.3,3.3-8.7,3.3-12,0s-3.3-8.7,0-12c3.3-3.3,8.7-3.3,12,0s3.3,8.7,0,12Z"/>
      <path class="st6" d="M53.5,195.7c-3.3,3.3-8.7,3.3-12,0s-3.3-8.7,0-12c3.3-3.3,8.6-3.3,12,0,3.3,3.3,3.3,8.7,0,12Z"/>
      <path class="st6" d="M77.4,219.6c-3.3,3.3-8.7,3.3-12,0-3.3-3.3-3.3-8.7,0-12,3.3-3.3,8.7-3.3,12,0,3.3,3.3,3.3,8.7,0,12Z"/>
      <path class="st6" d="M101.3,243.5c-3.3,3.3-8.7,3.3-12,0-3.3-3.3-3.3-8.7,0-12,3.3-3.3,8.7-3.3,12,0s3.3,8.7,0,12Z"/>
      <path class="st6" d="M125.2,267.5c-3.3,3.3-8.7,3.3-12,0-3.3-3.3-3.3-8.7,0-12,3.3-3.3,8.7-3.3,12,0s3.3,8.7,0,12Z"/>
      <path class="st6" d="M149.1,291.4c-3.3,3.3-8.7,3.3-12,0s-3.3-8.7,0-12c3.3-3.3,8.7-3.3,12,0s3.3,8.7,0,12Z"/>
      <path class="st6" d="M173.1,315.3c-3.3,3.3-8.7,3.3-12,0s-3.3-8.7,0-12c3.3-3.3,8.7-3.3,12,0s3.3,8.7,0,12Z"/>
      <path class="st6" d="M197,339.2c-3.3,3.3-8.7,3.3-12,0s-3.3-8.7,0-12c3.3-3.3,8.7-3.3,12,0s3.3,8.7,0,12Z"/>
      <path class="st6" d="M220.9,363.2c-3.3,3.3-8.6,3.3-12,0-3.3-3.3-3.3-8.7,0-12,3.3-3.3,8.6-3.3,12,0,3.3,3.3,3.3,8.7,0,12Z"/>
      <path class="st6" d="M244.8,387.1c-3.3,3.3-8.7,3.3-12,0s-3.3-8.7,0-12c3.3-3.3,8.7-3.3,12,0s3.3,8.7,0,12Z"/>
      <path class="st6" d="M268.8,411c-3.3,3.3-8.7,3.3-12,0s-3.3-8.7,0-12c3.3-3.3,8.7-3.3,12,0s3.3,8.7,0,12Z"/>
      <path class="st6" d="M292.7,434.9c-3.3,3.3-8.6,3.3-12,0-3.3-3.3-3.3-8.7,0-12,3.3-3.3,8.7-3.3,12,0s3.3,8.7,0,12Z"/>
      <path class="st6" d="M316.6,458.8c-3.3,3.3-8.7,3.3-12,0s-3.3-8.7,0-12c3.3-3.3,8.7-3.3,12,0s3.3,8.7,0,12Z"/>
      <path class="st6" d="M5.6,195.7c-3.3,3.3-8.7,3.3-12,0-3.3-3.3-3.3-8.7,0-12,3.3-3.3,8.7-3.3,12,0,3.3,3.3,3.3,8.7,0,12Z"/>
      <path class="st6" d="M29.5,219.6c-3.3,3.3-8.7,3.3-12,0-3.3-3.3-3.3-8.7,0-12,3.3-3.3,8.7-3.3,12,0s3.3,8.7,0,12Z"/>
      <path class="st6" d="M53.5,243.5c-3.3,3.3-8.7,3.3-12,0s-3.3-8.7,0-12c3.3-3.3,8.6-3.3,12,0,3.3,3.3,3.3,8.7,0,12Z"/>
      <path class="st6" d="M77.4,267.5c-3.3,3.3-8.7,3.3-12,0-3.3-3.3-3.3-8.7,0-12,3.3-3.3,8.7-3.3,12,0,3.3,3.3,3.3,8.7,0,12Z"/>
      <path class="st6" d="M101.3,291.4c-3.3,3.3-8.7,3.3-12,0-3.3-3.3-3.3-8.7,0-12,3.3-3.3,8.7-3.3,12,0s3.3,8.7,0,12Z"/>
      <path class="st6" d="M125.2,315.3c-3.3,3.3-8.7,3.3-12,0-3.3-3.3-3.3-8.7,0-12,3.3-3.3,8.7-3.3,12,0s3.3,8.7,0,12Z"/>
      <path class="st6" d="M149.1,339.2c-3.3,3.3-8.7,3.3-12,0s-3.3-8.7,0-12c3.3-3.3,8.7-3.3,12,0s3.3,8.7,0,12Z"/>
      <path class="st6" d="M173.1,363.2c-3.3,3.3-8.7,3.3-12,0s-3.3-8.7,0-12c3.3-3.3,8.7-3.3,12,0s3.3,8.7,0,12Z"/>
      <path class="st6" d="M197,387.1c-3.3,3.3-8.7,3.3-12,0s-3.3-8.7,0-12c3.3-3.3,8.7-3.3,12,0s3.3,8.7,0,12Z"/>
      <path class="st6" d="M220.9,411c-3.3,3.3-8.6,3.3-12,0-3.3-3.3-3.3-8.7,0-12,3.3-3.3,8.6-3.3,12,0,3.3,3.3,3.3,8.7,0,12Z"/>
      <path class="st6" d="M244.8,434.9c-3.3,3.3-8.7,3.3-12,0s-3.3-8.7,0-12c3.3-3.3,8.7-3.3,12,0s3.3,8.7,0,12Z"/>
      <path class="st6" d="M268.8,458.8c-3.3,3.3-8.7,3.3-12,0-3.3-3.3-3.3-8.7,0-12,3.3-3.3,8.7-3.3,12,0s3.3,8.7,0,12Z"/>
      <path class="st6" d="M292.7,482.8c-3.3,3.3-8.6,3.3-12,0-3.3-3.3-3.3-8.7,0-12,3.3-3.3,8.7-3.3,12,0s3.3,8.7,0,12Z"/>
      <path class="st6" d="M5.6,243.5c-3.3,3.3-8.7,3.3-12,0-3.3-3.3-3.3-8.7,0-12,3.3-3.3,8.7-3.3,12,0,3.3,3.3,3.3,8.7,0,12Z"/>
      <path class="st6" d="M29.5,267.5c-3.3,3.3-8.7,3.3-12,0-3.3-3.3-3.3-8.7,0-12,3.3-3.3,8.7-3.3,12,0s3.3,8.7,0,12Z"/>
      <path class="st6" d="M53.5,291.4c-3.3,3.3-8.7,3.3-12,0s-3.3-8.7,0-12c3.3-3.3,8.6-3.3,12,0,3.3,3.3,3.3,8.7,0,12Z"/>
      <path class="st6" d="M77.4,315.3c-3.3,3.3-8.7,3.3-12,0-3.3-3.3-3.3-8.7,0-12,3.3-3.3,8.7-3.3,12,0,3.3,3.3,3.3,8.7,0,12Z"/>
      <path class="st6" d="M101.3,339.2c-3.3,3.3-8.7,3.3-12,0-3.3-3.3-3.3-8.7,0-12,3.3-3.3,8.7-3.3,12,0s3.3,8.7,0,12Z"/>
      <path class="st6" d="M125.2,363.2c-3.3,3.3-8.7,3.3-12,0s-3.3-8.7,0-12c3.3-3.3,8.7-3.3,12,0s3.3,8.7,0,12Z"/>
      <path class="st6" d="M149.1,387.1c-3.3,3.3-8.7,3.3-12,0s-3.3-8.7,0-12c3.3-3.3,8.7-3.3,12,0s3.3,8.7,0,12Z"/>
      <path class="st6" d="M173.1,411c-3.3,3.3-8.7,3.3-12,0s-3.3-8.7,0-12c3.3-3.3,8.7-3.3,12,0s3.3,8.7,0,12Z"/>
      <path class="st6" d="M197,434.9c-3.3,3.3-8.7,3.3-12,0s-3.3-8.7,0-12c3.3-3.3,8.7-3.3,12,0s3.3,8.7,0,12Z"/>
      <path class="st6" d="M220.9,458.8c-3.3,3.3-8.6,3.3-12,0-3.3-3.3-3.3-8.7,0-12,3.3-3.3,8.6-3.3,12,0,3.3,3.3,3.3,8.7,0,12Z"/>
      <path class="st6" d="M244.8,482.8c-3.3,3.3-8.7,3.3-12,0s-3.3-8.7,0-12c3.3-3.3,8.7-3.3,12,0s3.3,8.7,0,12Z"/>
      <path class="st6" d="M5.6,291.4c-3.3,3.3-8.7,3.3-12,0-3.3-3.3-3.3-8.7,0-12,3.3-3.3,8.7-3.3,12,0,3.3,3.3,3.3,8.7,0,12Z"/>
      <path class="st6" d="M29.5,315.3c-3.3,3.3-8.7,3.3-12,0-3.3-3.3-3.3-8.7,0-12,3.3-3.3,8.7-3.3,12,0s3.3,8.7,0,12Z"/>
      <path class="st6" d="M53.5,339.2c-3.3,3.3-8.7,3.3-12,0s-3.3-8.7,0-12c3.3-3.3,8.6-3.3,12,0,3.3,3.3,3.3,8.7,0,12Z"/>
      <path class="st6" d="M77.4,363.2c-3.3,3.3-8.7,3.3-12,0s-3.3-8.7,0-12c3.3-3.3,8.7-3.3,12,0,3.3,3.3,3.3,8.7,0,12Z"/>
      <path class="st6" d="M101.3,387.1c-3.3,3.3-8.7,3.3-12,0-3.3-3.3-3.3-8.7,0-12,3.3-3.3,8.7-3.3,12,0s3.3,8.7,0,12Z"/>
      <path class="st6" d="M125.2,411c-3.3,3.3-8.7,3.3-12,0-3.3-3.3-3.3-8.7,0-12,3.3-3.3,8.7-3.3,12,0s3.3,8.7,0,12Z"/>
      <path class="st6" d="M149.1,434.9c-3.3,3.3-8.7,3.3-12,0s-3.3-8.7,0-12c3.3-3.3,8.7-3.3,12,0s3.3,8.7,0,12Z"/>
      <path class="st6" d="M173.1,458.8c-3.3,3.3-8.7,3.3-12,0s-3.3-8.7,0-12c3.3-3.3,8.7-3.3,12,0s3.3,8.7,0,12Z"/>
      <path class="st6" d="M197,482.8c-3.3,3.3-8.7,3.3-12,0s-3.3-8.7,0-12c3.3-3.3,8.7-3.3,12,0s3.3,8.7,0,12Z"/>
      <path class="st6" d="M220.9,506.7c-3.3,3.3-8.6,3.3-12,0-3.3-3.3-3.3-8.7,0-12,3.3-3.3,8.6-3.3,12,0,3.3,3.3,3.3,8.7,0,12Z"/>
      <path class="st6" d="M5.6,339.2c-3.3,3.3-8.7,3.3-12,0-3.3-3.3-3.3-8.7,0-12,3.3-3.3,8.7-3.3,12,0,3.3,3.3,3.3,8.7,0,12Z"/>
      <path class="st6" d="M29.5,363.2c-3.3,3.3-8.7,3.3-12,0-3.3-3.3-3.3-8.7,0-12,3.3-3.3,8.7-3.3,12,0s3.3,8.7,0,12Z"/>
      <path class="st6" d="M53.5,387.1c-3.3,3.3-8.7,3.3-12,0s-3.3-8.7,0-12c3.3-3.3,8.6-3.3,12,0,3.3,3.3,3.3,8.7,0,12Z"/>
      <path class="st6" d="M77.4,411c-3.3,3.3-8.7,3.3-12,0s-3.3-8.7,0-12c3.3-3.3,8.7-3.3,12,0,3.3,3.3,3.3,8.7,0,12Z"/>
      <path class="st6" d="M101.3,434.9c-3.3,3.3-8.7,3.3-12,0-3.3-3.3-3.3-8.7,0-12,3.3-3.3,8.7-3.3,12,0s3.3,8.7,0,12Z"/>
      <path class="st6" d="M125.2,458.8c-3.3,3.3-8.7,3.3-12,0s-3.3-8.7,0-12c3.3-3.3,8.7-3.3,12,0s3.3,8.7,0,12Z"/>
      <path class="st6" d="M149.1,482.8c-3.3,3.3-8.7,3.3-12,0s-3.3-8.7,0-12c3.3-3.3,8.7-3.3,12,0s3.3,8.7,0,12Z"/>
      <path class="st6" d="M173.1,506.7c-3.3,3.3-8.7,3.3-12,0s-3.3-8.7,0-12c3.3-3.3,8.7-3.3,12,0s3.3,8.7,0,12Z"/>
      <path class="st6" d="M5.6,387.1c-3.3,3.3-8.7,3.3-12,0-3.3-3.3-3.3-8.7,0-12,3.3-3.3,8.7-3.3,12,0,3.3,3.3,3.3,8.7,0,12Z"/>
      <path class="st6" d="M29.5,411c-3.3,3.3-8.7,3.3-12,0s-3.3-8.7,0-12c3.3-3.3,8.7-3.3,12,0s3.3,8.7,0,12Z"/>
      <path class="st6" d="M53.5,434.9c-3.3,3.3-8.7,3.3-12,0s-3.3-8.7,0-12c3.3-3.3,8.6-3.3,12,0,3.3,3.3,3.3,8.7,0,12Z"/>
      <path class="st6" d="M77.4,458.8c-3.3,3.3-8.7,3.3-12,0s-3.3-8.7,0-12c3.3-3.3,8.7-3.3,12,0,3.3,3.3,3.3,8.7,0,12Z"/>
      <path class="st6" d="M101.3,482.8c-3.3,3.3-8.7,3.3-12,0-3.3-3.3-3.3-8.7,0-12,3.3-3.3,8.7-3.3,12,0s3.3,8.7,0,12Z"/>
      <path class="st6" d="M125.2,506.7c-3.3,3.3-8.7,3.3-12,0-3.3-3.3-3.3-8.7,0-12,3.3-3.3,8.7-3.3,12,0s3.3,8.7,0,12Z"/>
      <path class="st6" d="M5.6,434.9c-3.3,3.3-8.7,3.3-12,0-3.3-3.3-3.3-8.7,0-12,3.3-3.3,8.7-3.3,12,0,3.3,3.3,3.3,8.7,0,12Z"/>
      <path class="st6" d="M29.5,458.8c-3.3,3.3-8.7,3.3-12,0-3.3-3.3-3.3-8.7,0-12,3.3-3.3,8.7-3.3,12,0s3.3,8.7,0,12Z"/>
      <path class="st6" d="M53.5,482.8c-3.3,3.3-8.7,3.3-12,0s-3.3-8.7,0-12c3.3-3.3,8.6-3.3,12,0,3.3,3.3,3.3,8.7,0,12Z"/>
    </g>
    <circle class="st4" cx="1417.3" cy="208.2" r="179"/>
    <g>
      <path class="st6" d="M1705.9,273.9c-10.7,10.7-17.3,24-19.7,37.9l57.6-57.6c-13.9,2.4-27.2,9-37.9,19.7h0Z"/>
      <path class="st6" d="M1762.8,253.5l-77.3,77.3c.5,5.1,1.5,10.2,3.1,15.1l89.3-89.3c-4.9-1.6-10-2.7-15.1-3.1h0Z"/>
      <path class="st6" d="M1790.6,262.2l-96.4,96.4c2.1,3.8,4.6,7.4,7.4,10.8l99.8-99.8c-3.4-2.8-7-5.3-10.8-7.4h0Z"/>
      <path class="st6" d="M1810.5,278.7l-99.8,99.8c3.4,2.8,7,5.3,10.8,7.4l96.4-96.4c-2.1-3.8-4.6-7.4-7.4-10.8h0Z"/>
      <path class="st6" d="M1823.4,302.2l-89.3,89.3c4.9,1.6,10,2.7,15.1,3.1l77.3-77.3c-.5-5.1-1.5-10.2-3.1-15.1h0Z"/>
      <path class="st6" d="M1825.8,336.3l-57.6,57.6c13.9-2.4,27.2-9,37.9-19.7s17.3-24,19.7-37.9h0Z"/>
    </g>
    <path class="st6" d="M1247.2,714.5h0c-5.6-.8-9.5-6-8.7-11.6h0c.8-5.6,6-9.5,11.6-8.7h0c5.6.8,9.5,5.9,8.7,11.5h0c-.7,5.1-5.1,8.8-10.1,8.8h0c-.5,0-1,0-1.4,0h0ZM1279.7,705.7c-.8-5.6,3.1-10.8,8.7-11.6h0c5.6-.8,10.8,3.1,11.6,8.7h0c.8,5.6-3.1,10.8-8.7,11.6h0c-.5,0-1,0-1.4,0h0c-5,0-9.4-3.7-10.1-8.8h0ZM1204.8,702.1c-5.1-2.3-7.4-8.4-5.1-13.5h0c2.3-5.1,8.4-7.4,13.5-5.1h0c5.1,2.3,7.4,8.4,5.1,13.5h0c-1.7,3.8-5.4,6-9.3,6h0c-1.4,0-2.9-.3-4.2-.9ZM1320.1,696.9c-2.3-5.1,0-11.2,5-13.5h0c5.1-2.3,11.2,0,13.6,5h0c2.3,5.1,0,11.2-5,13.6h0c-1.4.6-2.8.9-4.2.9h0c-3.9,0-7.6-2.2-9.3-6h0ZM1167.7,678.2c-4.3-3.7-4.7-10.1-1-14.4h0c3.7-4.3,10.1-4.7,14.4-1h0c4.3,3.7,4.7,10.2,1,14.4h0c-2,2.3-4.9,3.5-7.7,3.5h0c-2.4,0-4.8-.8-6.7-2.5ZM1356.3,677.1c-3.7-4.3-3.2-10.7,1-14.4h0c4.3-3.7,10.7-3.2,14.4,1h0c3.7,4.3,3.2,10.7-1,14.4h0c-1.9,1.7-4.3,2.5-6.7,2.5h0c-2.9,0-5.7-1.2-7.7-3.5h0ZM1138.8,644.9h0c-3.1-4.7-1.7-11.1,3-14.1h0c4.7-3.1,11.1-1.7,14.1,3.1h0c3,4.7,1.7,11.1-3.1,14.1h0c-1.7,1.1-3.6,1.6-5.5,1.6h0c-3.3,0-6.6-1.6-8.6-4.7h0ZM1385.5,647.8c-4.7-3-6.1-9.4-3.1-14.1h0c3.1-4.7,9.4-6.1,14.1-3.1h0c4.7,3.1,6.1,9.4,3.1,14.1h0c-1.9,3-5.2,4.7-8.6,4.7h0c-1.9,0-3.8-.5-5.5-1.6h0ZM1120.4,604.8c-1.6-5.4,1.5-11.1,6.9-12.7h0c5.4-1.6,11.1,1.5,12.7,6.9h0c1.6,5.4-1.5,11.1-6.9,12.7h0c-1,.3-1.9.4-2.9.4h0c-4.4,0-8.5-2.9-9.8-7.3h0ZM1405.3,611.5c-5.4-1.6-8.5-7.2-6.9-12.7h0c1.6-5.4,7.3-8.5,12.7-6.9h0c5.4,1.6,8.5,7.2,6.9,12.7h0c-1.3,4.5-5.4,7.4-9.8,7.4h0c-.9,0-1.9-.1-2.9-.4h0ZM1114.1,561.1h0c0-5.7,4.6-10.2,10.2-10.2h0c5.7,0,10.2,4.6,10.2,10.2h0c0,5.6-4.6,10.2-10.2,10.2h0c-5.6,0-10.2-4.6-10.2-10.2h0ZM1403.8,561h0v-.3h0c0-5.6,4.6-10.2,10.2-10.2h0c5.6,0,10.2,4.6,10.2,10.2h0v.2h0v.2h0c0,5.6-4.6,10.2-10.2,10.2h0c-5.6,0-10.2-4.6-10.2-10.2h0ZM1127.2,530.1c-5.4-1.6-8.5-7.2-6.9-12.7h0c1.6-5.4,7.3-8.5,12.7-7h0c5.4,1.6,8.5,7.2,6.9,12.7h0c-1.3,4.5-5.4,7.4-9.8,7.4h0c-.9,0-1.9-.1-2.9-.4ZM1398.3,522.7h0c-1.6-5.4,1.5-11.1,6.9-12.7h0c5.4-1.6,11.1,1.5,12.7,6.9h0c1.6,5.4-1.5,11.1-6.9,12.7h0c-1,.3-1.9.4-2.9.4h0c-4.4,0-8.5-2.9-9.8-7.3h0ZM1141.7,491.4c-4.7-3-6.1-9.4-3.1-14.1h0c3-4.8,9.4-6.1,14.1-3.1h0c4.8,3,6.1,9.4,3.1,14.1h0c-2,3-5.2,4.7-8.6,4.7h0c-1.9,0-3.8-.5-5.5-1.6h0ZM1382.3,488c-3.1-4.7-1.7-11.1,3-14.1h0c4.7-3.1,11.1-1.7,14.1,3h0c3,4.7,1.7,11.1-3,14.1h0c-1.7,1.1-3.6,1.7-5.5,1.7h0c-3.3,0-6.6-1.7-8.6-4.7h0ZM1166.4,458.3c-3.7-4.2-3.2-10.7,1-14.4h0c4.3-3.7,10.7-3.2,14.4,1h0c3.7,4.2,3.2,10.7-1,14.4h0c-1.9,1.7-4.3,2.5-6.7,2.5h0c-2.9,0-5.7-1.2-7.7-3.5ZM1357.1,459.1c-4.3-3.7-4.7-10.2-1-14.4h0c3.7-4.3,10.1-4.7,14.4-1h0c4.3,3.7,4.7,10.1,1.1,14.4h0c-2,2.3-4.9,3.5-7.8,3.5h0c-2.4,0-4.7-.8-6.7-2.5h0ZM1199.5,433.5c-2.3-5.1,0-11.2,5-13.5h0c5.1-2.4,11.2-.1,13.6,5h0c2.3,5.1,0,11.2-5,13.5h0c-1.4.7-2.8.9-4.2.9h0c-3.9,0-7.6-2.2-9.3-6h0ZM1324.8,438.4c-5.1-2.3-7.4-8.4-5.1-13.5h0c2.3-5.1,8.4-7.4,13.5-5h0c5.1,2.3,7.4,8.4,5.1,13.5h0c-1.7,3.8-5.4,6-9.3,6h0c-1.4,0-2.8-.3-4.2-.9h0ZM1238.2,419.1c-.8-5.6,3.1-10.8,8.7-11.6h0c5.6-.8,10.8,3.1,11.6,8.7h0c.8,5.6-3.1,10.8-8.7,11.6h0c-.5,0-1,0-1.5,0h0c-5,0-9.4-3.7-10.1-8.8h0ZM1288.1,427.7c-5.6-.8-9.5-6-8.7-11.5h0c.8-5.6,6-9.5,11.6-8.7h0c5.6.8,9.5,6,8.7,11.5h0c-.7,5.1-5.1,8.8-10.1,8.8h0c-.5,0-1,0-1.4,0h0Z"/>
    <path class="st6" d="M673.8,445.9h0c-3.9-.5-6.6-4.1-6-8h0c.5-3.9,4.1-6.6,8-6h0c3.9.5,6.6,4.1,6,8h0c-.5,3.5-3.5,6.1-7,6.1h0c-.3,0-.7,0-1,0ZM696.3,439.8c-.5-3.9,2.1-7.5,6-8h0c3.9-.5,7.5,2.1,8,6h0c.5,3.9-2.1,7.5-6,8h0c-.3,0-.7,0-1,0h0c-3.5,0-6.5-2.5-7-6.1ZM644.4,437.3c-3.5-1.6-5.1-5.8-3.5-9.4h0c1.6-3.6,5.8-5.1,9.4-3.5h0c3.6,1.6,5.1,5.8,3.5,9.4h0c-1.2,2.6-3.8,4.2-6.5,4.2h0c-1,0-2-.2-2.9-.7ZM724.3,433.7c-1.6-3.6,0-7.8,3.5-9.4h0c3.6-1.6,7.8,0,9.4,3.5h0c1.6,3.6,0,7.8-3.5,9.4h0c-1,.4-2,.6-3,.6h0c-2.7,0-5.3-1.5-6.5-4.1h0ZM618.7,420.7c-3-2.6-3.3-7-.7-10h0c2.6-3,7-3.3,10-.7h0c3,2.6,3.3,7,.7,10h0c-1.4,1.6-3.4,2.5-5.4,2.5h0c-1.6,0-3.3-.6-4.6-1.7h0ZM749.4,420c-2.6-3-2.2-7.4.7-10h0c3-2.6,7.4-2.2,10,.7h0c2.5,3,2.2,7.4-.7,10h0c-1.3,1.2-3,1.7-4.7,1.7h0c-2,0-4-.8-5.4-2.4h0ZM598.6,397.6h0c-2.1-3.3-1.2-7.7,2.1-9.8h0c3.3-2.1,7.7-1.2,9.8,2.1h0c2.1,3.3,1.2,7.7-2.1,9.8h0c-1.2.8-2.5,1.1-3.8,1.1h0c-2.3,0-4.6-1.1-6-3.2h0ZM769.7,399.7c-3.3-2.1-4.2-6.5-2.1-9.8h0c2.1-3.3,6.5-4.2,9.8-2.1h0c3.3,2.1,4.2,6.5,2.1,9.8h0c-1.3,2.1-3.6,3.2-6,3.2h0c-1.3,0-2.6-.4-3.8-1.1ZM585.9,369.8c-1.1-3.8,1-7.7,4.8-8.8h0c3.8-1.1,7.7,1,8.8,4.8h0c1.1,3.8-1,7.7-4.8,8.8h0c-.7.2-1.3.3-2,.3h0c-3.1,0-5.9-2-6.8-5.1h0ZM783.4,374.5c-3.7-1.1-5.9-5-4.8-8.8h0c1.1-3.8,5-5.9,8.8-4.8h0c3.8,1.1,5.9,5,4.8,8.8h0c-.9,3.1-3.7,5.1-6.8,5.1h0c-.7,0-1.3,0-2-.3ZM581.5,339.6h0c0-3.9,3.2-7.1,7.1-7.1h0c3.9,0,7.1,3.2,7.1,7.1h0c0,3.9-3.2,7.1-7.1,7.1h0c-3.9,0-7.1-3.2-7.1-7.1h0ZM782.3,339.4h0v-.2h0c0-3.9,3.2-7.1,7.1-7.1h0c3.9,0,7.1,3.2,7.1,7.1h0v.2h0c0,3.9-3.2,7.1-7.1,7.1h0c-3.9,0-7.1-3.2-7.1-7.1h0ZM590.6,318.1c-3.8-1.1-5.9-5-4.8-8.8h0c1.1-3.8,5-5.9,8.8-4.8h0c3.8,1.1,5.9,5,4.8,8.8h0c-.9,3.1-3.7,5.1-6.8,5.1h0c-.7,0-1.3,0-2-.3h0ZM778.5,312.9h0c-1.1-3.8,1-7.7,4.8-8.8h0c3.8-1.1,7.7,1,8.8,4.8h0c1.1,3.8-1,7.7-4.8,8.8h0c-.7.2-1.3.3-2,.3h0c-3,0-5.9-2-6.8-5.1h0ZM600.6,291.2c-3.3-2.1-4.2-6.5-2.1-9.8h0c2.1-3.3,6.5-4.2,9.8-2.1h0c3.3,2.1,4.2,6.5,2.1,9.8h0c-1.4,2.1-3.6,3.3-6,3.3h0c-1.3,0-2.6-.4-3.8-1.1h0ZM767.5,288.8c-2.1-3.3-1.2-7.7,2.1-9.8h0c3.3-2.1,7.7-1.2,9.8,2.1h0c2.1,3.3,1.2,7.7-2.1,9.8h0c-1.2.8-2.5,1.2-3.8,1.2h0c-2.3,0-4.6-1.2-6-3.2h0ZM617.8,268.3c-2.6-3-2.2-7.4.7-10h0c3-2.6,7.4-2.2,10,.7h0c2.6,3,2.2,7.4-.7,10h0c-1.3,1.2-3,1.7-4.6,1.7h0c-2,0-4-.8-5.4-2.4h0ZM750,268.8c-3-2.6-3.3-7-.7-10h0c2.5-3,7-3.3,10-.7h0c3,2.5,3.3,7,.7,10h0c-1.4,1.6-3.4,2.5-5.4,2.5h0c-1.6,0-3.3-.6-4.6-1.7h0ZM640.7,251.1c-1.6-3.6,0-7.8,3.5-9.4h0c3.6-1.6,7.8,0,9.4,3.5h0c1.6,3.5,0,7.8-3.5,9.4h0c-1,.5-2,.7-3,.7h0c-2.7,0-5.3-1.5-6.5-4.1h0ZM727.6,254.5c-3.5-1.6-5.1-5.8-3.5-9.4h0c1.6-3.6,5.8-5.1,9.4-3.5h0c3.6,1.6,5.1,5.8,3.5,9.4h0c-1.2,2.6-3.8,4.2-6.5,4.2h0c-1,0-2-.2-2.9-.6ZM667.6,241.1c-.5-3.9,2.1-7.5,6-8h0c3.9-.6,7.5,2.1,8,6h0c.5,3.9-2.1,7.5-6,8h0c-.3,0-.7,0-1,0h0c-3.5,0-6.5-2.5-7-6.1ZM702.2,247c-3.9-.5-6.6-4.1-6-8h0c.5-3.9,4.1-6.6,8-6h0c3.9.5,6.6,4.1,6,8h0c-.5,3.5-3.5,6.1-7,6.1h0c-.3,0-.7,0-1,0h0Z"/>
    <circle class="st2" cx="585" cy="238.7" r="105.2"/>
    <circle class="st2" cx="1048.7" cy="538.5" r="105.2"/>
  </g>
  <rect class="st1" y="-401.5" width="1814.2" height="1020.5"/>
</svg>