<?xml version="1.0" encoding="UTF-8"?>
<svg id="_レイヤー_2" data-name="レイヤー 2" xmlns="http://www.w3.org/2000/svg" viewBox="0 0 209.57 214.06">
  <defs>
    <style>
      .cls-1 {
        fill: #c7cfd2;
      }

      .cls-2 {
        fill: #f08f69;
      }

      .cls-3 {
        fill: #705944;
      }

      .cls-4 {
        fill: #6f5843;
      }

      .cls-5 {
        fill: #fcfbfb;
      }

      .cls-6 {
        fill: #fdfcfc;
      }

      .cls-7 {
        fill: #6f5842;
      }

      .cls-8 {
        fill: #fad9c7;
      }

      .cls-9 {
        fill: #efebe8;
      }

      .cls-10 {
        fill: #d2cec6;
      }

      .cls-11 {
        fill: #70543e;
      }

      .cls-12 {
        fill: #6c5640;
      }

      .cls-13 {
        fill: #6e5742;
      }

      .cls-14 {
        fill: #6d5641;
      }

      .cls-15 {
        fill: #fdfdfd;
      }
    </style>
  </defs>
  <g id="_レイヤー_1-2" data-name="レイヤー 1">
    <g>
      <g>
        <path class="cls-2" d="M160.11,188.2c-1.34-.98-1.89-2.41-2.43-3.9-1.72-4.77-3.13-9.65-5.11-14.33-1.19-2.81-2.08-5.75-3.2-8.61-1.27-3.23-2.45-6.56-3.22-9.99-.31-1.39-.37-2.88-1.01-4.15-.95-1.89-1.15-3.97-1.82-5.92-.47-1.37-.42-2.8-.78-4.16-.38-1.42-.97-2.77-1.39-4.18-.89-3.03-1.71-6.08-2.94-9-.28-.65-.01-1.08.55-1.39,2-1.1,3.74-2.63,5.83-3.6.05-.06.1-.12.16-.17-.3-1.63-.61-3.25-.8-4.89-.06-.5-.33-.87-.79-1.11-1.68-.88-3.26-1.87-4.17-3.64-.43-.23-.87-.39-1.37-.3-.66.31-.95.99-1.39,1.5-1.97,2.24-4.73,3.61-6.52,6.04-.23.31-.59.5-.96.65-.74.3-1.31.81-1.87,1.37-1.32,1.31-1.58,1.29-2.96.02-1.62-1.49-2.83-3.38-4.63-4.69-.81-.59-1.51-1.26-2.04-2.14-.42-.71-1.17-1.19-1.97-1.01-1.84.41-3.61.06-5.36-.35-1.91-.45-3.68-1.42-5.65-1.71-.16-.02-.3-.17-.42-.3-.85-.9-2.16-1.05-3.07-1.88-.29-.26-.73-.22-1.1-.01-.49.88-1.1,1.62-2.15,1.85-1.22,1.75-2.36,3.56-3.51,5.35-.36.56-.44,1.2-.19,1.85,1.34,1.68,3.39,1.95,5.24,2.59,1.34.46,1.52.86,1.19,2.2-.4,1.61-1.23,3.03-1.77,4.55-1.05,2.94-1.61,6.04-2.7,9-.47,1.29-1.03,2.55-1.45,3.87-.83,2.58-1.82,5.12-2.8,7.65-.63,1.65-1.48,3.2-1.81,4.97-.18.98-.57,1.9-1.22,2.69-.47.57-.97,1.22-.94,1.95.04,1.01-.36,1.86-.73,2.72-.4.91-.75,1.84-1,2.81-.42,1.66-1.17,3.15-2.22,4.5.06.47.02.98.19,1.4.77,1.86,1.28,3.77,1.71,5.74.34,1.56.99,3.09,1.25,4.7.27,1.65,1.5,3.05,1.26,4.84-.03.23.17.48.24.73.19.66.39,1.32.52,1.99.07.33.12.59.5.63,0,0,0,0,0,0,.38-.62.76-1.24,1.14-1.86.04-.07.13-.12.17-.19.71-1.27,1.35-2.58,2.13-3.81.57-.88,1.13-1.78,1.76-2.63.73-.97,1.24-2.1,2.08-3.05.7-.79,1.08-1.84,1.7-2.71,1.29-1.8,2.7-3.51,3.96-5.33.68-.98,1.12-2.11,1.7-3.16.37-.68.81-1.32,1.18-2.01.39-.72.6-1.59,1.13-2.17,1.01-1.11,1.28-2.68,2.49-3.67.66-.55,1.07-1.41,1.56-2.15.31-.46.58-.94.87-1.41.06-.02.12-.01.18-.02-1.01-2.78-1.51-5.71-2.56-8.47-.38-.99-.14-2.09-.46-3.06-.67-2.02-.72-4.17-1.4-6.18-.2-.58-.32-1.28.35-1.81,1.05.34,1.19,1.32,1.38,2.16,1.11,4.92,2.77,9.67,4.33,14.45.45,1.37.47,2.53-.66,3.49,0,.02.02.04.03.06-.23,1.74.15,3.37.72,5.02.45,1.32.61,2.74.9,4.11.05.25.03.56.16.75.81,1.12.45,2.53.93,3.67.53,1.26.09,2.76,1.09,3.88.16.18.11.57.13.87.07,1.17.3,2.29.92,3.32.18.3.18.71.24,1.08.1.71.07,1.47.28,2.14.61,1.96,1.21,3.92,1.5,5.97.14,1,.67,1.93.92,2.92.2.78.25,1.6.37,2.4-.06,0-.12,0-.18,0,.28.52.53,1.05.96,1.48.47,0,.94,0,1.41-.03.77-.04,1.54-.15,2.31-.12,1.41.04,2.82.16,4.23.25.82.05,1.63.09,2.45.11.85.03,1.74.22,2.54.03,1.83-.44,3.68.43,5.48-.2.04-.01.09,0,.13,0,1.62.1,3.24.21,4.85.31,1.03.06,2.06.17,3.09.17.77,0,1.54-.2,2.31-.2.89,0,1.79.16,2.68.19.85.03,1.72-.13,2.56-.02,1.78.23,3.52.23,5.27-.19.14-.51-.15-.85-.5-1.11Z"/>
        <path class="cls-1" d="M94.25,213.69c-.6.58-1.23.36-1.89.11-.42-.16-.95-.34-1.33-.2-.9.33-1.76.14-2.53-.18-1.35-.57-2.65-.75-4.12-.57-1.01.12-2.1-.36-3.14-.63-.67-.17-1.31-.41-2.03-.19-.26.08-.58-.02-.88-.06-.81-.1-1.62-.19-2.43-.31-.38-.06-.75-.16-1.13-.24-.41-.09-.83-.18-1.24-.25-.17-.03-.35.03-.52,0-2.32-.59-4.74-.53-7.07-1.06-1.63-.37-3.31-.5-4.96-.76-.34-.05-.66-.18-1-.24-.37-.07-.74-.1-1.11-.15-.33-.04-.68-.03-.99-.14-.65-.25-1.24-.5-1.99-.31-.35.09-.8-.24-1.21-.35-.53-.14-1.11-.42-1.61-.33-1.57.29-3.06-.22-4.59-.33-.24-.02-.46-.21-.71-.28-.49-.14-1.04-.44-1.48-.33-.93.24-1.7-.06-2.49-.4-.16-.07-.32-.15-.49-.16-.89-.04-1.78-.06-2.67-.09-.09,0-.19.03-.26,0-1.32-.84-2.86-.34-4.27-.68-1.22-.3-2.51-.34-3.76-.51-1.4-.19-2.84-.27-4.2-.65-1.63-.45-3.3-.52-4.94-.82-.38-.07-.76-.22-1.14-.19-1.45.09-2.77-.59-4.17-.74-.3-.03-.58-.19-.87-.25-1.3-.28-1.61-.55-1.75-1.81-.07-.66-.16-1.27-.58-1.82-.14-.19-.15-.48-.22-.73-.14-.49-.28-.98-.43-1.46-.09-.29-.36-.61-.29-.84.29-.93-.36-1.65-.46-2.49-.08-.64-.25-1.26-.38-1.89-.04-.21-.03-.47-.15-.62-.91-1.15-.99-2.53-1.17-3.89-.02-.13,0-.28-.06-.38-.97-1.51-.79-3.31-1.26-4.95-.24-.85-.65-1.65-.95-2.49-.29-.81-.64-1.61-.77-2.44-.25-1.54-.9-2.98-1.16-4.46-.36-2.03-1.5-3.89-1.27-6.03.03-.24-.04-.53-.17-.75-1.07-1.87-1.27-3.96-1.67-6.02-.29-1.47-.86-2.87-1.21-4.33-.41-1.75-.97-3.47-1.13-5.29-.06-.75-.5-1.45-.72-2.19-.21-.74-.35-1.49-.55-2.24-.1-.37-.18-.76-.36-1.09-.7-1.21-.27-2.35.19-3.47.09-.21.44-.4.7-.45.42-.08.87-.08,1.29-.03,1.71.19,3.41.38,5.11.63.76.11,1.48.2,2.26.18,1.54-.04,3.09.16,4.62.4,1.16.18,2.3.43,3.47.36.09,0,.2-.03.26,0,1.2.79,2.64.22,3.9.69.15.06.36.09.51.03,1.22-.51,2.38.06,3.56.19,1.88.2,3.76.41,5.63.64,1.45.18,2.9.4,4.34.61.17.02.35.17.49.14,1.38-.39,2.69.24,4.05.3,1.41.06,2.81.37,4.21.57.55.08,1.11.16,1.66.17.85,0,1.64.1,2.32.78.93-.54,1.87-.56,2.82-.06.14.08.34.07.51.08,1.59.1,3.18.17,4.77.29.42.03.84.17,1.26.25.42.08.84.21,1.26.22.99.04,1.97,0,2.92.44.4.19.94.08,1.41.11,1.31-.48,2.51.34,3.81.31,2.89-.08,5.72.56,8.58.88,3.23.37,3.47.95,4.4,4.1.89,3.01,1.62,6.07,2.61,9.05.1.37.14.78,0,1.12-.39.91-.08,1.63.52,2.3.24,1.37.97,2.57,1.32,3.92.74,2.83,1.33,5.71,2.25,8.48.83,2.5,1.11,5.14,2.14,7.58.23.72.18,1.44.11,2.18-1.06,2.95-.45,5.74.79,8.47.17.37.24.74.18,1.13-.27,1.84.01,3.62.61,5.36.06.16.14.33.14.5.09,2.71,1.2,5.21,1.64,7.84.2,1.19.93,2.12,1.26,3.23Z"/>
        <path class="cls-2" d="M208.21,189.75c-.83.23-1.67.21-2.52.23-1.4.04-2.81-.19-4.17-.08-1.72.13-3.42.09-5.12.13-1.73.05-3.42-.08-5.14-.15-1.36-.05-2.73.11-4.09.17-.3.01-.6,0-.9,0-.77,0-1.53.01-2.3,0-.43,0-.86-.04-1.29-.06-.59-.02-1.19-.03-1.78-.07-.46-.03-.92-.11-1.38-.17.39-1.51.76-3.03,2.31-3.86.47-.26.8-.7.84-1.25.17-2.58,1.37-4.89,1.92-7.38.43-1.95,1.79-3.54,2.51-5.4.39-1.01.8-2.01,1-3.08.16-.86.52-1.61.96-2.38.68-1.19.75-2.62,1.38-3.88.94-1.85,1.31-3.92,1.94-5.89.72-2.24,1.33-4.53,2.44-6.63.26-.5.51-1,.68-1.54.34-1.11.11-1.81-.68-2.07-.83-.27-1.56.18-1.91,1.27-.34,1.03-.74,2.06-.9,3.11-.25,1.61-.86,3.11-1.49,4.53-1.14,2.59-1.87,5.29-2.7,7.97-.97,3.16-2.28,6.19-3.53,9.25-1.22,3.01-2.13,6.11-2.93,9.25-.13.52-.3.99-.72,1.35-.13.11-.31.22-.35.38-.48,1.89-2.05,2.87-3.31,4.14-.86.87-1.71,1.61-2.91,1.78-2,.28-3.92.92-6.01.8-3.11-.17-5.36-1.38-6.91-4.2-1.33-2.42-2.16-4.96-2.96-7.57-.73-2.38-1.78-4.67-2.64-7.02-.83-2.28-1.79-4.48-2.94-6.62-.45-.84-.72-1.76-.71-2.74,0-.39-.08-.78-.21-1.15-1.6-4.43-2.84-8.97-4.43-13.41-.87-2.43-1.57-5.02-1.93-7.63-.05-.34-.08-.69-.19-1.02-1.54-4.63-2.5-9.42-3.96-14.07-.3-.95-.12-1.68.89-2.12.64-.28,1.1-.83,1.64-1.26.74-.59,1.07-1.34.83-2.29,0-.15.05-.26.17-.35,1.89-.37,3.43-1.53,5.15-2.3,2.07-.94,4.18-1.79,6.16-2.91.49-.28,1.09-.21,1.65-.12,1.15.48,2.09-.04,3.04-.6,1.27-.75,1.9-.45,2.13,1.02.53,3.42,1.51,6.73,2.44,10.06.44,1.56.79,3.17,1.06,4.79.33,1.94.69,3.89,1.19,5.82.51,1.96.98,3.94,1.57,5.88.46,1.51.86,3.06,1.42,4.53.99,2.59,1.75,5.25,2.56,7.89.53,1.74,1.19,3.42,1.9,5.08.64,1.48,1.17,2.98,1.41,4.57.09.6.19,1.2.47,1.75.31.61.84.87,1.51.71.64-.16.89-.66.9-1.27.01-.53-.13-1.03-.32-1.52-.89-2.29-1.65-4.64-2.54-6.93-.93-2.4-1.85-4.82-2.59-7.31-.56-1.88-1.05-3.81-1.85-5.65-.62-1.41.03-2.98.86-4.26.53-.81,1.05-1.57,1.1-2.57.01-.22.06-.44.18-.62,1.32-2,2.06-4.21,2.44-6.56.05-.3.16-.6.39-.8,1.78-1.59,1.74-3.88,2.28-5.94.11-.43.02-.9-.45-1.11-.49-.22-.86.1-1.12.44-1.26,1.67-2.38,3.41-2.37,5.61,0,.45-.03.9-.29,1.24-1.1,1.43-1.42,3.21-2.08,4.83-.46,1.13-.64,2.38-1.43,3.38-.16.2-.26.45-.67.52-.77-.48-1.07-1.33-1.26-2.2-.51-2.22-.97-4.44-1.83-6.57-.5-1.23-.72-2.59-.95-3.89-.61-3.47-1.7-6.78-2.84-10.1-.32-.93-.71-1.88-.16-2.89.24-.44.33-.93-.07-1.33-.45-.45-.98-.3-1.44-.03-1.16.66-2.28,1.41-3.49,1.99-.31.15-.58.39-.96.33-1.43-1.79-2.09-3.91-2.58-6.09-.13-.59,0-1.22.33-1.75.65-1.07.9-2.24.93-3.46.02-1,.65-1.76.93-2.66.62-1.98.95-4.03,1.44-6.03.09-.39.18-.76.52-1.01.42-.29.86-.07,1.29-.04.62.35,1.1.81,1.33,1.51.17.53.55.79,1.08,1.01.79.33,1.49.86,2.24,1.27,2.38,1.29,4.76,2.56,7.15,3.83.15.08.29.21.45.23,1.83.32,3.38,1.4,5.15,1.87.24.06.47.25.63.43.44.49.9.81,1.59.49.11-.05.29-.1.38-.04,1.3.85,3.08.44,4.26,1.63.17.17.44.24.67.36.5.25,1.15.37,1.47.76,1.13,1.42,2.84,1.91,4.24,2.89.28.19.58.4.77.67.96,1.42,1.89,2.86,2.82,4.29.07.11.13.23.15.36.26,1.8,1.04,3.44,1.66,5.11.87,2.32,1.4,4.69,1.76,7.13.03.17.04.36.14.49.78,1.03.69,2.27.9,3.45.06.33.14.68.26.99.3.73.49,1.42.36,2.25-.1.64.2,1.34.33,2.01.26,1.39.53,2.79.79,4.18.03.17-.02.37.06.51,1.04,1.77.88,3.83,1.43,5.73.38,1.31.44,2.71.67,4.07.11.64.23,1.28.42,1.89.18.59.38,1.14.14,1.76-.07.19-.09.46-.01.64.63,1.47.49,3.04.71,4.57.04.29.2.57.27.86.16.71.35,1.42.44,2.14.28,2.09.32,4.24.86,6.25.44,1.65.32,3.32.76,4.94.36,1.32.07,2.76.7,4.04.11.22.1.51.09.77-.04.91-.08,1.82.45,2.63.07.1.09.26.07.38-.29,2.13.66,4.04,1.04,6.05.16.84.15,1.71.23,2.57-.78.48-1.62.92-1.35,2.08Z"/>
        <path class="cls-14" d="M95.36,59.2c-1.49-1.19-2.43-2.66-2.35-4.65,0-.21.03-.47-.08-.63-.66-1-.34-2.21-.71-3.26-.05-.15-.05-.35,0-.51.26-1.03.52-2.06.82-3.08.3-1.04.62-2.07.97-3.09.17-.48.37-.97.66-1.38.84-1.14,1.77-1.41,2.81-.42.46.43,1.1.67,1.67.98.68.37,1.41.67,2.06,1.1.64.43,1.3.71,2.06.61,1.31-.18,2.67-.06,3.89-.73.22-.12.5-.23.74-.21,1.72.14,3.1-.72,4.51-1.51.15-.08.29-.28.43-.27,1.2.09,1.9-.88,2.85-1.32.93-.43,1.86-.9,2.84-1.19,2.03-.59,3.73-1.85,5.65-2.66.28-.12.56-.24.85-.31,2.46-.57,4.91-1.17,7.39-1.66,1.04-.21,2.13-.16,3.19-.23.3-.02.61,0,.9-.07,1.23-.34,2.25.17,3.28.72.32.17.7.33,1.05.33,2.03,0,3.4,1.1,4.43,2.67.72,1.1,1.55,2.18,1.83,3.52.14.67.62.92,1.25.88,2.17-.16,3.77,1.06,5.19,2.37.81.75,1.24,1.91,2.12,2.73.43.4.53,1.23.63,1.89.14.94.62,1.69,1.07,2.47.45.77.54,1.59.58,2.48.07,1.44-.17,2.9.24,4.32-.16.37-.49.5-.83.62-1.97.6-2.19.88-2.2,2.89-.01,2.7.09,5.4.19,8.1,0,.26,0,.51-.1.76-.06.13-.16.21-.29.26-.82-.13-1.16-.83-1.59-1.41-1.8-2.42-3.32-5.02-4.92-7.56-.21-.33-.42-.65-.7-.93-1.1-1.09-2.41-.85-2.98.57-.32.8-.53,1.64-.27,2.52.11.38.22.76-.1,1.09-.18.1-.37.13-.57.1-1.68-.76-2.94.16-2.94,2.17,0,.86.23,1.7.36,2.55.14.94.22,1.88-.03,2.82-.19.4-.5.65-.92.77-1.65.39-2.07,1.03-1.47,2.57.49,1.26.49,2.52.4,3.82-.08.36-.24.66-.58.85-2.04.1-3.93-.34-5.58-1.59-.43-.33-.67-.81-.68-1.35,0-1.04-.3-2.13-.11-3.08.28-1.43.23-2.92.79-4.29.13-.32.27-.65.26-1-.1-1.86.49-3.59,1.02-5.32.26-.86.07-1.23-.86-1.42-3.12-.64-6.31-.69-9.44-1.23-2.42-.42-4.85-.81-7.27-1.16-2.22-.32-4.45-.59-6.66-.93-3.26-.5-6.57-.43-9.82-.99-.83-.14-1.63-.03-2.34.52-.31.24-.68.37-1.08.38-.14,0-.27-.02-.4-.05-.19-.06-.35-.17-.5-.29-.22-.2-.47-.38-.62-.65Z"/>
        <path class="cls-2" d="M83.18,161.93c-.63-1-.9-2.12-1.13-3.27-.26-1.34-.44-2.7-1.14-3.93-.37-.65-.43-1.48-.65-2.23-.26-.86-.52-1.73-.82-2.58-.08-.22-.3-.51-.49-.54-1.59-.24-3.08-1.18-4.78-.63-.15.05-.36.03-.5-.04-1.44-.7-2.99-.69-4.53-.71-.85-.01-1.71.07-2.54-.06-.91-.14-1.8-.46-2.7-.7.22-1.3.27-2.58,1.09-3.78.6-.87.7-2.09,1.02-3.15.33-1.12.65-2.24.97-3.36.02-.08.05-.18.1-.24,1.26-1.25,1.45-3.07,2.42-4.48.23-.33.33-.82.31-1.22-.07-1.24.3-2.21,1.5-2.8-.38-1.35.16-2.4,1.03-3.3.45-.47.69-.95.66-1.61-.04-.77.24-1.41.81-1.97.29-.29.48-.71.64-1.11.61-1.56,1.18-3.12,1.78-4.69.05-.12.08-.28.18-.34.99-.59.97-1.75,1.49-2.61.23-.38.24-.9.29-1.36.12-.99.6-1.63,1.41-1.8.64-.13,1.53.32,1.96,1,.27.43.55.87.82,1.31q.82,1.71,2.94,1.28c1.15.17,2.31.27,3.22,1.13.33.31.8.26,1.22.35.89.2,1.76.44,2.31,1.26.26,1.22.84,2.02,2.14,2.48,1.01.36,1.85,1.21,2.95,1.53.56.16.61.62.37,1.15-.78,1.67-.9,3.54-1.59,5.24-.45,1.1-.91,2.19-1.32,3.31-.8,2.18-1.39,4.45-2.29,6.56-.94,2.19-1.2,4.6-2.48,6.65-.36.58-.55,1.26-.69,1.95-.28,1.49-.74,2.93-1.38,4.3-.54,1.14-.94,2.31-1,3.59-.04.83-.29,1.6-.75,2.31-.65,1-.68,2.22-1.06,3.31-.46,1.32-.64,2.78-1.77,3.79Z"/>
        <path class="cls-1" d="M120.52,187.51c.58.33.82.84.78,1.49-.53.29-1,.6-1.29,1.2-.21.44-.61.82-.98,1.16-1.48,1.4-2.72,3.04-4.36,4.29-.64.48-1.08,1.22-1.66,1.79-.92.88-1.83,1.78-2.84,2.54-1.62,1.21-2.59,3.05-4.26,4.23-1.03.72-1.83,1.76-2.77,2.62-1.05.96-2.15,1.85-3.2,2.81-.4.36-.7.84-1.05,1.26-.91,1.08-1.78,2.2-3.34,2.34-.58-2.33-.76-4.73-1.12-7.1-.09-.6-.06-1.24-.33-1.77-.96-1.9-.82-4.02-1.24-6.03-.1-.47-.16-.94-.46-1.33-.51-.67-.61-1.4-.43-2.2.13-.56.12-1.13-.14-1.65-.47-.95-.72-1.98-.72-2.99,0-.94-.99-1.53-.69-2.5,2.07-.71,4.24-.68,6.38-.76,1.94-.08,3.9-.29,5.82-.1,1.76.17,3.52.24,5.28.31,3.79.16,7.59-.17,11.39.15.43.04.87-.06,1.23.25Z"/>
        <path class="cls-11" d="M160.61,189.31c-.25-.33-.43-.76-.76-.98-.87-.57-1.48-1.34-1.81-2.3-.41-1.17-.73-2.37-1.1-3.56-.05-.16-.12-.32-.19-.48-.5-1.22-1.02-2.44-1.5-3.67-.12-.32-.21-.67-.21-1.01,0-.51-.18-.9-.53-1.27-.22-.24-.38-.58-.47-.9-.31-1.16-.57-2.33-.86-3.49-.03-.12-.04-.28-.12-.36-1.23-1.19-1.28-2.87-1.78-4.35-.48-1.42-.8-2.89-1.69-4.17-.46-.65-.68-1.48-.94-2.26-.76-2.33-1.54-4.65-2.21-7-.52-1.81-.89-3.66-1.32-5.49-.03-.13-.01-.28-.08-.38-.92-1.4-1.2-3.01-1.56-4.61-.27-1.21-.72-2.37-1.08-3.55-.01-.04-.03-.09-.02-.13.37-2.44-1.06-4.44-1.64-6.64-.67-2.54-1.53-5.03-2.32-7.53-.11-.35-.3-.69-.51-1-.51-.77-.33-1.34.45-1.81,1.39-.84,2.74-1.74,4.09-2.64.66-.44,1.3-.86,2.14-.76.63.93.46,1.84-.57,2.63-.88.68-1.79,1.32-2.83,2.08.58,2.04,1.2,4.21,1.8,6.39.36,1.28.72,2.57,1.01,3.87.25,1.09.4,2.2.6,3.3.02.12.04.28.12.36.85.79.78,1.84.92,2.88.13,1,.51,1.98.8,2.96.19.66.55,1.3.57,1.96.06,1.42.69,2.64,1.16,3.92.58,1.57,1.13,3.15,1.65,4.74.31.93.5,1.91.79,2.84.35,1.11.76,2.2,1.12,3.31.21.65.51,1.33.5,1.99-.04,1.38.61,2.49,1.17,3.64.71,1.46,1.58,2.81,1.91,4.47.24,1.23.98,2.36,1.5,3.53.05.12.19.22.19.33.07,1.8,1.34,3.18,1.67,4.95.44,2.32,1.29,4.6,2.69,6.6.44.63.81,1.3,1.27,1.91,1.37,1.84,3.38,2.18,5.47,2.29,2.2.12,4.31-.44,6.44-.91.88-.19,1.47-.68,1.98-1.35.48-.62.99-1.15,1.75-1.49.62-.28,1.12-.81,1.16-1.59.04-.75.42-1.29,1.06-1.68.18-.11.39-.26.45-.43.31-.98.72-1.96.81-2.96.11-1.24.55-2.35.94-3.49.58-1.67,1.19-3.33,1.85-4.97.43-1.08.94-2.13,1.47-3.16.36-.7.68-1.35.55-2.2-.06-.41.2-.9.37-1.33.25-.63.6-1.23.82-1.88.65-1.96,1.22-3.94,1.9-5.88.31-.87.99-1.59.93-2.62-.02-.29.31-.6.46-.91.17-.35.44-.7.45-1.06.06-1.72.81-3.25,1.29-4.85.42-1.4,1.96-1.71,2.87-.71.39.42.5.92.36,1.45-.12.46-.27.92-.47,1.34-.55,1.16-1.14,2.31-1.7,3.46-.07.15-.14.33-.14.49.02,1.02-.15,1.94-.88,2.76-.26.29-.12.92-.26,1.37-.65,2.18-1.34,4.35-2.29,6.44-.62,1.36-.81,2.92-1.68,4.21-.24,2.23-1.35,4.17-2.16,6.21-.2.51-.58.96-.85,1.45-.21.38-.42.76-.54,1.17-.43,1.53-.69,3.12-1.25,4.59-.45,1.18-.73,2.34-.86,3.58-.07.64-.55,1.06-1.15,1.31-.73.31-1.11.91-1.39,1.61-.26.63-.57,1.24-.86,1.86-2.08,1.66-4.55,2.41-7.09,2.9-1,.19-2.05.07-3.09.08-.46,0-.92-.03-1.38-.07-.21-.02-.45-.01-.62-.12-1.51-.91-3.22-1.34-4.83-2.01-.69-.28-1.28-.81-1.91-1.23Z"/>
        <path class="cls-13" d="M85.1,113.19c-.14.09-.28.18-.43.26-1.15.56-2,.15-2.26-1.09-.04-.2-.02-.42-.03-.63,1.22-.91,1.47-2.39,2.05-3.66.41-.88.86-1.74,1.03-2.76.13-.78.8-1.48,1.03-1.87-.12-1.21-.2-2.05-.29-2.89-.03-.34-.05-.69-.11-1.03-.24-1.44-.48-2.87-.76-4.3-.2-1.05-.45-2.09-.71-3.13-.19-.76-.24-1.49-.17-2.28.06-.73-.28-1.5-.43-2.25-.14-.67-.32-1.34-.39-2.02-.09-.94-.28-1.84-.52-2.77-.36-1.39-.47-2.87-.48-4.31,0-.52.58-1.05,1.03-1.78-.17-.43-.3-1.11-.11-1.93.25-1.06.22-2.19.22-3.29,0-.55.08-.92.68-1.05.19-.04.44-.15.51-.3.66-1.38,2.05-2.11,2.94-3.3.46-.62,1.03-1.16,1.57-1.71.87-.89,1.73-1.8,2.66-2.61.47-.4,1.11-.62,1.67-.91.56-.29.95-.67,1.05-1.36.05-.36.33-.69.51-1.04.25.17.5.34.76.52.07.08.15.16.22.23h-.02c.41.3.56.73.66,1.21.39,1.74.42,3.51.36,5.28-.02.52-.05,1.04.07,1.54.32,1.32.4,2.62-.07,3.95-.31.87-.15,1.8.21,2.66.51,1.24.44,2.51.3,3.82-.17,1.7.13,3.42.09,5.14-.02.71.16,1.45.07,2.18-.27,2.06-.11,4.14-.12,6.21,0,1.48.47,2.97.77,4.45.26,1.31.48,2.63.9,3.91.52,1.57.38,3.25.59,4.87.06.43-.08.86-.42,1.18-.24,1.07-.62,1.98-1.97,1.87-1.27-.07-1.25-1.06-1.23-1.9.04-2.52-.46-4.99-.65-7.49-.21-2.75-1.45-5.24-2.71-7.64-.96-1.83-1.64-3.81-2.88-5.5-.48-.66-.87-1.39-1.43-2-.83-.91-1.11-1.93-.48-3.09,1.41-2.63,2.84-5.24,4.64-7.63,1.1-1.45,1.58-3.11,1.52-4.98-.59.23-.68.76-.97,1.11-2.43,2.92-4.81,5.87-7.33,8.71-.89,1-1.17,1.97-.79,3.31.54,1.91.52,3.93.88,5.89.55,2.98,1.58,5.83,2.15,8.8.33,1.7.66,3.4.86,5.12.21,1.86-.49,3.62-1.13,5.29-.91,2.36-2.07,4.63-3.11,6.94Z"/>
        <path class="cls-7" d="M157.31,59.5c.28-.13.56-.27.84-.4.64.19.93.65,1.17,1.25.49,1.21.63,2.48.94,3.72.54,2.15.61,4.38,1.46,6.48.61,1.49,1.02,3.11.8,4.79-.02.16.01.37.1.5,1.22,1.83.73,4.02,1.27,6,.05.19,0,.44-.07.64-.56,1.75-1.08,3.52-1.72,5.24-.38,1.04-.96,2-1.45,3-.41.04-.82.08-1.22.12-.73-.37-.51-1.01-.42-1.59.27-1.81,1.01-3.48,1.6-5.19.38-1.1.36-2.06.11-3.14-.98-4.14-1.94-8.27-2.39-12.53-.27-2.52-.9-5-1.18-7.53-.05-.47-.18-.94.16-1.36Z"/>
        <path class="cls-14" d="M90.33,187.78q.96,1.19,1.29,3.61c.04.3.03.63.16.88.6,1.04.72,2.08.29,3.22-.09.24.1.66.28.91.53.72.81,1.46.83,2.38.03,1.1.18,2.22.42,3.29.22.99.75,1.92.94,2.92.27,1.42.35,2.88.54,4.31.12.93.32,1.84.45,2.77.05.38,0,.77,0,1.15h0c-.1.08-.17.18-.26.26-.34.07-.69.13-1.03.2-.44-.72-1.03-1.39-1.29-2.17-.37-1.09-.49-2.25-.73-3.38-.08-.37-.23-.74-.31-1.11-.24-1.04-.48-2.08-.69-3.12-.08-.42.01-.9-.16-1.27-.56-1.23-.66-2.57-.89-3.86-.1-.54-.09-1.13.04-1.66.17-.67.25-1.17-.31-1.75-.38-.39-.64-1.09-.64-1.65,0-1.35-.32-2.62-.61-3.91-.08-.35.04-.76.14-1.12.13-.45.35-.87.53-1.31.59-.53.93-.42,1.01.39Z"/>
        <path class="cls-10" d="M95.29,213.49c.09-.09.17-.18.26-.26-.09.09-.17.18-.26.26Z"/>
        <path class="cls-11" d="M83.18,161.93c.91-1.95,1.59-3.99,2.08-6.09.09-.37.17-.83.43-1.05.7-.62.81-1.47.79-2.23-.02-1.18.32-2.19.79-3.22.73-1.56,1.31-3.15,1.59-4.87.13-.79.37-1.66.84-2.29.66-.89.85-1.9,1.1-2.88.27-1.06.56-2.07,1.22-2.95.15-.2.19-.48.25-.72.21-.78.4-1.57.62-2.35.18-.66.39-1.32.6-1.97.12-.37.18-.8.42-1.08.51-.61.55-1.28.66-2.02.09-.65.66-1.23,1.13-2.04-.19-.77-.01-1.69.97-2.29-.4-1.43.16-2.53,1.04-3.68-.54-.17-.97-.33-1.42-.43-.66-.14-1.2-.42-1.62-.98-.16-.21-.45-.37-.72-.43-1.42-.34-1.93-.95-1.97-2.42.4-.89,1.12-.87,1.91-.68.42.34.84.69,1.27,1.03.13.11.25.25.4.29,1.39.43,2.79.83,4.18,1.26.98.3,1.3,1.05.95,2.03-.24.68-.34,1.41-.59,2.09-.25.68-.45,1.5-.96,1.94-.77.66-.26,1.48-.56,2.16-.27.63-1.08,1-.78,1.94.13.4-.12,1.03-.39,1.43-.32.46-.41.89-.43,1.44-.02.54-.2,1.09-.38,1.62-.27.81-.6,1.6-.9,2.4-.05.12-.05.26-.11.37-1.16,1.98-1.34,4.35-2.51,6.34-.21.36-.26.81-.38,1.22-.14.49-.23,1.01-.44,1.47-.6,1.37-1.28,2.71-1.87,4.08-.22.51-.28,1.08-.39,1.63-.24,1.23-.59,2.37-1.51,3.35-.45.48-.76,1.21-.7,2.11.06.82-.5,1.69-.8,2.53-.27.77-.54,1.54-.84,2.3-.51,1.28-1.01,2.56-1.61,3.8-.16.34-.63.53-.96.79-.97-.62-1.06-.84-.76-1.86.11-.37.22-.73.33-1.1Z"/>
        <path class="cls-12" d="M49.13,173.23c.03.64.09,1.28.09,1.92,0,.25-.03.55-.16.75-.52.79-1.01,1.62-1.65,2.3-.64.68-1.45.79-2.48.68-1.53-.18-2.51-1.1-3.5-2-1-.91-1.33-2.26-1.13-3.59.32-2.1,1.27-3.45,3.03-4.71.9-.64,1.78-.66,2.78-.13,1.82.97,3.14,3.35,3.01,4.79Z"/>
        <path class="cls-6" d="M157.31,59.5c.28,1.6.74,3.2.8,4.81.07,2.11.84,4.08.9,6.19.05,1.79.31,3.6,1.22,5.23.1.18.18.42.14.61-.23,1.19.05,2.3.44,3.4.19.53.27,1.09.45,1.62.32.95.23,1.73-.24,2.73-.83,1.76-1.22,3.74-1.74,5.64-.09.33.1.73.17,1.1-.07.16-.19.3-.21.47-.35,2.15-.72,4.29-1.47,6.36-.24.66-.11,1.45-.79,1.96-.14.11-.1.48-.12.74-.05,1.3-.21,2.55-.99,3.68-.48.71-.52,1.6-.2,2.36.55,1.33.8,2.79,1.7,3.99.27.36.37.84.54,1.27.07.71-.18,1.38-.28,2.07-.93-.08-1.7.13-2.5.73-.84.62-1.87,1.03-2.87,1.38-1.83.64-3.51,1.54-5.17,2.51-.72.41-1.46.76-2.32.47-1.09-1.63-.8-3.57-1.2-5.47-.92-.47-1.93-.93-2.87-1.5-.42-.25-.74-.7-1.03-1.12-.35-.49-.62-1.03-.92-1.55.21-.76.29-1.5,0-2.28-.26-.69-.22-1.46-.08-2.18.49-2.46,1.06-4.88,2.13-7.18.97-2.09,1.8-4.26,1.92-6.62.06-1.09,0-2.13-.45-3.17-.66-1.54-1.13-3.17-1.48-4.81-.22-1.03-.75-1.72-1.76-2.02-.04-.6-.04-1.2-.11-1.79-.08-.58-.23-1.15-.35-1.72-.11-.5-.3-.99-.32-1.49-.03-1.18.9-1.88,2.12-1.66.61,1.05,1.02,2.21,1.35,3.34.72,2.42,2.11,4.53,2.95,6.9.4,1.14,1.42,2.03,2.16,3.04.21.29.56.43.92.21.37-.24.31-.59.15-.92-1.51-3.27-2.54-6.75-4.73-9.72-.78-1.06-1.04-2.52-2.12-3.45-.16-1.53-.22-3.08-.51-4.58-.28-1.5.45-2.58,1.24-3.63.34-.45.93-.36,1.41-.03.28.19.54.41.81.61.43,1.74.43,3.57,1.19,5.26.36.81.53,1.72,1.06,2.48.32.46.65.95.71,1.51.13,1.27.72,2.3,1.5,3.24.75.9.8,2.08,1.25,3.1.58,1.3,1.51,2.42,1.86,3.83.14.56.59.92,1.19.65.62-.28.79-.89.45-1.42-1.17-1.78-1.5-3.96-2.73-5.7-.33-.47-.44-1.03-.58-1.57-.28-1.01-.72-1.89-1.35-2.75-.94-1.27-1.46-2.84-2.08-4.27-.65-1.49-1.8-2.74-2.11-4.38,0-.21.07-.47-.02-.64-.66-1.18-.16-2.28.25-3.34.46-1.18,1.87-1.54,2.92-.82.14.1.29.2.39.34.76,1.17,1.85,2.1,2.29,3.53.24.78.88,1.45,1.37,2.14,1.08,1.51,2.18,2.99,3.27,4.49-.7.83-.63,1.67-.23,2.64.62,1.51.89,3.16,1.83,4.55.24.36.42.76.7,1.09.31.36.7.54,1.15.32.47-.23.52-.66.42-1.11-.1-.51-.37-.97-.56-1.45-.83-2.13-1.84-4.16-3.17-6.02-.02-.46-.04-.93-.07-1.39-.01-.17-.11-.34-.09-.5.31-2.55-.17-5.09.01-7.64.14-1.9.55-2.44,2.52-2.63Z"/>
        <path class="cls-11" d="M157.62,113.72c-.48-.77-.2-1.43.28-2.07,1.4-.83,2.79-1.66,4.19-2.49.87-.51,1.53-.5,1.99.03.45.52.38,1.15-.22,1.98-.05.07-.1.14-.24.35.48,1.49,1.03,3.06,1.51,4.66.59,1.94,1.23,3.87,1.63,5.85.26,1.28.65,2.53.86,3.82.17.99.39,1.89.93,2.77.38.61.31,1.48.48,2.23.1.45.3.88.44,1.32.11.33.33.69.27.99-.3,1.31.7,2.11,1.02,3.21.57-.76,1.08-1.42,1.56-2.1.09-.12.14-.35.09-.49-.33-.87.14-1.51.62-2.13.28-.36.43-.67.37-1.17-.05-.38.16-.82.33-1.2.19-.43.42-.85.71-1.21.54-.66.55-1.34.53-2.17-.02-.77.35-1.6.72-2.31.57-1.1,1.26-2.15,1.95-3.18.3-.45.78-.73,1.35-.45.54.26.73.78.6,1.32-.4,1.72-.85,3.43-1.31,5.14-.06.24-.23.53-.43.63-1.21.59-.95,1.81-1.23,2.79-.03.12-.01.26.01.39.21,1.02-1.09,1.31-1.09,2.24,0,.85-.15,1.62-.95,2.15-.22.14-.35.57-.35.86-.02,1-.36,1.83-1.04,2.57-.31.33-.52.78-.67,1.22-.21.6-.3,1.24-.48,1.86-.13.45-.11.81.19,1.21.26.33.45.73.58,1.14.8,2.63,1.58,5.27,2.38,7.9.12.41.33.8.52,1.18.15.31.47.58.5.9.23,2.02,1.65,3.62,1.9,5.66.12.99.75,1.91,1.1,2.87.18.48.31.99.39,1.5.15.89-.38,1.77-1.12,1.95-.78.19-1.65-.27-1.96-1.11-.19-.53-.32-1.08-.4-1.63-.28-1.84-.84-3.58-1.74-5.22-.16-.29-.22-.64-.31-.97-.05-.21,0-.48-.12-.62-1.27-1.49-1.13-3.48-1.83-5.18-.66-1.58-1.11-3.25-1.63-4.88-.31-.97-.97-1.86-.72-2.97.02-.08,0-.19-.05-.25-1.17-1.34-1.06-3.15-1.68-4.69-.32-.78-.33-1.67-.48-2.52-.02-.13.03-.3-.04-.38-1.28-1.58-.54-3.72-1.51-5.38.24-1.56-.63-2.94-.76-4.39-.12-1.2-.76-2.14-.95-3.28-.37-2.16-1.01-4.28-1.53-6.42-.07-.29-.08-.59-.12-.89-.1-.67-.2-1.34-.33-2.19-.52.19-.87.28-1.2.44-.53.27-1.05.56-1.55.87-.67.42-1.31.32-1.94-.06Z"/>
        <path class="cls-15" d="M99.73,106.38c.16-1.14-.24-2.24-.13-3.41.09-.94-.3-1.93-.52-2.9-.3-1.34-.65-2.67-.93-4.01-.24-1.17-.27-2.37-.74-3.52-.25-.61.04-1.43.04-2.16,0-.72-.11-1.44-.08-2.16.03-1.01.14-2.02.22-3.03.02-.26.16-.56.06-.76-.48-1.02-.08-2.03-.07-3.04,0-.7-.21-1.4-.38-2.37.6-1.33.44-2.94-.15-4.57-.32-.9-.42-1.85-.1-2.78.34-1.01.34-2,.1-3.04-.19-.82-.45-1.68-.04-2.53.05-.11.08-.26.05-.38-.45-1.9-.14-3.9-.75-5.79.74-.04,1.45-.13,1.95-.81.13-.18.54-.26.81-.23,1.87.21,3.77.1,5.62.61.7.2,1.52-.04,2.29-.07.36-.01.79-.11,1.08.03,1.36.67,2.85.53,4.28.77.46.08.93.12,1.39.17.8.09,1.61.18,2.41.27.25.03.57-.04.75.09.86.58,1.8.48,2.75.48.64,0,1.27.21,1.91.3,1.61.24,3.23.48,4.84.71.9.13,1.83.13,2.68.39.87.26,1.67.32,2.53.05.18-.06.46-.04.6.06.59.44,1.24.54,1.95.58.75.04.97.39.78,1.12-.17.66-.32,1.35-.59,1.97-.51,1.14-.57,2.34-.6,3.55-.01.42-.04.88-.21,1.26-.35.76-.69,1.46-.38,2.35.09.25-.16.64-.31.94-.3.61-.4,1.19-.18,1.87.13.42.08.92.01,1.37-.18,1.34.1,1.84,1.29,2.5,1.46.82,3.08,1,4.68,1.26.67,1.63.99,3.36,1.38,5.06.29,1.25.35,2.55.93,3.74.4.82.4,1.61-.13,2.45-.69,1.09-.97,2.39-1.36,3.58-.71,2.13-1.77,4.11-2.43,6.24-.45,1.43-.57,2.85.17,4.27.33.63.53,1.36.43,2.12-.37.8-.92,1.41-1.63,1.94-.65.48-1.12,1.19-1.74,1.72-.88.75-1.85,1.41-2.73,2.16-.45.38-.77.9-1.18,1.34-.35.38-.67.92-1.1,1.04-1.39.4-2.17,1.52-3.14,2.42-.15.14-.32.27-.5.42-1.61-.79-2.82-2.02-3.81-3.39-.91-1.27-2.24-2.02-3.27-3.11-.44-.46-.94-.9-1.27-1.43-.59-.99-1.42-1.39-2.51-1.17-1.3.26-2.56.32-3.8-.25-.29-.13-.69-.01-1.02-.1-.65-.17-1.33-.33-1.92-.64-.66-.35-1.28-.65-2.05-.71-1.01-.08-2.1-.1-2.72-1.17-.08-.13-.27-.27-.42-.29-.83-.09-1.38-.65-2.01-1.1-.29-.21-.72-.21-1.09-.31Z"/>
        <path class="cls-5" d="M93.89,115.27c-.64.22-1.27.45-1.91.68-.77-.85-1.76-1.16-2.88-1.18-.27,0-.67-.08-.78-.26-.49-.82-1.33-.86-2.11-1.04-.37-.08-.74-.18-1.11-.28.04-.91.21-1.73.78-2.53.51-.72.74-1.64,1.12-2.46.25-.54.6-1.04.79-1.59.27-.8.45-1.64.66-2.46.02-.08-.02-.19.02-.26,1.19-2.05.14-4.13.09-6.2-.02-.67-.36-1.32-.5-1.99-.38-1.72-.73-3.44-1.09-5.16,0-.04-.01-.09-.03-.12-1.11-1.56-.8-3.46-1.2-5.19-.21-.91-.18-1.88-.31-2.81-.06-.42-.13-.88-.35-1.23-.68-1.08-.07-2.59.75-3.45.36-.37.7-.76,1.05-1.14.32-.34.64-.68.95-1.02.17-.19.45-.36.5-.57.2-.98.95-1.51,1.64-2.09.64-.53,1-1.24,1.45-1.91.95-1.43,2.23-2.64,3.38-3.94,0-.01.08.03.26.1-.04.44-.08.93-.14,1.42-.05.47-.1.94-.19,1.39-.08.41-.21.81-.35,1.19-.12.32-.27.63-.43.93-.18.33-.37.65-.57.96-.29.46-.61.92-.9,1.38-.06.1-.03.3-.11.36-1.38,1.17-1.74,3.01-2.87,4.35-.54.64-.92,1.47-1.17,2.28-.24.79.17,1.57.78,2.07.8.66,1.27,1.48,1.68,2.39.24.53.64.98.92,1.5.93,1.77,1.83,3.55,2.74,5.33.06.12.17.24.17.35-.09,1.21.83,2.06,1.11,3.11.31,1.16.42,2.37.59,3.56.18,1.31.37,2.63.49,3.95.07.85.09,1.71.01,2.55-.08.88.18,1.52.94,1.96-1.01,1.59-1.98,3.21-3.05,4.76-.49.71-.78,1.42-.82,2.27Z"/>
        <path class="cls-4" d="M137.63,108.98c-.15-.4-.4-.79-.44-1.2-.04-.54-.22-.96-.53-1.4-.67-.95-.31-2.05-.12-3.01.27-1.33.63-2.65,1.54-3.8.46-.58.5-1.5.72-2.27.07-.25.05-.53.15-.75.48-1.04,1.21-1.98,1.17-3.21,0-.19.15-.42.3-.56.83-.76.67-1.66.25-2.49-.68-1.33-.83-2.76-.97-4.2-.02-.21-.01-.45-.12-.62-.76-1.21-.81-2.59-.93-3.95.12-.21.25-.42.37-.63,1.09-.11,1.7.3,1.94,1.36.21.95.32,1.93.59,2.86.26.89.65,1.74,1,2.6.58,1.43.82,2.87.23,4.38-.12.3-.15.68-.08.98.17.75-.04,1.35-.47,1.94-.25.34-.46.72-.61,1.11-.43,1.11-.69,2.31-1.29,3.31-.42.69-.39,1.38-.59,2.07-.43,1.45-.86,2.88-.83,4.43.01.48-.02.88.22,1.33.5.92.45.98-.39,1.89-.37-.06-.73-.12-1.1-.18Z"/>
        <path class="cls-11" d="M112.36,151.4c-.4-.21-.8-.42-1.19-.63-.46-1.24-1-2.47-1.37-3.74-.33-1.13-.47-2.31-.74-3.69-.93-.66-.67-1.99-.93-3.13-.05-.24.09-.54,0-.75-.82-2.13-.82-4.47-1.6-6.61-.1-.28-.1-.59-.11-.89,0-.5.1-.99.64-1.15.54-.16.96.16,1.15.62.35.83.64,1.69.9,2.55.35,1.14.65,2.3.97,3.46.26.94.54,1.87.78,2.82.22.85.62,1.61.57,2.59-.04.74.68,1.5.99,2.28.22.54.35,1.13.52,1.7.21.7.45,1.39.6,2.1.3,1.41.1,1.77-1.21,2.47Z"/>
        <path class="cls-4" d="M144.32,65.95c.63.99,1.49,1.92,1.82,3,.32,1.02,1.03,1.77,1.36,2.74.15.44.32.88.51,1.3.22.51.34,1.16.73,1.49.95.8,1.19,1.87,1.44,2.96.16.67.26,1.37.89,1.8.07.05.13.12.16.2.48,1.14,1.02,2.27,1.39,3.44.16.51.31.93.7,1.32.52.52.56,1.12.23,1.65-.3.48-.75.7-1.32.63-.63-.08-1.08-.48-1.13-1.21-.04-.56-.23-.96-.58-1.38-.3-.35-.46-.82-.67-1.25-.27-.53-.53-1.06-.79-1.59-.08-.15-.23-.31-.22-.46.12-1.35-.87-2.19-1.47-3.21-.28-.47-.41-1.03-.61-1.55-.24-.63-.37-1.34-.74-1.88-.6-.87-.77-1.88-1.18-2.81-.61-1.4-.71-2.87-1.08-4.3-.12-.45.13-.6.21-.89.11,0,.23-.02.34-.03Z"/>
        <path class="cls-7" d="M141.04,73.62c1.24.07,1.47,1.21,1.79,1.99.35.85.86,1.54,1.28,2.32.8,1.47,1.53,2.99,2.31,4.48.43.83.93,1.62.92,2.64,0,.41.42.83.64,1.25.16.3.43.61.42.91-.01.33-.21.8-.47.95-.26.14-.73.02-1.06-.11-.21-.08-.34-.38-.5-.58-.59-.79-1.18-1.58-1.76-2.37-.08-.1-.15-.21-.2-.33-.82-1.9-1.65-3.79-2.43-5.7-.53-1.3-1-2.62-1.48-3.94-.1-.28-.09-.59-.13-.89.23-.2.46-.4.69-.61Z"/>
        <path class="cls-4" d="M154.94,71.66c.82.48,1.4,1.13,1.55,2.11.04.25.15.53.32.7,1.04.97,1.19,2.38,1.8,3.55.24.45.34.98.42,1.49.08.52-.16.95-.65,1.16-.47.2-.94.14-1.31-.25-.12-.12-.21-.27-.29-.42-.79-1.42-1.83-2.71-2.03-4.42-.05-.45-.35-.87-.56-1.29-.6-1.18-.42-1.97.6-2.63.05.06.1.06.15,0Z"/>
        <path class="cls-15" d="M96.33,59.95c-.07-.08-.14-.16-.22-.23.07.08.14.16.22.23Z"/>
        <path class="cls-14" d="M39.51,14.27c.04,1.37.15,2.74.31,4.1.04.35.35.67.58.98.98,1.34,2.52,2.02,3.7,3.14.56.53,1.44.72,2.17,1.06,1.71.81,3.37,1.73,5.33,1.91,1.48.14,2.23.84,2.2,2.19-.03,1.33.64,2.2,1.41,3.05.73.79,1.55,1.5,2.4,2.15.49.37,1.12.63,1.72.78.63.16.98.41,1.11,1.07.42,2.15,1.65,3.58,3.66,4.52.97.45,1.8,1.18,2.95,1.14.6,1.07,1.19,2.12,1.79,3.16.08.15.2.3.34.39,2.02,1.3,4.04,2.62,6.62,2.39.75-.06,1.18-.38,1.15-.93-.03-.51-.44-.88-1.12-.77-.65.1-1.07-.18-1.54-.49-.61-.4-1.25-.76-1.87-1.13-.11-.07-.26-.09-.34-.17-.66-.65-1.3-1.31-2.03-2.06.34-.1.68-.15.95-.3.62-.36,1.33-.68,1.8-1.2.84-.93.39-2.4-.82-2.69-.74-.18-1.54-.16-2.31-.14-.87.01-1.37.62-1.75,1.41-1.48-.83-3.38-.67-4.4-2.42.68,0,1.33-.12,1.9.02,1.45.37,2.9.16,4.35.18,1.18.02,1.94-.73,2.54-1.56.53-.74.58-1.61-.18-2.36-.33-.32-.6-.72-.99-1.2.46-.19.87-.36,1.29-.52.79-.3,1.15-.85,1.42-1.68.41-1.23.04-2.36-.08-3.52-.07-.67-.51-1.16-1.11-1.52-.39-.23-.73-.55-1.14-.87.61-1.09.61-2.07.33-3.19-.2-.82-.02-1.76-.33-2.64-.57-1.6-1.42-3.02-2.95-3.75-.97-.47-1.94-1.04-2.92-1.37-1.36-.45-2.88-.49-4.34-.52-.73-.02-1.45.44-2.2.58-.75.14-1.54.08-2.3.22-.84.15-1.64.53-2.48.63-1.59.19-2.6,1.18-3.62,2.27-.61.65-1.38,1.14-2,1.78-.95.98-1.23,2.15-.79,3.47.04.12.05.25.06.38,0,.04-.04.08-.16.29-2.29-.96-4.48-1.98-5.51-4.7.46-.89.92-2,1.57-2.99.72-1.1,1.5-2.16,2.67-2.9.95-.61,1.74-1.48,2.61-2.22.15-.13.35-.27.54-.29,1.16-.15,1.97-.82,2.36-1.44,1.02-.43,1.7-.76,2.4-1.01,1.66-.59,3.32-1.16,5-1.7,2.05-.66,4.19-.23,6.28-.47.17-.02.38-.05.51.03.81.5,1.65.67,2.59.46.2-.04.47.18.69.3.26.15.49.42.77.47.85.16,1.4.6,1.53,1.47,1.18-.4,1.54-1.36.75-2.13-.63-.61-1.29-1.26-2.29-1.37-.47-.06-.92-.36-1.37-.59-.3-.15-.57-.52-.87-.53-1.94-.05-3.71-1.05-5.69-.89-2.58.21-5.13.51-7.56,1.48-.79.32-1.57.65-2.34,1.02-.27.12-.58.3-.7.54-.29.57-.74.63-1.3.63-.29,0-.64.07-.86.24-.6.47-1.06,1.17-1.72,1.49-.65.32-1.38.42-1.82,1.11-.15.23-.45.37-.69.55-.21.15-.5.24-.63.44-1.26,1.85-3.25,3.08-4.26,5.13-.11.22-.38.36-.51.58-.2.33-.48.69-.47,1.04ZM64.43,32.41c1.89-.84,3.55-.53,5.19-.05-1.68.81-3.32.86-5.19.05ZM62.54,26.95c.41-.48.85-.64,1.47-.51.45.09.96.1,1.4-.01.87-.22,1.69-.6,2.56-.83.82-.22,1.55-.52,2.06-1.55.62.97,1.11,1.7,1.55,2.47.08.14,0,.47-.12.59-.31.28-.66.65-1.03.7-1.16.16-2.33.73-3.53.08-.16-.09-.42.02-.64,0-.55-.05-1.11-.06-1.64-.19-.69-.18-1.35-.47-2.08-.73ZM63.16,23.9c-.17.05-.41-.09-.6-.18-.74-.39-1.47-.42-2.21,0-.63.37-1.22.24-1.94-.22,2.44-.9,5.66-1.63,8.37-.8-1.3.44-2.45.84-3.61,1.2ZM56.75,27.87c.21.05.35.04.44.11,1.31.96,2.74,1.56,4.37,1.77.44.06.84.45,1.35.74-.69.43-1.19.75-1.73,1.09-1.17-.7-2.3-1.31-3.36-2.02-.54-.36-1.08-.83-1.06-1.68ZM51.19,17.78c.14-1.05.73-1.84,1.95-1.89.21,0,.44-.04.63-.12,1.39-.56,2.78-1.14,4.17-1.71.9-.37,1.81-.44,2.76-.14.4.13.85.12,1.27.17.6.07,1.19.11,1.79.19.76.11,1.52.25,2.42.4.1.11.28.37.52.54,1.3.91,1.87,2.25,2.12,3.72.07.42-.23.96-.5,1.35-.1.14-.67.11-.91-.03-1.84-1.06-3.83-.8-5.75-.58-1.37.16-2.75.56-3.91,1.55-.7.59-1.63.93-2.5,1.3-.33.14-.79.12-1.14.02-1.22-.36-2.13-1.27-2.74-2.26-.39-.64-.27-1.68-.15-2.51Z"/>
        <path class="cls-5" d="M94.43,75.63c.37,1.21-.14,2.53.79,3.63-.79,1.06-.53,2.2-.33,3.35.07.4,0,.83-.02,1.24-.02.26-.13.51-.12.76.06.96.15,1.92.23,2.9-.13,0-.25.04-.26.01-.75-1.59-1.77-2.97-3.06-4.17-.32-.3-.45-.81-.62-1.14.73-1.43,1.3-2.84,2.13-4.07.53-.79,1.02-1.55,1.25-2.51Z"/>
        <path class="cls-9" d="M94.66,63.24c.14.53.25.97.35,1.32-1.23,1.03-2.41,2-3.58,2.99-.15.13-.22.36-.33.55-.44.79-.92,1.48-1.81,1.92-.52.25-.87.93-1.19,1.48-.46.77-.79,1.59-1.67,2.07-.38.21-.56.79-1.01,1.47,0-.58.02-.85,0-1.11-.04-.55-.05-1.11-.16-1.65-.11-.52.12-.91.5-1.07,1.67-.68,2.73-2.07,3.96-3.26.93-.89,1.86-1.78,2.8-2.67.67-.64,1.35-1.28,2.14-2.03Z"/>
        <path class="cls-1" d="M42.91,173.51c.29-.5.6-.99.86-1.51.34-.67.94-1.15,1.49-1.01.64.15.97.65,1.18,1.25.41,1.15.29,2.28-.05,3.41-.21.69-.92.98-1.68.69-1.28-.48-1.76-1.53-1.81-2.83Z"/>
        <path class="cls-4" d="M110.25,86.87c1,.44,1.83.77,2.63,1.18.55.28.78.8.65,1.42-.13.63-.58.98-1.19,1.02-.81.06-1.63.1-2.41-.3-.49-.25-1.05-.38-1.59-.51-1.36-.32-1.83-1.31-1.36-2.62.51-1.44,1.44-2.58,2.32-3.78.38-.51.66-1.04.88-1.67.39-1.12,1.05-2.15,1.66-3.18.33-.55.79-1.02,1.23-1.5.41-.46.98-.53,1.37-.18.43.38.34.8.12,1.29-.5,1.08-.93,2.2-1.4,3.29-.19.43-.32.94-.63,1.26-.51.51-.77,1.12-1.01,1.76-.26.68-.44,1.39-1.09,1.87-.15.11-.14.46-.19.64Z"/>
        <path class="cls-4" d="M113.32,100.48c-.77,0-1.55.02-2.32,0-.34-.01-.7-.04-1.01-.16-.88-.34-1.74-.74-2.61-1.12-.93-.4-1.32-1.2-.98-1.96.33-.72,1.14-1,1.99-.55.69.36,1.39.33,2.11.45,1.66.28,3.32.06,4.98.18.72.06,1.24.52,1.36,1.18.11.66-.22,1.38-.88,1.56-.86.24-1.76.34-2.64.5,0-.02,0-.05,0-.07Z"/>
        <path class="cls-3" d="M120.11,69.06c.3.2.63.33.84.58,1.09,1.27,2.5,1.7,4.11,1.74.47.01.83-.06,1.17-.37.19-.17.42-.31.66-.4.7-.26,1.97.06,2.12.51.17.52-.51,1.75-1.16,2.01-.31.13-.67.16-1.01.22-.21.04-.5-.05-.63.07-1.18,1-2.48.38-3.71.25-1.3-.14-3.03-2.83-2.75-4.12.03-.15.19-.27.35-.49Z"/>
        <path class="cls-14" d="M124.06,81.25c-1.31,0-1.83-.82-2.32-1.62-.54-.87-.4-1.75.19-2.53.3-.4.73-.75,1.17-.99.52-.28,1.1-.48,1.68-.58.72-.12.79.68,1.19,1.02.82.7,1.13,1.58.61,2.53-.58,1.08-1.44,1.9-2.52,2.17Z"/>
        <path class="cls-14" d="M101.97,77.11c-.06-.87.15-1.77.89-2.17.83-.45,1.83-.38,2.73.1.74.39,1.06,1.01.98,1.81-.09.85-.1,1.78-1.1,2.17-.36.14-.73.31-1.11.35-1.46.16-2.56-.64-2.38-2.26Z"/>
      </g>
      <path class="cls-8" d="M107.17,82.84c-.12,1.08-2.11,1.75-4.43,1.49s-4.11-1.36-3.99-2.44c.12-1.08,2.11-1.75,4.43-1.49,2.32.26,4.11,1.36,3.99,2.44Z"/>
      <path class="cls-8" d="M127.74,84.68c-.12,1.08-2.11,1.75-4.43,1.49-2.32-.26-4.11-1.36-3.99-2.44.12-1.08,2.11-1.75,4.43-1.49,2.32.26,4.11,1.36,3.99,2.44Z"/>
    </g>
  </g>
</svg>