<?xml version="1.0" encoding="UTF-8"?>
<svg id="_レイヤー_2" data-name="レイヤー 2" xmlns="http://www.w3.org/2000/svg" viewBox="0 0 219.29 210.05">
  <defs>
    <style>
      .cls-1 {
        fill: #c7cfd2;
      }

      .cls-2 {
        fill: #fbd375;
      }

      .cls-3 {
        fill: #81c0e9;
      }

      .cls-4 {
        fill: #f08f69;
      }

      .cls-5 {
        fill: #fcfbfb;
      }

      .cls-6 {
        fill: #fff;
      }

      .cls-7 {
        fill: #6e543d;
      }

      .cls-8 {
        fill: #fad9c7;
      }

      .cls-9 {
        fill: #6c5540;
      }

      .cls-10 {
        fill: #6d5641;
      }
    </style>
  </defs>
  <g id="_レイヤー_1-2" data-name="レイヤー 1">
    <g>
      <g>
        <g>
          <path class="cls-3" d="M218.82,168.12c-.56-1.18-.88-2.32-.71-3.6.01-.09.03-.19,0-.27-.13-.37-.23-.76-.43-1.09-.65-1.1-1.4-2.14-1.97-3.27-.28-.57-.46-1.14-1.02-1.52-.13-.09-.18-.34-.23-.52-.28-.97-.59-1.91-1.34-2.66-.25-.24-.44-.57-.57-.89-.37-.87-.77-1.67-1.77-1.98-.15-.05-.29-.26-.35-.43-.36-.97-.58-2.01-1.06-2.91-.63-1.19-1.59-2.2-1.99-3.53-.04-.15-.14-.28-.24-.4-.79-.96-1.19-2.21-2.29-2.93-.15-.1-.2-.34-.29-.52-.44-.88-.85-1.78-1.31-2.64-.39-.74-.85-1.45-1.27-2.17-.53-.92-1.11-1.83-1.58-2.78-.94-1.88-2.02-3.65-3.66-5-.15-.12-.28-.3-.35-.48-.23-.6-.36-1.24-.65-1.81-.5-1-1.25-1.79-2.24-2.34-.29-.16-.64-.2-.92-.35-.59-.32-1.1-.23-1.63.16-.2.15-.46.25-.71.29-.74.13-1.48.21-2.23.32-.55.54-1.2.71-1.96.62-.33-.04-.63-.26-.98-.16-.49.2-1.02.13-1.53.15-.38.01-.79-.09-1.13.08-1.05.54-2.24.63-3.3,1.11-.23.19-.15.45-.16.69-.04.68-.4,1.14-1.04,1.21-1.01.12-1.73.81-2.59,1.24-.2.1-.25.28-.19.52.49,1.73,1.34,3.27,2.53,4.61.98,1.1,1.86,2.28,2.23,3.72.22.88.55,1.66,1.19,2.29.23.23.38.53.36.85-.06.76.28,1.35.73,1.89.42.51.76,1.08.99,1.68.32.84.85,1.6.98,2.49.14.94.45,1.75,1.06,2.49.56.68.79,1.59,1.41,2.26.03.03.05.08.05.13,0,.98.58,1.67,1.11,2.39.21.29.36.63.42.99.07.41.27.75.54,1.06.48.54.78,1.16.69,1.91-.03.29-.14.51-.47.57-.66.11-1.76-.34-2.03-.97-.29-.68-.71-1.24-1.12-1.83-.26-.37-.39-.82-.45-1.26-.09-.64-.27-1.22-.81-1.64-.2-.15-.29-.4-.37-.63-.42-1.2-.96-2.36-1.44-3.54-.2-.48-.67-.74-.87-1.18-.7-1.5-1.65-2.9-2.01-4.55-.08-.34-.22-.63-.55-.81-.51-.28-.77-.73-.87-1.29-.1-.54-.27-1.07-.67-1.45-.68-.65-1.12-1.45-1.57-2.26-.45-.81-.79-1.66-1.2-2.49-.9-1.84-2.08-3.53-2.56-5.59-.23-1-.08-1.7.62-2.36.5-.47,1.05-.83,1.75-.96.62-.11,1.22-.31,1.84-.4.26-.04.54-.1.64-.42.16-1.1-.45-1.85-1.38-2.05-.93-.2-1.82-.45-2.71-.77-.5-.18-.97-.29-1.27-.77-.11-.17-.25-.32-.44-.41-.82-.39-1.4-1.01-1.8-1.82-.75-.03-1.43-.28-2.01-.76-.12-.1-.27-.16-.42-.19-.58-.27-1.22-.21-1.81-.38-.73-.21-1.44-.22-2.17-.11-.11.04-.18.12-.25.21-.55.69-.74.71-1.47.17-.21-.16-.43-.32-.69-.4-.36-.06-.71-.03-1.07.02-.63.08-1.15-.08-1.44-.71-.14-.28-.32-.54-.61-.7-.49-.25-.86-.63-1.2-1.05-.37-.45-.81-.83-1.28-1.17-.48-.35-1-.49-1.55-.11-.22.5-.63.83-1.02,1.18-.59.86-.99,1.78-1.1,2.83-.02.15-.11.29-.18.44-.11.25-.18.52-.12.79.13.6-.11,1.1-.44,1.57-.37.52-.57,1.11-.62,1.75.38.93.32,1.77-.52,2.44-.08.07-.13.18-.16.28-.31,1.38-.92,2.67-1.4,3.99-.33.9-.77,1.79-1.07,2.72-.41,1.26-1,2.45-1.55,3.65-.36.78-.67,1.57-.6,2.45.03.43-.12.78-.44,1.08-.43.41-.65.92-.58,1.52.12,1.11-.14,2.13-.67,3.1-.32.59-.63,1.19-.83,1.83-.28.88-.59,1.74-1.01,2.55-.23.45-.4.9-.38,1.41.03.45-.1.84-.36,1.2-.3.41-.52.86-.44,1.38.09.68.07,1.33-.2,1.96.27.52.48,1.09,1.07,1.37.23.06.45.02.65-.1.69-.41,1.45-.41,2.22-.39.85.02.93.08,1.14.9.16.63.42,1.17,1.07,1.45.39.17.77.45.91.86.36,1.09,1.29,1.69,2.06,2.41.93.88,1.61,1.84,1.69,3.15.02.34-.11.67,0,1,.5.95,1.44,1.53,1.99,2.43.37.6,1.04.89,1.41,1.49.51.84,1.19,1.58,2.04,2.02.63.32.98.69,1.11,1.36.1.51.31,1,.94,1.08.27-.08.55-.24.82-.23,1.26.05,2.51.21,3.77.23,1.24.02,2.49-.08,3.74-.12.04,0,.09,0,.13.01,1.5.53,2.95-.27,4.43-.16.13,0,.28-.16.42-.25.08-.15.02-.3-.01-.45-.19-.87.09-1.24.99-1.29.39-.02.8.01,1.18-.15,0,0,0-.01.01-.02-.02,0-.04,0-.06,0,.19-1.1.34-2.2.57-3.29.18-.85.45-1.67.29-2.57-.03-.16.17-.39.31-.56.76-.94,1.16-1.97.77-3.18-.2-.62.23-.96.63-1.08.27-.08.71.22,1,.45.46.37.84.83,1.27,1.23.42.39.84.8,1.3,1.14.63.46,1.28.87,1.95,1.28.68.42,1.38.81,2.08,1.22.09.06.21.12.26.21.63,1.16,1.76,1.7,2.84,2.33.68.4,1.25.98,1.84,1.52.61.56,1.28,1,2.12,1.01.48,0,.77.17.94.59-.02.02-.04.02-.05.04,0,0,0,0,0,0,1.05.03,1.76.53,2.08,1.54.02.06.1.09.16.12.85.13,1.73.26,2.52-.08.71-.3,1.41-.4,2.16-.38.65.01,1.3.03,1.93-.21.34-.13.72-.1,1.06.03.72.26,1.51.16,2.24.42.25.09.54,0,.79-.11,1.47-.65,2.91-.59,4.32.18.26.14.54.21.84.23.78.03,1.53.28,2.32.34.82.06,1.34.62,1.67,1.38.34.78,1.18,1.22,1.77,1.04.42-.6.83-1.2,1.25-1.8.01-.09,0-.17-.04-.26-.32-.86-.16-1.21.69-1.54.27-.1.57-.13.77-.37.03-.06.05-.13.09-.18,1.13-1.33,1.11-2.84.43-4.28Z"/>
          <path class="cls-9" d="M185.92,121.43c-.21-.11-.5-.26-.55-.45-.28-1.03-.91-1.72-1.85-2.19-.24-.12-.44-.35-.6-.58-.88-1.24-1.64-2.6-2.66-3.72-.63-.7-1.05-1.49-1.47-2.28-.6-1.14-1.5-2.09-1.94-3.32-.08-.23-.39-.37-.56-.57-.14-.18-.29-.38-.34-.6-.29-1.14-.87-2.07-1.71-2.9-.57-.57-1.04-1.24-1.51-1.9-.32-.45-.54-.97-.86-1.42-.35-.49-.8-.61-1.33-.21-.12.09-.4.13-.53.05-.59-.36-1.19-.28-1.83-.21-.73.08-1.47.07-2.21.1-.88.03-1.82-.18-2.54.58-.06.06-.25.04-.36,0-.42-.14-.83-.29-1.26-.45.15-.53.19-1.18.5-1.67.86-1.35.95-2.81.88-4.33-.02-.46,0-.94.07-1.39.17-.97.52-1.92.57-2.89.05-.97-.02-1.93.25-2.89.17-.63.08-1.33.08-2,0-.91-.02-1.82-.03-2.73,0-.45-.01-.9-.02-1.36-.02-.09-.03-.17-.05-.26-.16-.68-.51-1.19-1.24-1.33-.68-.13-1.21.17-1.64.88-.04.07-.11.13-.17.2-.12.12-.16.27-.17.43-.08,1.07-.4,2.12-.36,3.2.05,1.29-.63,2.5-.36,3.8.04.2-.07.4-.15.58-.37.82-.48,1.66-.39,2.56.07.66.11,1.39-.05,2-.36,1.45-.5,2.91-.65,4.39-.06.58-.35,1.19-.8,1.6-.64.58-1.08,1.28-1.34,2.07-.23.7-.54,1.15-1.33,1.14-.19,0-.39.11-.56.22-.95.65-1.8,1.42-2.56,2.28-.24.28-.47.53-.81.68-.66.29-1.17.75-1.47,1.42-.14.3-.34.53-.66.64-.5.17-.89.5-1.29.84-.72.61-1.26,1.48-2.32,1.62-.06,0-.12.06-.17.1-.67.53-1.35,1.04-2.05,1.54-.47.34-.78.81-.88,1.39-.05.32-.23.5-.52.64-.89.44-1.71.97-2.34,1.77-.59.73-1.41,1.25-1.94,2.05-.11.17-.32.25-.48.37-.32.24-.61.2-.92-.03-1.52-1.14-2.94-2.38-4.13-3.87-.7-.86-1.55-1.57-2.5-2.13-.61-.36-1.03-.8-1.37-1.41-.52-.95-1.21-1.75-2.48-1.65-.31.02-.63-.09-.89-.27-.59-.4-1.27-.34-1.92-.47-.62-.13-1.05-.83-1.77-.89-.07,0-.13-.03-.2-.04-.25-.04-.47-.14-.67-.3-.36-.28-.78-.43-1.21-.57-1.33-.41-2.6-.86-3.58-1.99-.59-.68-1.25-1.43-2.23-1.68-.27-.07-.33-.35-.38-.59-.12-.55-.37-1.02-.86-1.32-.37-.23-.55-.53-.62-.97-.18-1.03-1.01-1.82-1.88-1.84-.98-.02-1.86-.45-2.78-.67-.62-.15-1.19-.51-1.84-.65-.5-.11-.84-.38-.94-.93-.07-.4-.22-.82-.56-1.05-.69-.46-.67-1.1-.57-1.79.09-.67.21-1.3.61-1.9.37-.57.6-1.26.12-1.93-.69-.69-1.61-.67-2.6.07-.38.65-.79,1.29-1.12,1.96-.26.52-.45,1.08-.63,1.63-.21.6-.09,1.2.34,1.63.36.36.36.69.28,1.14-.22,1.23.31,2.12,1.47,2.63.22.1.4.32.59.5.74.69,1.38,1.59,2.25,2.03.96.49,2.14.57,3.23.79.23.05.49-.04.72-.11.78-.23.89-.14.8.7-.14,1.21.32,1.95,1.47,2.4.22.09.57.23.59.38.13.94.82,1.46,1.42,2.04.64.87,1.44,1.43,2.58,1.4.19,0,.39.17.57.28,1.15.66,2.3,1.32,3.45,1.97.65.75,1.39,1.28,2.46,1.04.26-.06.49.06.69.2.66.46,1.36.62,2.17.48.62-.11,1.11.11,1.54.69.58.78.89,1.72,1.54,2.43.58.63,1.16,1.25,1.76,1.86.33.34.54.81.98,1,.69.3,1.2.79,1.64,1.36.5.65,1.13,1.18,1.73,1.72-.22.35-.5.5-.73.71-.45.41-1.05.68-1.33,1.23-.51.98-1.34,1.73-1.84,2.72-.22.43-.56.8-.88,1.19-.66-.46-1.28-.93-2-1.17-.47-.16-.82-.42-1.14-.79-.76-.87-1.78-1.19-2.9-1.19-.42,0-.86.04-1.11.48-.11.43-.35.88-.31,1.3.05.45.37.88.57,1.31.19.34.37.72.71.88,1.09.51,2.04,1.24,3.04,1.9.71.47,1.6.56,2.33,1.04.59.38,1.58.18,1.95-.43.67-1.09,1.81-1.66,2.64-2.58,1.04-1.17,2.2-2.23,2.74-3.75.06-.16.1-.37.32-.4.24-.03.36.17.45.34.27.52.66.9,1.21,1.11.22.08.35.26.5.44.69.83,1.3,1.74,2.38,2.12.17.06.29.21.41.35,1.25,1.46,2.95,1.88,4.71,1.16.58-.23,1.05-.6,1.45-1.08.16-.19.31-.37.53-.51.95-.61,1.63-1.5,2.3-2.39,1.07-1.02,1.21-1.58.67-2.65-.71-.46-1.55-.38-2.22.19-.58.49-1.11,1.05-1.77,1.44-.41.24-.77.49-1.11.85-.39.41-.91.89-1.5.63-.65-.29-1.43-.45-1.8-1.21-.08-.16-.26-.25-.41-.34-1.06-.63-2.01-1.39-2.71-2.38.96-.61,1.71-1.51,2.75-2.01.14-.07.22-.22.31-.35.27-.34.55-.66.89-.91.74-.56,1.19-1.34,1.63-2.12.21-.36.41-.6.83-.7.68-.16,1.24-.53,1.56-1.18.33-.67.79-1.25,1.29-1.8.5-.55.65-.54,1.02.11.65,1.14,1.61,1.91,2.83,2.38.27.1.55.23.83.01.36-.38.72-.77,1.08-1.15h0c-.18-.47-.35-.94-.5-1.35.73,0,1.56.19,2.24-.05.69-.24,1.23-.91,2-1.53.17.84.28,1.55.46,2.24.19.72.43,1.43.67,2.13.11.31.25.62.38.92.24.57.61.97,1.27,1.07.18.03.32.24.48.37,0,0,0,0,0,0,.2.13.43.24.61.4.82.72,1.34.6,1.76-.39.08-.74-.19-1.38-.72-1.85-.77-.68-1.45-1.38-1.6-2.46-.05-.38-.23-.75-.51-1.01-.73-.67-.8-1.56-.95-2.49.42-.14.86-.14,1.25-.32.42-.2.67-.63,1.07-.81.65-.29,1.19-.71,1.65-1.24.18-.21.47-.25.74-.3.47-.08.91-.24,1.3-.53.55-.41.76-1.1.54-1.75-.18-.56-.74-.89-1.44-.88-.4,0-.83.06-1.06.35-.79.98-1.83.98-2.92.87-.13-.01-.27,0-.4,0-.79.05-1.27.47-1.45,1.26-.26,1.12-.73,2.07-1.9,2.49-.27.1-.49.31-.74.48.35-.87.65-1.74.57-2.69-.02-.23.1-.44.28-.59.56-.48.96-1.06,1.15-1.78.05-.2.18-.35.39-.44.9-.37,1.82-.63,2.81-.38.22.05.47.16.66.08,1.22-.5,2.43-.07,3.65,0,.54.03,1.07-.1,1.61-.14,1.09-.07,2.21,0,3.2-.63.25-.17.64-.23.74.14.21.74.75,1.31.9,2.09.19.98.71,1.84,1.34,2.6.27.32.48.63.57,1.04.17.77.55,1.42,1.18,1.91.22.17.41.36.47.64.09.44.38.75.66,1.08.54.65,1.09,1.3,1.37,2.14.51,1.52,1.53,2.76,2.35,4.11.1.17.29.29.47.38.4.21.65.53.82.94.33.81.92,1.39,1.71,1.73.42.19.67.44.84.87.27.69.71,1.29,1.47,1.55,1.3.59,2.22.42,2.79-.52.33-1.66-.63-2.58-2.11-3.33ZM152.36,112.72c-.42-.23-.82-.45-1.3-.71.38-.55.68-1.05,1.3-1.1v1.81Z"/>
          <path class="cls-3" d="M77.59,175.94c-.22-.39-.51-.75-.64-1.16-.34-1.08-.56-2.21-.93-3.28-.16-.46-.53-.87-.87-1.24-.29-.33-.44-.61-.32-1.07.21-.83-.17-1.52-.71-2.14-.52-.6-.76-1.28-.66-2.09.04-.32-.02-.67-.13-.97-.23-.65-.49-1.28-.79-1.9-.24-.51-.57-.99-.81-1.5-.15-.31-.16-.69-.3-1.01-.22-.51-.5-.99-.76-1.48.78-1.52,1.57-3.04,2.33-4.57.1-.21.07-.48.11-.72.07-.39.02-.89.24-1.16.52-.64.84-1.35,1.08-2.11.47-1.48.93-2.97,1.39-4.45.02-.06,0-.15.03-.2.78-1.15,1.16-2.49,1.85-3.68.12-.22.17-.48.23-.73.12-.45.16-.92.35-1.33.37-.83.72-1.71,1.25-2.44.86-1.18,1.11-2.62,1.84-3.84.08-.13.07-.31.15-.44.2-.37.32-.88.64-1.08,1.5-.94,1.68-2.46,1.88-3.97.1-.79.33-1.47,1.08-1.91.17-.1.29-.41.29-.62.02-1.32.55-2.37,1.48-3.28.2-.2.29-.52.4-.8.44-1.02.85-2.06,1.31-3.07.1-.22.4-.34.6-.52.13-.11.31-.21.39-.36.36-.68.69-1.38,1.03-2.07.06-.12.09-.29.19-.35.88-.52,1-1.55,1.54-2.3.49-.69.99-1.37,1.5-2.05.45-.59,1.14-.56,1.78-.65.42-.06.84-.13,1.26-.16.3-.02.6.03.9.04.26,0,.56.08.77-.03,1.02-.51,2.08-.6,3.19-.44.29.04.62-.06.92-.12.22-.04.43-.14.65-.16,1.07-.1,2.14-.17,3.21-.26.19-.02.39-.07.57-.15.61-.26,1.21-.43,1.88-.16.23.09.53.03.8.04.36,0,.78-.1,1.06.05.71.39,1.19.02,1.7-.34.24,0,.34.2.48.33.55.52,1.15.93,1.96.88.25-.01.48.06.68.22,1.03.83,2.14,1.52,3.35,2.07.1.05.19.12.26.21.26,1.13.48,2.27.73,3.4.23,1.04.38,2.1.62,3.15.33,1.43.57,2.89.54,4.38,0,.18-.05.37.05.53.44.71.41,1.55.64,2.31-.17.66-.51,1.3-.12,2,.15.27.37.51.45.82.64,1.5.82,3.1.95,4.71.08.95.42,1.86.54,2.82.05.4.17.8.1,1.19-.12.61.04,1.14.28,1.69.43,1.02.68,2.09.51,3.21-.74.87-1.24,1.9-1.92,2.81-.23.31-.46.61-.46,1.01,0,.21,0,.43.19.55.94.64,1.37,1.75,2.24,2.47.25.21.45.49.77.63.28.13.48.33.56.63.19.51.3,1.01.19,1.57-.09.42.05.85.24,1.23.26.51.28,1.03.08,1.56-.11.3-.19.61.01.9.62.87.6,1.9.7,2.89.04.41.12.79.31,1.15-.21.89-.68,1.64-1.25,2.34-.23.28-.56.26-.88.17-1.09-.31-2.24-.26-3.32-.5-1.17-.25-2.33-.48-3.52-.68-.95-.16-1.84-.49-2.83-.33-.61.1-1.18-.24-1.76-.4-.52-.15-1.01-.17-1.52-.02-.94.28-1.83.25-2.72-.29-.71-.43-1.57-.29-2.37-.35-.18-.01-.37.07-.53,0-1.13-.5-2.24-.17-3.37-.02-1.13.16-2.27.06-3.3-.52-.18-.1-.38-.19-.58-.16-1.02.17-2-.24-3.01-.16-.9.07-1.73-.21-2.56-.49-.47-.16-.63-.46-.55-.93.04-.22.07-.45.19-.64,1.2-2.02,1.63-4.24,2.01-6.53.22-1.31.38-2.66.76-3.95.28-.95.44-1.93.67-2.89.11-.48.01-.94-.22-1.37-.21-.4-.19-.77.1-1.13.36-.44.49-.95.41-1.52-.05-.29-.02-.58.08-.86.04-.13.12-.26.1-.39-.19-1.52.55-2.98.4-4.46-.14-1.3.22-2.47.41-3.69.06-.38.04-.76-.02-1.14-.1-.71-.27-1.42-.09-2.14.02-.06.01-.13,0-.2-.02-.52-.34-1.02-.71-1.02-.51,0-.94.32-.97.78-.13,1.9-1.13,3.66-.83,5.62.02.16,0,.32-.06.46-.55,1.23-.82,2.51-.58,3.86.02.09.03.19-.01.27-.47.92-.13,1.96-.45,2.9-.11.33-.06.67.05,1,.18.5.1.92-.29,1.29-.41.38-.56.89-.69,1.43-.39,1.61-.61,3.26-.9,4.89-.25,1.37-.49,2.73-.87,4.06-.08.28-.06.58-.05.87.02.53-.04,1.03-.3,1.5-.14.26-.23.55-.19.85.07.46-.16.8-.31,1.2-.52,1.41-1.51,2.3-2.81,3.01-.9.49-1.64,1.25-2.25,2.1-.15.21-.33.38-.57.46-.73.25-1.15.85-1.55,1.45-.36.53-.34,1.1,0,1.65.32.53.81.78,1.42.72.94-.09,1.75-.43,2.28-1.25.22-.35.53-.59.86-.83.98-.71,1.65-1.71,2.28-2.72.58-.94.72-.98,1.58-.27.49.4,1.07.46,1.65.49.52.03,1.05.06,1.52.26,1.14.5,2.4.32,3.56.66.19.06.41.03.6-.03,1.66-.49,3.23-.26,4.73.59.32.18.67.32,1.03.26,1.03-.17,2.01.13,3.01.24.43.05.85.05,1.26-.11.67-.27,1.3-.27,1.93.13.77.48,1.61.65,2.52.58.66-.05,1.29.02,1.89.35.49.27,1.05.19,1.59.18.55,0,1.08.02,1.55.34.13.09.29.17.44.15,1.88-.15,3.65.74,5.53.59.56-.04,1.12,0,1.66-.22.14-.06.3-.1.45.02.21.46.23.96.16,1.45-.19,1.23-.31,2.46-.38,3.71-.1,1.72,0,3.49-.48,5.18,0,.04,0,.1-.04.13-.48.54-.39,1.04.11,1.5-.07.18-.13.5-.22.51-1.13.13-2.26.21-3.39.3-.04,0-.1,0-.13-.03-1.24-.93-2.52-.22-3.79-.09-.41.04-.84.01-1.25,0-.84-.01-1.69-.03-2.53-.04-.31,0-.63,0-.94,0-.56-.02-1.12-.04-1.67-.11-.54-.07-1.07-.24-1.61-.28-.45-.03-.94-.02-1.37.12-.97.32-1.84.14-2.74-.24-.27-.11-.63-.16-.89-.08-1.28.38-2.52.22-3.81.02-1.48-.22-2.98-.3-4.48-.29-.83,0-1.65.37-2.49.42-.58.03-1.18-.21-1.77-.29-.34-.04-.69,0-1.03,0-.33.02-.68.13-1,.07-.98-.17-1.96-.42-2.94-.6-.24-.04-.5.09-.75.11-.43.04-.86.06-1.29.07-.73.02-1.46-.04-2.17.08-.66.11-1.22.09-1.77-.33-.17-.13-.52-.23-.69-.14-.9.45-1.83.32-2.76.27-.49-.03-.98-.05-1.46-.08Z"/>
          <path class="cls-4" d="M132.26,46.43c.63-.11,1.26-.26,1.9-.32.93-.09,1.88-.22,2.81-.14.92.08,1.88-.11,2.72.04,1.22.23,2.56-.04,3.67.77.41.31.89.28,1.4.05.69-.31,1.77.06,2.26.78.33.49.71.56,1.21.41.8-.23,1.5-.09,2.09.52.11.12.3.2.46.22.65.08,1.31.13,1.97.19.09,0,.18.04.25.09,1,.79,2.37,1.02,3.21,2.07.09.11.25.16.38.23.76.41,1.53.81,2.29,1.22.09.05.18.16.21.25.6,1.64,2.14,2.48,3.18,3.74.11.14.21.3.28.46.37.91.7,1.83,1.09,2.72.29.65.61,1.3,1,1.9.62.97.77,2.02.77,3.14,0,.35.14.71.26,1.05.17.48.39.94.57,1.41.11.29.17.6.25.89.05.19.2.41.16.57-.44,1.7.63,3.48-.25,5.16-.04.07-.04.19,0,.26.63,1.43-.35,2.63-.55,3.93-.07.44,0,.92.09,1.36.24,1.13-.14,2.06-1.14,2.53-.21.1-.47.11-.71.16-.22-.18-.24-.47-.37-.7-.5-.9-1.54-1.02-2.22-.25-.19.21-.3.5-.63.56-1.32-.08-2.64.08-3.96.04-.39-.01-.78-.1-1.09-.32-.47-.33-.93-.38-1.46-.21-.41.14-.84.14-1.26.03-1.49-.4-3.04-.47-4.56-.76-1.32-.25-2.72-.15-4.08-.27-1.36-.12-2.73.2-4.07-.2-.2-.16-.08-.33,0-.48.42-.81.37-1.64.13-2.49-.06-.2-.11-.39-.08-.6.24-1.62-.27-3.11-.88-4.56-.19-.46-.3-.93-.38-1.42-.2-1.24-.81-2.32-1.56-3.31-.31-.4-.8-.51-1.29-.3-.49.22-.79.61-.75,1.16.1,1.26.3,2.49.92,3.62.3.54.22,1.14.32,1.71.21,1.17.3,2.36.77,3.47.07.17.08.35.08.53-.02.97.07,1.89.86,2.59.08.07.11.19.03.3-1.01.36-2.08.27-3.12.4-2.23.28-4.43.69-6.63,1.15-2.37.49-4.67,1.28-7.04,1.77-.27.05-.54.07-.8.06-.65-.02-1.3,0-1.92.28-.23.1-.48.13-.72,0-.26-.32-.3-.71-.3-1.08,0-.74-.17-1.41-.46-2.08-.26-.6-.42-1.23-.38-1.9.01-.18.02-.38-.06-.53-.48-.91-.37-1.98-.77-2.91-.1-.23-.1-.48-.1-.73,0-.27,0-.54-.01-.81-.05-.76-.41-1.28-.91-1.33-.53-.06-1.23.5-1.19,1.23.06,1.14-.32,2.2-.36,3.31-.08,1.86.31,3.66.59,5.47.15,1.01.85,1.76,1.67,2.35.06.26-.16.3-.32.34-1.28.32-2.55.69-3.77,1.2-.23.1-.48.1-.73.06-.54-.08-.95.17-1.35.49-.33.26-.33.58-.25.97.14.67.34,1.36-.11,2.01-.36.54-.88.74-1.51.58-.89-.23-1.8-.35-2.67-.65-.52-.18-1,.2-1.52.17-.88-.71-1.79-.46-2.7-.06-.89-.56-1.29-1.44-1.42-2.41-.08-.64-.22-1.23-.43-1.85-.45-1.35-.72-2.78-.43-4.23.12-.59.32-1.15-.2-1.7-.2-.22-.25-.62-.29-.95-.11-.88-.26-1.77-.25-2.66,0-.96.18-1.91.27-2.87.04-.47.06-.94.11-1.41.05-.51.04-1.05.2-1.52.49-1.41.92-2.87,1.65-4.16.45-.79.65-1.42.65-2.34,0-1.09.87-1.94,1.82-2.57.23-.15.44-.35.59-.57.21-.31.34-.66.51-.99.29-.54.54-1.11.89-1.61.41-.58.89-1.11,1.36-1.65.23-.26.56-.45.77-.73.86-1.16,2.17-1.65,3.37-2.3.75.89,1.65.97,2.65.51.26-.12.52-.12.79-.01,1.09.43,2.25.48,3.38.49.87.01,1.74-.37,2.62-.49.19-.03.38-.17.5-.33.78-.98,1.9-1.38,3-1.84.69-.29,1.33-.67,1.89-1.15.29-.25.59-.38.98-.33.77.1,1.44-.11,2.09-.56.72-.5,1.63-.57,2.4-1.03.92-.55,1.67-1.13,1.63-2.32Z"/>
          <path class="cls-1" d="M171.38,173.8c1.11-.03,2.28.3,3.3-.45.11-.08.3-.04.46-.06,1.01-.11,2.01.05,3.04-.21.82-.21,1.83,0,2.66.29.66.23,1.13.1,1.71-.09,1.28-.44,2.54-.41,3.79.17.41.19.87.28,1.32.38.96.2,1.97.28,2.88.61.42.15.78.72.97,1.19.32.77.98.93,1.63,1.16.26.33.47.75.8.99.73.54,1.53.99,2.29,1.49.15.1.31.22.38.38.64,1.48,1.99,2.12,3.26,2.89.31.19.6.51.75.84.46,1,1.2,1.6,2.22,2.01,1.01.41,1.99.94,2.47,2.03.08.18.31.29.49.42.36.28.72.56,1.09.84.46.34.97.63,1.39,1.01,1.25,1.15,2.46,2.33,3.69,3.5.06.06.12.16.19.18,1.13.21,1.43,1.25,2.06,1.98.59.69,1.03,1.58,2.13,1.73.87.12,1.37,1.28,1.05,2.14-.33.91-1.31,1.32-2.19.97-.46-.18-.97-.25-1.43-.45-.32-.14-.59-.41-.8-.56-1.11-.15-2.17-.27-3.22-.45-1.78-.3-3.55-.64-5.33-.95-.12-.02-.26.04-.39.05-.59.01-1.19.02-1.78.02-.15,0-.32-.07-.46-.03-.82.24-1.58.19-2.27-.38-.12-.1-.36-.14-.51-.1-.77.21-1.54.42-2.29.69-.73.26-1.41.39-2.1-.1-.17-.12-.49-.11-.71-.04-.58.19-1.13.59-1.72.65-1.3.14-2.62.12-3.93.18-.16,0-.37.05-.48.15-.61.58-1.37.65-2.16.78-.67.11-1.32.45-1.94.76-.9.46-1.58,1.32-2.69,1.38-.1,0-.22.06-.3.12-1.19.86-2.33,1.81-3.58,2.56-.73.43-1.4.86-1.88,1.55-.14.2-.27.4-.41.61-.39.1-.53-.22-.74-.44-.96-.99-1.79-2.12-3.08-2.74-.17-.08-.33-.17-.4-.34-.35-.8-1.03-1.23-1.78-1.56-.53-.24-.88-.59-1.06-1.14-.15-.44-.46-.77-.86-1-.52-.29-.94-.7-1.33-1.12-.39-.41-.74-.84-1.32-.99-.11-.03-.22-.1-.26-.2-.26-.76-1-1.14-1.4-1.79-.42-.67-1.14-.94-1.8-1.24-.54-.25-.96-.67-1.45-.93-1.1-.58-1.76-1.51-2.4-2.49-.41-.62-.85-1.15-1.61-1.32-.23-.05-.32-.3-.42-.5-.27-.56-.69-.95-1.32-1.03-.53-.07-.81-.5-1.1-.83-.41-.47-1.07-.78-1.16-1.49.24-.34.43-.72.72-1.02.85-.89,1.65-1.82,2.8-2.39.49-.24.77-.86,1.22-1.22.42-.34.95-.54,1.42-.82.56-.34,1.12-.68,1.64-1.07.46-.35.87-.77,1.31-1.15.13-.11.29-.22.46-.27.85-.29,1.72-.51,2.54-.87.56-.25,1.03-.68,1.54-1.04.36-.37.85-.34,1.3-.46.65-.18,1.33-.09,1.98-.3.2-.06.39.05.57.13,1.26.55,1.88.3,2.42-.95.04-.08.08-.16.15-.22Z"/>
          <path class="cls-1" d="M173.66,209.14c-1.44.01-2.81-.15-4.09-.93-.81-.49-1.76-.76-2.64-1.15-.79-.35-1.54-.81-2.36-1.09-.81-.28-1.69-.38-2.53-.56-.22-.05-.47-.05-.64-.17-.83-.6-1.8-.61-2.75-.76-.07-.01-.15-.03-.2,0-1.61.72-3.02-.45-4.54-.47-.2,0-.45-.06-.58.03-.9.7-1.87.42-2.84.27-.89-.15-1.78-.24-2.62.21-.15.08-.35.15-.52.13-1.52-.12-2.79.77-4.23.97-1.17.17-2.34.3-3.51.49-.26.04-.59.19-.72.39-.56.9-1.53,1.14-2.37,1.58-.43.22-.86.46-1.32.59-.88.26-1.69.6-2.46,1.13-.78.53-1.69.16-2.44-.63-.46-.49-1-.96-1.59-1.28-.9-.48-1.47-1.19-1.97-2.04-.18-.31-.52-.56-.85-.73-.83-.44-1.73-.75-2.53-1.24-.39-.23-.74-.7-.87-1.13-.17-.56-.49-.79-.99-.83-.71-.05-1.18-.41-1.59-.98-.82-1.13-1.66-2.19-3.12-2.67-.91-.29-1.77-.83-2.46-1.66-.74-.9-1.77-1.57-2.66-2.35-.27-.24-.54-.48-.76-.76-.59-.77-1.3-1.31-2.29-1.47-.8-.13-1.18-.76-1.46-1.44-.14-.33-.26-.59-.69-.59-.2,0-.44-.14-.58-.29-.6-.62-1.17-1.28-1.75-1.92-.09-.1-.15-.25-.26-.29-.73-.28-.98-.81-.84-1.55.09-.47.93-1.09,1.6-1.19.13-.02.32,0,.38-.08.99-1.23,2.57-1,3.83-1.56,1.41-.63,2.88-.93,4.41-.93.17,0,.38-.14.51-.27.52-.57,1.16-.68,1.89-.67.84,0,1.7.02,2.51-.17,1.49-.37,2.93-.06,4.39.11.2.02.44.13.59.06,1.3-.67,2.63-.18,3.95-.13.56.02,1.13-.01,1.69.02.46.03.92.17,1.39.19.62.02,1.24-.04,1.86-.06.83-.02,1.67-.11,2.34.58.08.09.36.08.49,0,1.2-.64,2.35-.17,3.5.16.1.03.2.17.29.16,1.53-.2,2.93.4,4.39.7,1.2.25,2.43.35,3.49,1.06.18.12.41.26.61.25.56-.01.9.3,1.27.65.21.19.54.25.81.36,0,.02.01.05,0,.07q-.46,1.58.89,2.58c.47.35.97.65,1.38,1.07.22.23.43.46.52.77.16.54.52.9,1.04,1.06.42.13.7.36.85.78.15.43.46.7.88.88.65.28,1.16.86,1.92.94.09,0,.17.08.21.16.69,1.21,1.96,1.98,2.52,3.29.19.46.54.76.98.97.68.33,1.15,1.02,1.92,1.21.04.01.09.05.1.08.54,1.26,2.02,1.63,2.68,2.79.2.35.6.47.98.55.5.11.84.38,1.11.81.46.75.9,1.52,1.87,1.74.06.01.14.06.16.12.47,1.09,1.6,1.55,2.31,2.4.16.19.36.35.59.44.65.26,1.07.79,1.54,1.26Z"/>
          <path class="cls-4" d="M110.35,53.07c-1.36-.29-2.62-1.05-3.14-2.2-.7-1.56-1.71-3.12-1.5-4.98.07-.61.27-1.2.41-1.8.16-.72.31-1.44.49-2.15.12-.45.28-.89.44-1.33.25-.65.42-1.34.79-1.91.62-.94,1.03-2.1,2.27-2.51.25-.08.5-.32.62-.56.53-1.07,1.38-1.64,2.54-1.87.41-.08.78-.38,1.16-.59.23-.13.43-.33.68-.41.79-.27,1.59-.59,2.41-.73,1.25-.21,2.51-.28,3.77-.39.19-.02.4.07.58.16.83.38,1.65.77,2.48,1.14.13.06.31.07.46.06,1.42-.15,2.31.72,3.08,1.68,1.42,1.78,2.28,3.83,2.62,6.1.02.17.13.34.23.48.4.57.42,1.17.29,1.85-.18.91-.26,1.85-.38,2.78-.22.33-.56.23-.86.23-.7,0-1.4-.03-2.01.41-.11.08-.25.1-.39.11-1.08.02-1.98.35-2.54,1.34-.12.21-.35.27-.58.29-1.83.15-3.34,1.05-4.79,2.09-.76.55-1.54.98-2.54.9-1.25-.1-2.47.07-3.6.65-.18.09-.39.16-.59.13-1-.13-1.79.26-2.42,1.02Z"/>
          <path class="cls-9" d="M173.66,209.14c-.82-.66-1.64-1.32-2.47-1.97-.33-.26-.71-.47-1.03-.75-.69-.62-1.12-1.48-2.07-1.88-.44-.19-.66-.88-1.03-1.3-.25-.28-.58-.56-.92-.68-.57-.2-1.05-.45-1.4-.98-.23-.35-.55-.67-.89-.9-.6-.41-1.23-.75-1.43-1.53-.01-.05-.09-.1-.14-.13-.72-.43-1.52-.76-2.14-1.3-.58-.49-.96-1.21-1.44-1.82-.26-.33-.53-.65-.8-.96-.09-.1-.24-.16-.29-.27-.64-1.31-2.14-1.45-3.1-2.3-.79-.71-1.44-1.58-2.39-2.12-.4-1.37-1.59-1.96-2.66-2.66-.84-.55-.92-1.43-.25-2.4.77-.4,1.48-.38,2.12.26.63.69,1.25,1.38,1.89,2.06.08.08.24.11.37.13.74.1,1.21.52,1.49,1.21.07.18.33.29.5.43.41.32.89.58,1.21.97.44.54.74,1.19,1.12,1.78.06.1.21.15.32.22.51.35,1.01.74,1.54,1.06.61.37,1.25.68,1.87,1.02.18.1.4.15.52.29.63.74,1.23,1.51,1.83,2.27.07.08.12.25.19.25,1.01.08,1.33,1.08,2.03,1.55.29.2.6.39.85.63.29.27.64.56.76.91.22.63.59.99,1.19,1.26.71.32,1.42.7,1.68,1.55.04.13.26.2.4.31.52.41,1.05.81,1.57,1.23.21.17.38.37.57.56.31.31.61.63.93.94.2.19.43.36.65.54.58.66.72,1.23.41,1.8-.34.62-.89.83-1.58.72Z"/>
          <path class="cls-2" d="M150.84,165.76c.84.96,1.66,1.94,2.51,2.89.63.7,1.38,1.3,1.95,2.04.42.55.87.9,1.53,1.11.25.08.46.54.52.86.12.63.36,1.13.91,1.47.35.59.72,1.16,1.05,1.76.52.93,1.04,1.88.99,2.99,0,.17-.15.48-.24.48-.65.04-1.35.17-1.95-.01-.84-.25-1.6-.74-2.39-1.13-.12-.06-.23-.13-.34-.21-.48-.37-.97-.74-1.43-1.13-1.13-.96-2.24-1.93-3.36-2.9-.18-.16-.4-.28-.6-.42-.3-.18-.46-.49-.65-.76-.34-.48-.81-.76-1.28-1.1-1.27-.9-2.49-1.91-3-3.5.04-.52-.15-.96-.47-1.36-.15-.44.12-.81.22-1.21.18-.3.36-.6.71-.73,1.09.53,2.28.74,3.42,1.11.45.15.87.14,1.29-.11.18-.11.36-.29.61-.15Z"/>
          <path class="cls-9" d="M126.55,176.56c-.81-.4-.88-.88-.21-1.44.79-.02,1.43-.49,2.16-.68.84-.21,1.72-.34,2.59-.04.15.05.31.09.47.06,1.04-.23,2,.04,2.93.49.45.22.88.27,1.32-.06.32-.23.71-.29,1.1-.21,1.23.25,2.46.01,3.69-.04.58-.02.59-.57.73-1.03-1.01-.17-1.97-.38-2.93-.56-.23-.04-.44.08-.66.13-1.08.25-2.2-.44-2.46-1.49-.06-.23,0-.44.12-.64.44-.68,1.7-1.14,2.44-.81.47.21.93.28,1.44.22,1.2-.14,2.36.18,3.54.33.38.05.71.27,1.02.5.4.37.53.82.26,1.3-.22.38.19.66.09,1,.39,2.19-.46,3.01-2.55,3.84-1.26.5-2.57.33-3.86.32-.17,0-.35.06-.52.12-.6.19-1.14.11-1.66-.27-.18-.13-.49-.18-.7-.12-1.17.32-2.3.66-3.56.34-.8-.21-1.69-.08-2.54-.14-.61-.05-1.09-.33-1.45-.86-.12-.18-.52-.17-.79-.25Z"/>
          <path class="cls-7" d="M110.35,53.07c.35-.81,1.02-1.19,1.98-1.21.43,0,.88-.08,1.27-.24,1.15-.48,2.35-.61,3.57-.51.98.08,1.64-.46,2.35-.96,1.41-1,2.9-1.83,4.66-2.03.23-.03.53-.16.63-.34.49-.85,1.24-1.18,2.17-1.26.37-.03.72-.2,1.08-.3.34-.09.68-.2,1.03-.24.51-.06,1.03-.05,1.55-.08.54.18,1.08.36,1.61.54.48.84-.18,1.61-1.2,2.22-.7.42-1.51.64-2.27.96-.12.05-.26.09-.36.18-.73.67-1.57.92-2.55.69-.12-.03-.33.03-.42.12-1.1,1.18-2.72,1.41-4,2.27-.27.18-.55.36-.76.6-.47.53-1,.87-1.74.87-.3,0-.61.15-.91.16-.95.02-1.9.03-2.85,0-.33,0-.67-.1-.98-.22-.57-.23-1.06-.22-1.65.05-.93.43-1.86.02-2.23-.83,0-.14.01-.29.02-.43Z"/>
          <path class="cls-9" d="M193.87,173.57c-.06,1.49-1.63,2.02-2.65,1.29-.12-.09-.3-.18-.43-.15-1.12.21-2.23.44-3.34.66-.16-.02-.32-.04-.48-.05-.08.02-.13-.04-.19-.06-.07-.03-.14-.05-.2-.08-.11-.02-.27.03-.28-.16-.42,0-.84,0-1.26,0-.07,0-.12.06-.19.04-.15,0-.3,0-.45.01-.15-.05-.3-.02-.45-.07-.45,0-.89,0-1.34,0-.23.05-.45.05-.68,0-.72-.09-1.43-.17-2.15-.26-.14.02-.28.02-.41,0-.22-.06-.44-.13-.66-.19-.04-.04-.09-.07-.15-.08-.18,0-.35-.02-.53-.02-.06.03-.12.08-.19.06-.3,0-.6.02-.9.03-.05.06-.08.05-.1-.02h0c-.06-.02-.11-.03-.17-.05-.13,0-.26,0-.39-.01-.05.01-.1.01-.15,0-.02,0-.05,0-.07-.01-1.43-.61-3-.41-4.47-.82-.07-.18-.16-.37-.22-.55-.19-.63.2-1.28.85-1.34.49-.05.98-.02,1.47-.02.49-.16.98-.32,1.47-.47.98-.32,1.98-.29,2.96,0,.79.23,1.6.02,2.4.09.56.05,1.16-.02,1.73.07,1.23.18,2.48.15,3.72.29,1.28.14,2.56.22,3.82.52.7.16,1.37-.07,2.04-.18,1.33-.04,1.85.36,2.05,1.56Z"/>
          <path class="cls-3" d="M144.18,173.58c-.14-.2-.28-.39-.44-.63.27-.45.54-.94.12-1.47-.02-.34.04-.67.15-.98.18-.5.2-.99.14-1.5.18-.42.56-.59.95-.75.59,1.19,1.57,2.06,2.47,3,.14.14.3.31.48.34,1.15.18,1.39,1.23,1.94,1.98-.35.06-.69.12-1.04.18-.11.02-.22.07-.33.06-.87-.13-1.74-.29-2.62-.41-.19-.03-.39.03-.58.05-.42.04-.84.09-1.25.13Z"/>
          <path class="cls-1" d="M181.92,174.98c.23,0,.45,0,.68,0-.23,0-.45,0-.68,0Z"/>
          <path class="cls-1" d="M179.35,174.73c.14,0,.28,0,.41,0-.14,0-.28,0-.41,0Z"/>
          <path class="cls-1" d="M183.94,174.98c.15.02.3.05.45.07-.15-.02-.3-.05-.45-.07Z"/>
          <path class="cls-1" d="M186.3,175.01c.09.05.18.11.28.16-.09-.05-.18-.11-.28-.16Z"/>
          <path class="cls-1" d="M176.11,174.45s.1,0,.15,0c-.05,0-.1,0-.15,0Z"/>
          <path class="cls-1" d="M176.65,174.46c.06.02.11.03.17.05-.06-.02-.11-.03-.17-.05Z"/>
          <path class="cls-1" d="M177.82,174.5c.06-.02.13-.04.19-.06-.06.02-.13.04-.19.06Z"/>
          <path class="cls-1" d="M178.54,174.46c.05.03.1.05.15.08-.05-.03-.1-.05-.15-.08Z"/>
          <path class="cls-1" d="M176.83,174.51l.05-.02.04.04s-.04.05-.07.07c0-.03-.02-.06-.03-.1Z"/>
          <path class="cls-1" d="M184.84,175.04c.06-.01.13-.03.19-.04-.06.01-.13.03-.19.04Z"/>
          <path class="cls-1" d="M186.78,175.25c.06.02.13.04.19.06-.06-.02-.13-.04-.19-.06Z"/>
          <path class="cls-1" d="M0,175.58c.06.03.12.05.18.08-.06-.03-.12-.05-.18-.08Z"/>
          <path class="cls-1" d="M79.11,179.75l-.1-.17c.03.06.06.11.1.17Z"/>
          <path class="cls-6" d="M122,127.96c.64.64,1.31,1.22,2.25,1.38.14.02.3.14.38.25.65.89,1.61,1.25,2.62,1.53.21.06.4.19.58.32.68.49,1.45.45,2.02-.13.81-.82,1.59-1.68,2.43-2.47,1.4-1.3,2.66-2.69,3.24-4.78.34.34.6.58.83.84.18.2.27.54.48.63,1.1.48,1.57,1.66,2.47,2.28.88.6,1.6,1.4,2.49,1.95,1.82,1.11,3.71.66,5.08-1.08.12-.15.33-.21.49-.33.25-.19.5-.37.72-.58.54-.52,1.06-1.05,1.59-1.58-.19.66-.27,1.39-.61,1.97-.57.99-.48,2.22-1.3,3.13-.35.39-.31,1.1-.53,1.64-.65,1.64-1.44,3.23-1.98,4.9-.34,1.05-.26,2.2-1.08,3.15-.29.34.03,1.14-.12,1.68-.33,1.13-.8,2.22-1.22,3.32-.3.81-.6,1.62-.9,2.42-.05.15-.11.29-.18.43-.08.16-.22.3-.26.47-.21.77-.26,1.63-.62,2.31-.42.78-.61,1.48-.42,2.36.07.33-.28.76-.44,1.14-.73-.29-1.52-.5-1.9-1.27-.41-.81-1.03-1.38-1.76-1.9-.68-.48-1.24-1.1-1.74-1.76-.12-.16-.24-.33-.41-.44-1.13-.78-2.01-1.82-2.91-2.83-.25-.28-.6-.39-.87-.63-.77-.71-1.6-1.34-2.3-2.12-.62-.68-1.43-1.16-2.05-1.84-.23-.25-.62-.25-.94-.34-.23-.06-.5,0-.69-.22.17-1.38-.24-2.64-.77-3.89-.11-.25-.06-.56-.09-.84-.05-.52-.1-1.04-.15-1.56-.02-.2-.05-.4-.07-.6-.01-.22.07-.49-.03-.66-.56-.98-.24-2.08-.49-3.09-.26-1.06-.55-2.1-.82-3.16Z"/>
          <path class="cls-5" d="M144.31,168.85c.14.93-.02,1.8-.45,2.63-1.04-.77-2.29-.68-3.47-.85-.58-.08-1.2.09-1.8.11-.16,0-.33-.09-.47-.17-.81-.5-2.15-.2-2.63.61-.06.11-.1.26-.08.38.15,1.04,1.55,1.78,2.52,1.36.22-.09.5-.09.74-.05.99.17,1.97.36,3.02.56-.21.49-.43.99-.66,1.52-1.03,0-2.04,0-3.05,0-.18,0-.37.06-.53,0-.83-.3-1.55-.13-2.1.47-.82-.29-1.56-.7-2.34-.79-1.3-.15-2.63-.11-3.94-.13-.69-.01-1.28.24-1.68.81-.35-.08-.69-.15-1.03-.22.1-1.17.23-2.33.3-3.5.06-.86.04-1.73.09-2.59.04-.64.14-1.28.2-1.92.07-.84.12-1.67.18-2.51.31-.79.38-1.65.91-2.39.41-.57.75-1.18,1.26-1.69.28-.28.54-.45.92-.43.51.03.98-.11,1.4-.4.11-.08.23-.17.36-.18,1.07-.1,1.78-.77,2.44-1.52.04-.05.11-.08.17-.11,1.8-.4,3.55-.99,5.32-1.51.4-.12.78-.11,1.16.03.88-.29,1.74-.62,2.72-.61,1.09.01,1.21.07,1.48,1.16.13.5.35.97.91,1.24.4.19.86.54.99.93.37,1.09,1.29,1.69,2.05,2.38,1.3,1.2,2.03,2.51,1.65,4.3-.8.65-1.6.58-2.55.25-.95-.33-1.98-.44-2.83-1.05-.27-.47-.21-.97-.03-1.43.3-.79-.08-1.32-.58-1.86-.51-.55-1.06-.91-1.84-.56-.23.1-.49.14-.73.07-1.18-.32-2.3-.08-3.41.34-.17.07-.35.08-.53.04-.59-.13-1.16,0-1.74.08-.49.07-.86.29-.88.84-.02.43.4.86.92.92.56.06,1.12.08,1.67-.06.2-.05.4-.13.59-.05,1.12.43,2.24.24,3.36-.03.39-.09.76-.06,1.12.1.27.12.46.28.42.61-.1.86.29,1.37,1.1,1.59-.08.44-.15.88-.23,1.32-.17.13-.35.07-.51,0-.74-.36-1.54-.48-2.35-.55-.41-.04-.8-.06-1.2.08-.26.09-.53.12-.8.04-.49-.14-.97-.16-1.46-.01-.27.08-.54.03-.79-.1-.8-.42-1.45,0-2.05.43-.44.31-.43.86.02,1.21.54.42,1.13.75,1.87.5.15-.05.33-.15.46-.08.97.49,2.03.15,3.04.34.9.17,1.87.24,2.81.12.2-.03.4-.11.59.02Z"/>
          <path class="cls-6" d="M163.2,118.79c-.3-.75-.45-1.51-1.24-2.06-.48-.33-1.07-.87-1.14-1.71-.04-.56-.48-1.08-.73-1.62-.23-.5-.47-.99-.67-1.5-.13-.33-.21-.67-.31-1.02.02-.03.05-.1.07-.1,1.42.18,2.32-.91,3.28-1.58.81-.56,1.57-1.04,2.51-1.36.86-.29,1.15-1.15.81-1.86-.32-.66-1.13-.88-1.93-.52-.14.06-.32.12-.4.24-.69,1.05-1.73.9-2.75.84-1.27-.07-1.55.18-1.89,1.38-.29,1.04-.75,1.98-1.94,2.34-.4.12-.7.55-1.14.91.12-.49.22-.9.31-1.31.14-.62.24-1.25.4-1.86.08-.3.17-.65.38-.84.52-.49.92-1.02,1.07-1.75.04-.18.29-.31.45-.46.01-.01.05,0,.06-.02,1.13-.64,2.31-.47,3.52-.3.34.05.77-.09,1.07-.28.33-.2.53-.28.88-.05.28.18.68.28,1.02.27,1.43-.04,2.87-.12,4.29-.24.35-.03.7-.28,1.03-.46.68-.38.89-.24,1.17.47.54,1.38,1.03,2.82,1.82,4.05.45.69.87,1.34,1.08,2.13.02.09.06.19.12.24.99.75,1.35,1.97,2.14,2.89.52.6.82,1.4,1.22,2.11.41.73.83,1.45,1.25,2.18.31.55.49,1.27.96,1.6.85.59,1.29,1.42,1.87,2.2.36.49,1.03.74,1.56,1.11.12.08.33.16.35.26.12.99.92,1.51,1.5,2.17-.31.1-.62.27-.94.29-.9.06-1.78-.04-2.67.44-.76.41-1.71.46-2.57.66-.19.09-.36,0-.47-.13-.37-.4-.95-.29-1.36-.59-.04-.1-.11-.21-.12-.31-.05-.52-.02-.99-.69-1.29-.49-.23-.94-.35-1.46-.45-.94-.18-1.89-.52-2.74-.97-.67-.35-1.24-.92-1.77-1.48-.35-.37-.55-.89-.82-1.34.01-2.05-.38-4.04-.84-6.02-.22-.98-.63-1.91-.61-2.95,0-.35-.16-.7-.4-.99-.26-.31-.6-.58-.99-.43-1.04.38-2.2.4-3.14,1.12-.9.68-1.12,1.37-.57,2.36.04.08.02-.03.03.06.24,1.49,1.32,2.38,2.35,3.31.17.15.32.32.52.42.39.19.62.49.72.92.09.38.37.66.57.99.08.14.15.28.08.45-.78-.17-1.56-.39-2.36-.51-.59-.09-1.2-.04-1.8-.05Z"/>
          <path class="cls-7" d="M157.57,132.29c.69.69,1.42,1.34,2.06,2.08,1.09,1.25,2.22,2.52,2.15,4.34-.01.38-.18.78-.34,1.14-.31.69-.65,1.37-1.03,2.03-.29.5-.57,1.05-.98,1.42-.83.76-1.77,1.41-2.64,2.12-.16.13-.27.34-.35.53-.47,1.06-.92,2.14-1.39,3.2-.07.16-.19.31-.32.43-.95.9-1.94,1.78-2.87,2.7-.5.5-.97,1.01-1.03,1.82-.09,1.23-1.95,2.62-3.15,2.42-.58-.09-.98-.42-1.1-1.03-.26-1.29.48-2.71,1.55-3.48.62-.44,1.02-1.2,1.49-1.83.28-.37.5-.79.76-1.17.35-.49.66-1.02,1.08-1.44,1.01-1.01,2.06-1.97,3.1-2.95.14-.13.33-.25.41-.41.4-.86.7-1.78,1.16-2.6.52-.93,1.16-1.8,1.77-2.68.57-.81.56-.97-.1-1.71-.37-.42-.66-.9-.99-1.35-.17-.23-.32-.5-.55-.67-.97-.71-1.36-1.75-1.67-2.84-.02-.08-.04-.19,0-.27.44-1.04.97-2.02,1.83-2.8.11-.1.36-.13.39-.24.43-1.33,1.82-1.88,2.47-3.04.27-.49.3-.85.05-1.29-.42-.78-.36-1.26.19-1.66.51-.37,1.03-.29,1.61.27.49.48.99.97,1.44,1.49.67.77.58,1.69-.13,2.41-.84.85-1.65,1.74-2.47,2.62-.02.02-.03.04-.05.05-.98.53-1.53,1.5-2.35,2.39Z"/>
          <path class="cls-2" d="M141.04,156.37c-1.32.34-2.63.69-3.95,1.02-.84.21-1.68.38-2.52.57-.13-.08-.15-.21-.18-.34-.25-.96-.7-1.23-1.64-.97-.11.03-.21.06-.33.05-.28-.04-.55-.18-.68-.4-.42-.7-1.21-1.08-1.55-1.84-.05-.1-.12-.2-.22-.25-1.14-.59-1.89-1.63-2.81-2.46-.64-.57-.94-1.35-1.38-2.05-.57-.53-1.15-1.05-1.7-1.59-.36-.36-.66-.77-1-1.14-.24-.26-.5-.51-.79-.73-.42-.32-.46-.97-.03-1.62.43-.66.87-1.32,1.33-1.95.24-.33.55-.62.82-.93.96,0,1.73.28,2.4,1.06.69.79,1.61,1.38,2.41,2.08.31.27.55.63.86.9.84.75,1.77,1.41,2.53,2.24,1.14,1.24,2.36,2.4,3.58,3.55.81.76,1.67,1.42,2.23,2.41.12.21.43.31.65.47.3.21.61.43.91.65.35.42.7.85,1.05,1.28Z"/>
          <path class="cls-7" d="M177.22,125.96c.75-.12,1.29.29,1.83.71.21,1.28-.16,1.73-1.49,2.01-.44.09-.85.39-1.26.62-.37.2-.73.43-1.13.67.34.86.58,1.78,1.05,2.56.63,1.05,1.41,2.01,2.18,2.96.85,1.05,1.42,2.21,1.79,3.51.16.56.57,1.04.86,1.57.19.35.56.72.52,1.04-.1.84.4,1.36.76,2,.68,1.23,1.32,2.48,1.92,3.75.17.36.05.86.21,1.24.24.56.62,1.07.92,1.61.2.35.36.71.55,1.07.1.19.24.36.35.54.2.34.56.69.55,1.02-.01.69.39,1.11.69,1.63.34.59.6,1.23.9,1.84.09.19.16.43.31.56.65.59.88,1.33.89,2.17,0,.51-.26.75-.75.73-1.19-.05-1.92-.61-2.31-1.75-.03-.08-.06-.18-.12-.24-.83-.7-1.1-1.65-1.3-2.66-.07-.38-.41-.7-.64-1.05-.12-.19-.3-.35-.38-.55-.38-.99-.68-2-1.1-2.97-.24-.56-.65-1.04-.99-1.56-.1-.15-.25-.27-.32-.43-.69-1.6-1.35-3.21-2.05-4.8-.08-.18-.31-.3-.43-.47-.32-.44-.64-.88-.91-1.35-.26-.46-.41-.98-.68-1.43-.64-1.05-1.37-2.03-1.97-3.1-.74-1.3-1.36-2.67-2.08-3.98-.7-1.28-1.14-2.64-1.46-4.05-.06-.29.06-.68.22-.95.58-.99,1.41-1.65,2.59-1.86.78-.14,1.54-.4,2.3-.61Z"/>
          <path class="cls-5" d="M150.33,123.52c-1.49-.59-2.32.5-3.27,1.28-.27.22-.57.41-.85.61-.15.1-.32.17-.46.28-.56.45-1.11.92-1.67,1.39-2.2-1.18-3.94-2.78-5.56-4.32.58-.49,1.11-1.12,1.79-1.47.89-.47,1.46-1.23,2.19-1.85.86-.73,1.48-1.6,1.96-2.61.08-.17.36-.3.57-.34.81-.16,1.35-.62,1.77-1.32.41-.69.9-1.33,1.4-1.96.27-.35.7-.22.94.22.8,1.45,1.94,2.44,3.63,2.7-.13.29-.25.58-.39.86-.06.12-.19.21-.22.33-.23,1.04-.43,2.1-.67,3.14-.1.44-.26.88-.42,1.3-.23.59-.48,1.18-.72,1.76Z"/>
          <path class="cls-7" d="M132.4,156.61c.3-.08.59-.22.89-.22.83-.02,1.23.49,1.28,1.58-.62.85-1.35,1.44-2.45,1.7-.78.18-1.5.56-2.33.68-.46.07-.83.82-1.24,1.26-.04.04,0,.15-.04.19-.77.77-.71,1.97-1.4,2.78-1.23.55-2.51.38-3.78.28-1.19-.1-2.32-.68-3.56-.47-.16.03-.39,0-.52-.1-.65-.47-1.37-.4-2.11-.44-.6-.03-1.19-.33-1.79-.45-.45-.09-.94-.15-1.39-.09-.97.11-1.79-.26-2.64-.62-.42-.18-1.01-.31-1.39-.15-1,.42-1.95.08-2.91,0-.37-.04-.75-.08-1.13-.05-.74.06-1.39-.13-2.06-.45-.66-.32-1.43-.44-2.16-.56-.74-.12-1.5-.12-2.21.21-.13.06-.32.03-.47,0-1.11-.21-2.21-.43-3.32-.63-.79-.14-1.61-.2-2.39-.39-.45-.11-.92-.33-1.28-.63-.57-.47-.71-.46-1.08.2-.72,1.25-1.47,2.47-2.8,3.18-.13.07-.24.21-.3.34-.45,1.03-1.36,1.39-2.36,1.59-.69.13-1.3-.09-1.71-.69-.4-.59-.48-1.23-.09-1.84.44-.7.89-1.41,1.78-1.64.12-.03.24-.13.31-.24.96-1.41,2.29-2.34,3.77-3.15.46-.25.69-.94,1.03-1.43.02-.03,0-.1.04-.13.76-.87.39-2.11,1-3.03.11-.17.1-.44.08-.66-.1-1.16.31-2.2.66-3.27.06-.17.14-.34.14-.52.04-2.3.77-4.48,1.12-6.73.07-.46.52-.86.75-1.3.12-.22.25-.53.18-.73-.2-.61-.24-1.18.04-1.77.07-.15.04-.35.06-.52.05-.5.11-.99.17-1.49.02-.2.15-.41.1-.58-.3-1,0-1.96.12-2.93,0-.04,0-.1.02-.13.73-1.13.34-2.42.55-3.62.07-.4.23-.77.32-1.17.13-.63.28-1.26.34-1.9.06-.67.64-1.37,1.26-1.36.37,0,.9.77.91,1.29.02.91.09,1.82.07,2.73-.01.6-.08,1.22-.25,1.79-.4,1.37-.08,2.76-.24,4.13-.03.22-.08.44-.15.65-.19.57-.23,1.12-.18,1.75.08.97.07,2.09-.36,2.91-.42.81-.49,1.4-.14,2.17.1.22.06.53,0,.79-.28,1.31-.63,2.62-.87,3.94-.34,1.82-.6,3.64-.91,5.46-.04.26-.22.49-.3.75-.18.59-.33,1.2-.53,1.78-.12.35-.23.78-.49,1-.55.46-.53,1.04-.58,1.64,1.11.48,2.21.77,3.41.67.37-.03.74.1,1.12.16.17.03.36.11.52.07.77-.2,1.47-.14,2.06.45.04.04.12.09.18.09,1.27-.06,2.56.46,3.82-.15.29-.14.71-.07,1.06-.04,1.11.11,2.21.25,3.31.39.26.03.54.1.76.24.67.43,1.37.69,2.16.39,1.09-.41,2.11-.06,3.15.24.25.07.53.13.77.07.9-.2,1.73.01,2.56.32.34.12.72.12,1.09.16.33.03.72-.09.99.05,1.58.85,3.41.41,5.03,1.01.32.12.62.03.81-.37.32-.67.73-1.3,1.1-1.95.16-.36.52-.4.83-.46.42-.08.75-.25,1.03-.56.34-.38.75-.63,1.26-.7.34-.05.63-.23.9-.43.3-.22.62-.34.99-.34Z"/>
          <path class="cls-7" d="M108.49,122.41c.84.58,1.67,1.11,2.44,1.71.94.72,1.86,1.48,2.74,2.27.66.61,1.14,1.35.89,2.32-.05.21-.15.43-.3.59-.54.58-1.12,1.13-1.66,1.7-.13.13-.2.34-.24.53-.26,1.09-.94,1.86-1.82,2.5-.15.11-.38.28-.39.42-.03,1.3-1.01,2-1.76,2.85-.06.07-.12.13-.22.24.65.86.62,2.09,1.59,2.79.19.14.26.46.38.7.48.97.97,1.94,1.44,2.92.46.97.9,1.95,1.37,2.92.11.23.35.4.55.59.37.36.95.66,1.09,1.09.27.85.82,1.43,1.4,2.02,1.13,1.17,1.79,2.61,2.45,4.06.09.2.28.38.47.5.76.45,1.15,1.22.97,1.97-.16.67-.75,1.19-1.43,1.24-.86.07-1.53-.4-1.87-1.23-.09-.22-.3-.43-.5-.56-1.42-.95-2.48-2.18-3.03-3.81-.28-.83-.51-1.63-1.28-2.22-.35-.27-.4-.94-.59-1.42-.1-.25-.14-.56-.32-.73-1.03-.99-1.81-2.12-2.31-3.48-.25-.69-.78-1.29-1.17-1.94-.24-.4-.59-.8-.64-1.23-.09-.74-.45-1.32-.79-1.94-.97-1.81-.75-3.56.44-5.21.49-.68.97-1.36,1.85-1.58.11-.03.22-.22.27-.35.42-1.14,1.07-2.05,2.22-2.58.16-.07.3-.56.21-.74-.16-.32-.48-.59-.78-.82-.68-.52-1.37-1.01-2.08-1.48-1.08-.72-1.71-1.81-2.4-2.86-.59-.91-.06-1.67.2-2.48.27-.82.65-1.53,1.33-2.13.7-.62,1.23-1.43,1.81-2.17.44-.56.84-1.15,1.27-1.7.13-.17.34-.29.5-.44.2-.19.35-.43.57-.59.34-.25.7-.59,1.08-.63.27-.03.78.32.84.58.09.37-.12.82-.24,1.23-.08.26-.25.49-.36.74-.1.22-.14.49-.28.67-1.01,1.3-2.05,2.59-3.06,3.89-.33.42-.59.88-.88,1.31Z"/>
          <path class="cls-1" d="M100.04,177.23c-.03.12-.1.24-.08.34.24.91.49,1.82.74,2.73-.12.12-.28.13-.43.17-.75.19-1.02.55-.96,1.3.02.27.02.54-.06.8-.23.76-.01,1.42.44,2.02.19.25.39.49.57.75.44.66.83,1.33.88,2.14.01.2.11.39.19.57.68,1.6,1.43,3.18,2.14,4.77.29.65.43,1.38.85,1.97.38.55.81,1.06,1.06,1.71.2.53.34,1.06.36,1.63.06,1.22.26,2.39,1.48,3.05.21.11.29.3.32.56.12,1.46.28,2.91,1.49,3.96.03.03.03.08.04.13-.21.12-.41.35-.62.35-.8,0-1.61-.11-2.41-.1-.87,0-1.74.12-2.6.16-.51.02-1.02.03-1.52-.03-.89-.11-1.77-.31-2.67-.41-.33-.03-.68.16-1.03.21-.5.07-1.05.24-1.5.09-.53-.17-1-.22-1.54-.2-1.51.05-3.02.09-4.53,0-.91-.06-1.8-.18-2.69.1-.04.01-.1.02-.13,0-1.65-.74-3.43-.03-5.11-.47-.14-.04-.32-.02-.46.03-.62.19-1.13-.03-1.65-.35-.19-.11-.47-.11-.71-.1-.48.03-.95.11-1.43.16-.09.01-.2-.02-.26.02-.88.54-1.74.24-2.65.03-.63-.14-1.34.09-2.01.11-.7.02-1.4-.02-2.1-.03-.46,0-.92-.01-1.38-.02-.28,0-.57.03-.85,0-.98-.12-1.96-.27-2.94-.39-.14-.02-.3.06-.44.11-.96.38-1.92.36-2.89.02-.23-.08-.52-.08-.75-.02-.77.19-1.48.21-2.19-.23-.24-.15-.72-.15-.96,0-.59.36-1.17.47-1.79.24-.83-.31-1.81-.1-2.53-.77-.06-.05-.29,0-.35.07-.65.76-1.52.61-2.33.52-.84-.09-1.62-.34-2.5-.02-.44.16-1.03-.1-1.56-.19-.15-.03-.29-.14-.44-.15-.92-.02-1.84-.02-2.76-.03-.04,0-.09.01-.13,0-1.18-.29-2.38-.38-3.58-.45-.15,0-.3-.02-.45-.01-.11,0-.23.07-.33.05-1.03-.18-2-.26-3.02.22-.62.29-1.56-.53-1.82-1.28-.35-.98-.75-1.94-1.12-2.91-.07-.19-.12-.38-.18-.57-.17-.55-.37-1.08-.51-1.64-.09-.34-.21-.73-.11-1.04.15-.51-.13-.69-.4-1.01-.36-.42-.76-.94-.81-1.45-.08-.69-.4-1.19-.72-1.76-.63-1.11-1.07-2.29-.91-3.61.03-.21-.04-.49-.17-.64-.56-.63-.9-1.33-.95-2.17,0-.16-.09-.37-.21-.46-1-.78-1.35-1.89-1.7-3.03-.34-1.13-.79-2.22-1.2-3.33-.06-.17-.2-.35-.18-.5.2-1.09-.8-1.68-1.07-2.57-.03-.09-.2-.15-.31-.22-.05-.16.03-.31.07-.46.22-.82-.04-1.51-.75-1.97-.17-.11-.37-.17-.47-.36.05-.53-.18-.93-.44-1.4-.51-.93-.8-1.97-1.18-2.97-.04-.1-.04-.22-.09-.32-.31-.6-.56-1.26-.98-1.78-.65-.81-.64-1.8-.95-2.7-.11-.32-.25-.67-.48-.9-.43-.43-.65-.9-.61-1.5.03-.5-.04-.94-.37-1.37-.27-.36-.39-.85-.54-1.29-.43-1.34-.83-2.7-1.27-4.03-.28-.85-.63-1.67-.93-2.52-.12-.33-.22-.67-.26-1.01-.09-.85-.29-1.62-.71-2.4-.4-.76-.5-1.7-.61-2.58-.03-.25.32-.7.59-.8,1.11-.39,2.17-1.04,3.47-.64.77.23,1.62.24,2.44.27.58.02,1.17-.11,1.76-.12,1.14-.01,2.27.01,3.41.02.02,0,.05,0,.07,0,1.06.62,2.17.26,3.26.12.35-.05.7-.11,1.06-.16.24-.04.52-.16.72-.09,1.28.49,2.58,0,3.86.1.81.07,1.63-.12,2.45-.1,1.21.03,2.42.16,3.64.23.42.02.85-.06,1.27-.03.47.04.93.17,1.39.23.26.03.53.04.79,0,.14-.02.27-.22.4-.22,1.13,0,2.27,0,3.4.06.72.04,1.42.19,2.14.26.71.06,1.43.14,2.14.11,1.18-.06,2.35-.2,3.52-.3.16-.01.34-.12.46-.06.97.49,1.92.06,2.88-.01.74-.06,1.45.02,2.15.37.37.18.9.02,1.36.02.4,0,.79,0,1.19,0,.58-.01,1.16-.04,1.74-.06.62-.02,1.24-.03,1.85-.06.51-.02,1.03-.06,1.54-.08.4-.01.81-.07,1.2,0,.68.12,1.32.09,2.02.03,1.35-.12,2.75.04,4.09.29.68.13,1.2-.24,1.81-.17.57.06,1.14.09,1.71.12.15,0,.34.06.44,0,.78-.56,1.65-.31,2.48-.26,1.27.08,2.53.28,3.8.34,1.08.06,2.07.87,2.21,1.95,0,.07-.02.16.02.2.83.82.8,1.9,1.05,2.94.29,1.22,1,2.34,1.51,3.51.28.63.58,1.26.79,1.91.11.34.14.76.06,1.11-.17.74.05,1.29.61,1.76.53.43.8,1.02.96,1.65.1.41.26.74.53,1.06.38.44.45,1.02.62,1.55.1.32.14.67.33.95.42.62.6,1.25.51,2.03-.06.52.17,1.06.54,1.48.62.73,1.04,1.52.83,2.52-.07.32.09.56.3.78.61.63.93,1.39,1.17,2.23.33,1.21.61,2.44,1.12,3.59Z"/>
          <path class="cls-1" d="M101.64,181.24c.89.03,1.77.11,2.66.06.78-.04,1.52,0,2.3.18.89.2,1.88,0,2.82-.02.46,0,.92.03,1.39.05.73.04,1.45.08,2.18.12.91.04,1.84-.04,2.72.14,1.12.23,2.19.51,3.35.16.39-.12.92-.01,1.3.17,1.08.52,2.21.35,3.33.35.89,0,1.78,0,2.66-.02.18,0,.36,0,.53-.06.6-.2,1.08.07,1.31.54.17.35.22.96.02,1.25-.92,1.33-1.91,2.62-2.94,3.86-.43.52-1.06.87-1.54,1.36-.35.35-.58.83-.91,1.21-.89,1.01-1.8,2-2.7,2.99-.57.62-1.12,1.26-1.71,1.86-.58.58-1.22,1.11-1.8,1.69-.23.23-.35.57-.52.86-.13.21-.25.44-.43.6-.66.56-1.36,1.07-2.01,1.65-.38.34-.66.78-1.02,1.14-.44.45-.9.88-1.36,1.32-.22-.03-.36-.19-.45-.37-.28-.58-.54-1.18-1.06-1.62-.23-.19-.15-.51-.05-.76.26-.68.06-1.28-.34-1.84-.4-.54-.77-1.08-1.26-1.56-.65-.64-.89-1.55-1.06-2.43-.1-.52-.25-1.01-.47-1.47-.46-.95-.71-1.96-.98-2.98-.4-1.56-.72-3.23-2.2-4.26-.23-.16-.36-.4-.43-.67-.12-.43-.28-.86-.35-1.3-.1-.59-.35-1.11-.75-1.56-.16-.18-.37-.35-.22-.64Z"/>
          <path class="cls-9" d="M101.64,181.24c0,.07-.01.16.02.19,1.04.9,1.07,2.22,1.45,3.39.06.18.18.37.33.47.92.6,1.38,1.47,1.65,2.51.36,1.42.81,2.81,1.27,4.2.42,1.26.89,2.51,1.36,3.76.1.26.29.5.46.73.42.52.87,1.02,1.28,1.54.48.61.63,1.29.32,2.02-.15.35-.07.55.22.79.28.23.45.59.66.9.21.31.4.64.6.95.11.53.4,1.09.3,1.57-.28,1.45-1.24,1.83-2.48,1.56-.84-.53-1.26-1.28-1.34-2.27-.05-.65-.19-1.3-.3-1.95-.02-.11-.11-.27-.2-.31-1.41-.57-1.56-1.86-1.62-3.08-.06-1.16-.45-2.11-1.15-3-.26-.33-.46-.72-.64-1.1-.6-1.27-1.23-2.53-1.74-3.83-.47-1.22-.73-2.51-1.2-3.72-.22-.58-.66-1.11-1.08-1.58-.67-.75-.92-1.57-.65-2.55.04-.15.07-.31.06-.46-.08-1.23.28-1.63,1.5-1.67.25.19.5.38.75.57.13,0,.18.05.1.17l.09.2Z"/>
          <path class="cls-5" d="M119.16,111.38c.18.11.39.2.55.34.5.44,1.06.62,1.73.56.32-.03.71.06.99.23.58.36,1.15.53,1.85.43.78-.11,1.48-.07,1.95.86.94,1.84,2.36,3.34,3.78,4.82.11.11.22.26.35.3.91.3,1.38,1.1,2.01,1.73.52.52,1.06,1.01,1.68,1.6-2.41,1.44-3.51,3.93-5.03,5.94-.93-.45-1.86-.89-2.78-1.36-.15-.08-.26-.24-.37-.38-1-1.32-2.63-1.75-4.14-1.1-.25-.8-.5-1.6-.75-2.4-.03-.1-.07-.22-.06-.32.1-1.89-.22-3.71-.76-5.53-.32-1.08-.38-2.23-.58-3.35-.14-.79-.29-1.58-.44-2.37Z"/>
          <path class="cls-5" d="M132.4,156.61c-.76.34-1.52.68-2.28,1.02-.1.05-.24.07-.29.15-.59.86-1.55,1.01-2.43,1.32-.13-.31-.34-.62-.38-.95-.15-1.12-.05-2.29-.82-3.27-.1-.12-.03-.43.04-.62.22-.6.28-1.15-.06-1.74-.17-.3-.2-.68-.24-1.03-.07-.59-.1-1.18-.14-1.77.19.23.44.43.57.69.48.96,1.31,1.6,2.06,2.33.55.52,1.07,1.02,1.71,1.43.54.35.87,1.02,1.32,1.52.29.33.62.61.94.92Z"/>
          <path class="cls-6" d="M161,81.59c.04.64.07,1.25-.18,1.89-.21.54-.12,1.18-.17,1.78-.1,1.22-.21,2.44-.32,3.66-.02.22-.1.43-.15.64-.15.63-.41,1.26-.41,1.89,0,1.51.05,2.99-.44,4.46-.17.5-.19,1.07-.15,1.6.06.87-.23,1.62-.6,2.36-.07.14-.13.31-.25.39-.97.65-1.33,1.67-1.66,2.7-.11.35-.25.48-.64.52-.43.04-.94.13-1.25.4-.9.76-1.71,1.61-2.57,2.42-.16.15-.35.27-.55.35-.69.3-1.18.78-1.53,1.45-.13.25-.38.52-.64.62-1,.36-1.64,1.14-2.34,1.87-.17.17-.4.35-.63.38-1.19.19-3.44,2.22-3.75,3.4-.04.15-.17.33-.3.38-1.09.43-1.93,1.16-2.7,2.04-.86.98-1.86,1.83-2.75,2.69-1.18-.87-2.23-1.63-3.27-2.41-.09-.07-.15-.16-.22-.25-.57-.71-1.07-1.5-1.73-2.1-.82-.75-1.8-1.32-2.67-2.02-.3-.24-.5-.61-.74-.93-.35-.46-.67-.95-1.04-1.39-.13-.16-.38-.31-.58-.31-.93,0-1.75-.3-2.56-.72-.13-.07-.32-.09-.46-.06-.59.13-1.05-.03-1.41-.52-.08-.1-.21-.17-.34-.22-1.56-.59-3.12-1.17-4.68-1.78-.29-.12-.58-.31-.81-.52-.78-.7-1.44-1.63-2.34-2.09-.82-.43-1.36-.86-1.51-1.76,0-.02-.02-.05-.03-.06-.95-.58-1.19-1.62-1.64-2.53-.29-.58-.78-.84-1.44-.77-.15.02-.32.03-.47-.01-.93-.3-1.86-.61-2.79-.92-.59-.2-1.2-.36-1.77-.62-.22-.1-.43-.39-.48-.63-.15-.67-.46-1.2-1-1.63-.16-.13-.24-.42-.25-.64-.02-.35.02-.72.06-1.07.08-.62.21-1.18.57-1.75.31-.5.24-1.23.33-1.86,1.48-.62,2.83.21,4.22.43.87.14,1.69-.27,1.69-1.17,0-.38-.06-.76-.16-1.12-.23-.92.51-1.86,1.5-1.75.67.07,1.2-.17,1.79-.38,1.06-.38,2.16-.65,3.24-.96.02-.04.05-.09.08-.1.87-.04,1.57-.44,2.19-1.03,1.17-.15,2.34-.24,3.49-.45.96-.17,1.9-.48,2.85-.72,1.22-.31,2.44-.62,3.67-.9,1.22-.27,2.44-.53,3.66-.75,1.28-.23,2.56-.42,3.85-.59.92-.12,1.86-.18,2.79-.27.56-.15,1.13-.32,1.72-.23,1.71.05,3.42.09,5.13.14.99.03,1.97.04,2.95.13.59.06,1.15.31,1.74.39,1.38.18,2.77.38,4.16.41.55.02,1.01-.15,1.57.22.46.3,1.15.32,1.75.34,1.11.04,2.23,0,3.35,0Z"/>
          <path class="cls-7" d="M150.46,77.89c-.11-.4-.35-.82-.32-1.21.09-.94-.26-1.77-.4-2.65-.19-1.21-.42-2.39-.86-3.52-.06-.15-.15-.32-.12-.45.29-.95-.31-1.76-.43-2.64-.07-.51-.35-1.01-.62-1.46-.23-.39-.36-.74,0-1.09.38-.37.77-.25,1.14.07.63.54,1.36,1,1.9,1.62.66.75,1.31,1.58,1.72,2.48.4.89.48,1.93.7,2.9.04.17.03.38.13.51.48.67.64,1.38.36,2.16-.02.06-.04.15,0,.2.57.84.3,1.83.51,2.73.24,1.02-.12,1.82-.8,2.5-.46.45-1.06.54-1.61.19-.83-.53-1.43-1.24-1.29-2.33Z"/>
          <path class="cls-7" d="M140.35,79.95c-.57.08-1.15.15-1.72.23-.97-.63-1.11-1.61-1.12-2.65,0-.32-.11-.64-.17-.96-.25-1.32-.49-2.64-.75-3.96-.08-.38-.25-.75-.36-1.12-.23-.79-.46-1.58-.67-2.38-.07-.28-.07-.58-.11-.87-.11-.73.23-1.32.88-1.55.6-.21,1.31.02,1.63.61.45.82.98,1.63,1.26,2.51.55,1.72.98,3.47,1.4,5.23.1.4,0,.84,0,1.26,0,.22-.04.46.03.65.39,1.06.32,2.06-.3,3.01Z"/>
          <path class="cls-7" d="M118.32,83.85c-.47.95-1.27,1.24-2.27,1.13-1.1-.43-1.65-1.4-1.83-2.41-.34-1.97-.81-3.97-.57-5.97.13-1.04.26-2.09.4-3.13.09-.67.79-1.18,1.32-1.14.56.04,1.08.61,1.06,1.36-.05,1.56.66,2.97.81,4.46.19,1.94,1.2,3.71,1.08,5.69Z"/>
          <path class="cls-7" d="M128.81,76.57c.09.8.18,1.6.27,2.4,0,.04.02.09.03.13.12.8-.36,1.76-.95,1.9-.63.15-1.4-.44-1.66-1.28-.43-1.41-.87-2.82-1.29-4.23-.06-.21-.14-.47-.07-.66.42-1.15-.26-2.1-.48-3.14-.13-.63-.17-1.33-.05-1.97.15-.79,1.19-1.08,1.69-.47.42.51.72,1.16.94,1.8.22.67.27,1.39.4,2.09.02.08.06.18.12.23,1.07.82.93,2.05,1.05,3.18Z"/>
          <path class="cls-9" d="M144.91,165.55c-1.02.06-1.31-.38-1.26-2.06-.54,0-1.08-.06-1.6.01-1.06.14-2.1.42-3.15-.06-.12-.05-.29.03-.44.04-.69.03-1.38.11-2.06.07-.52-.03-.95-.62-.89-1.1.07-.55.39-.94.94-.99.66-.06,1.33-.02,1.99-.02.11,0,.24.03.32-.02,1.14-.61,2.34-.63,3.57-.39.24.05.52-.06.77-.15.65-.22,1.19-.09,1.64.43.18.2.36.4.53.61.41.5.59,1,.32,1.67-.17.41-.1.92-.14,1.38-.18.19-.37.39-.55.58Z"/>
          <path class="cls-9" d="M144.31,168.85c-1.21.43-2.42.08-3.64,0-.38-.02-.75-.05-1.13-.07-.04,0-.1.04-.13.03-1.2-.45-2.57.28-3.69-.53-.31-.22-.66-.64-.66-.97,0-.32.38-.72.69-.94.64-.43,1.34-.62,2.08-.13.12.08.34,0,.52,0,.48,0,.96,0,1.44.01.13,0,.28.07.4.04,1.58-.48,3.04-.03,4.49.55.44.37.65.82.42,1.4-.26.2-.53.39-.79.59Z"/>
          <path class="cls-9" d="M136.81,144.4c.83.01,1.91,1.43,1.69,2.23-.16.59-.64.91-1.18.95-.36.03-.9-.13-1.1-.4-.32-.44-.54-1.02-.62-1.57-.1-.7.49-1.22,1.21-1.21Z"/>
          <path class="cls-9" d="M136.41,133.68c.67,0,1.17.48,1.18,1.11,0,.46-.74,1.31-1.15,1.32-.6.02-1.27-.63-1.28-1.23-.01-.64.57-1.2,1.26-1.2Z"/>
          <path class="cls-9" d="M139.33,96.66c-.53-.64-1.03-1.23-1.52-1.82-.43-.53-.9-1.05-1.27-1.63-.37-.59-.15-1.35.41-1.73.58-.39,1.38-.28,1.83.28.95,1.2,1.89,2.41,2.81,3.64.25.34.46.73.57,1.14.09.32.08.73-.05,1.03-.2.49-.44,1.01-.81,1.37-.57.55-1.21,1.06-1.9,1.44-.59.33-1.35-.03-1.68-.61-.34-.6-.24-1.32.26-1.79.43-.41.86-.83,1.36-1.32Z"/>
          <path class="cls-9" d="M138.38,101.8c1.15.32,2.26.56,3.32.96.87.33,1.27,1.6.86,2.34-.41.75-1.45,1-2.3.39-1.06-.75-2.09-.41-3.15-.12-.53.15-.94.42-1.32.82-.47.5-1.14.43-1.54-.05-.41-.49-.3-1.43.19-1.92.24-.24.41-.55.61-.82.16-.21.29-.52.51-.6.93-.37,1.88-.68,2.83-1.01Z"/>
          <path class="cls-9" d="M121.85,94.39c.24-1.33,1.14-2.57,2.68-2.5,1.29.06,2.11.81,2.15,2.12.05,1.69-.9,2.88-2.25,2.82-1.62-.07-2.41-.99-2.59-2.44Z"/>
          <path class="cls-9" d="M147.12,93.66c-1.21-.02-2.29-.99-2.35-1.97-.12-1.76,1.24-2.84,2.23-2.86,1.33-.02,2.61,1.23,2.59,2.51-.02,1.34-1.45,2.3-2.47,2.32Z"/>
        </g>
        <path class="cls-9" d="M165.66,116.17c-.15-.83-.41-1.64-.61-2.46-.14-.6-.2-1.23-.4-1.81-.21-.58-.75-.8-1.33-.66-.82.2-1.64.43-2.41.74-1.35.55-1.99,1.54-1.65,2.54.25.73.6,1.42.93,2.11.14.28.33.54.56.75.49.45,1.01.87,1.53,1.29.24.19.58.31.73.55.37.58.65,1.21.96,1.82.73.35,1.28,1.2,2.27.77.07-.26.23-.52.2-.76-.23-1.63-.48-3.26-.78-4.88ZM162.99,116.19s-.09.07-.14.1c-.44-.69-1.63-.53-1.72-1.67.59-.17,1.18-.34,1.85-.53v2.09Z"/>
      </g>
      <path class="cls-8" d="M124.16,101.18c.17,1.26-1.79,2.56-4.36,2.9-2.57.34-4.79-.41-4.96-1.68-.17-1.26,1.79-2.56,4.36-2.9,2.57-.34,4.79.41,4.96,1.68Z"/>
      <path class="cls-8" d="M152.03,97.21c.17,1.26-1.79,2.56-4.36,2.9-2.57.34-4.79-.41-4.96-1.68-.17-1.26,1.79-2.56,4.36-2.9,2.57-.34,4.79.41,4.96,1.68Z"/>
    </g>
    <path class="cls-10" d="M198.04,13.24c-.13-.22-.4-.36-.51-.58-1.01-2.06-3.01-3.29-4.26-5.13-.13-.2-.42-.29-.63-.44-.24-.17-.55-.31-.69-.55-.44-.69-1.17-.79-1.82-1.11-.66-.32-1.12-1.02-1.72-1.49-.22-.17-.57-.25-.86-.24-.55,0-1-.06-1.3-.63-.12-.24-.44-.42-.7-.54-.77-.36-1.55-.7-2.34-1.02-2.42-.97-4.98-1.27-7.56-1.48-1.99-.16-3.76.83-5.69.89-.29,0-.56.37-.87.53-.44.23-.89.53-1.37.59-.99.12-1.66.76-2.29,1.37-.79.77-.43,1.74.75,2.13.13-.87.68-1.31,1.53-1.47.27-.05.5-.32.77-.47.22-.12.49-.35.69-.3.94.21,1.78.03,2.59-.46.13-.08.34-.05.51-.03,2.09.24,4.23-.19,6.28.47,1.68.54,3.34,1.11,5,1.7.71.25,1.39.58,2.4,1.01.39.62,1.19,1.29,2.36,1.44.19.02.38.16.54.29.87.74,1.65,1.61,2.61,2.22,1.17.75,1.95,1.8,2.67,2.9.65.99,1.11,2.1,1.57,2.99-1.03,2.71-3.22,3.73-5.51,4.7-.12-.21-.16-.25-.16-.29.01-.13.02-.26.06-.38.44-1.32.16-2.49-.79-3.47-.62-.64-1.4-1.13-2-1.78-1.01-1.08-2.03-2.08-3.62-2.27-.84-.1-1.65-.48-2.48-.63-.75-.14-1.54-.09-2.3-.22-.75-.14-1.47-.59-2.2-.58-1.46.03-2.98.07-4.34.52-.98.33-1.95.9-2.92,1.37-1.53.74-2.38,2.15-2.95,3.75-.31.89-.13,1.82-.33,2.64-.28,1.12-.28,2.1.33,3.19-.41.32-.75.64-1.14.87-.6.36-1.04.85-1.11,1.52-.13,1.16-.49,2.29-.08,3.52.27.83.63,1.38,1.42,1.68.42.16.83.33,1.29.52-.39.48-.66.87-.99,1.2-.77.75-.71,1.62-.18,2.36.6.83,1.36,1.58,2.54,1.56,1.45-.02,2.9.19,4.35-.18.58-.15,1.22-.02,1.9-.02-1.01,1.74-2.92,1.59-4.4,2.42-.38-.8-.88-1.4-1.75-1.41-.77-.01-1.57-.04-2.31.14-1.2.3-1.66,1.76-.82,2.69.47.52,1.17.84,1.8,1.2.27.16.61.2.95.3-.73.74-1.37,1.4-2.03,2.06-.09.09-.23.11-.34.17-.63.37-1.26.74-1.87,1.13-.47.31-.89.59-1.54.49-.68-.11-1.09.26-1.12.77-.03.56.4.87,1.15.93,2.58.22,4.6-1.09,6.62-2.39.14-.09.25-.24.34-.39.6-1.04,1.19-2.09,1.79-3.16,1.15.04,1.98-.69,2.95-1.14,2-.94,3.24-2.37,3.66-4.52.13-.65.48-.91,1.11-1.07.61-.15,1.23-.41,1.72-.78.86-.64,1.68-1.36,2.4-2.15.78-.84,1.44-1.71,1.41-3.05-.03-1.35.73-2.05,2.2-2.19,1.97-.18,3.62-1.1,5.33-1.91.73-.35,1.61-.53,2.17-1.06,1.18-1.12,2.73-1.8,3.7-3.14.22-.31.54-.63.58-.98.16-1.36.27-2.73.31-4.1.01-.34-.27-.71-.47-1.04ZM168.4,32.35c1.64-.48,3.3-.79,5.19.05-1.87.8-3.52.75-5.19-.05ZM173.4,27.68c-.53.14-1.09.14-1.64.19-.21.02-.47-.09-.64,0-1.2.65-2.37.08-3.53-.08-.37-.05-.73-.42-1.03-.7-.12-.11-.2-.45-.12-.59.44-.76.93-1.49,1.55-2.47.51,1.03,1.24,1.33,2.06,1.55.87.23,1.69.61,2.56.83.44.11.95.1,1.4.01.62-.12,1.06.03,1.47.51-.73.26-1.39.55-2.08.73ZM171.25,22.7c2.71-.83,5.93-.1,8.37.8-.72.46-1.31.59-1.94.22-.74-.43-1.47-.4-2.21,0-.18.1-.43.23-.6.18-1.16-.36-2.31-.76-3.61-1.2ZM180.21,29.55c-1.06.71-2.19,1.33-3.36,2.02-.55-.35-1.05-.66-1.73-1.09.51-.29.91-.68,1.35-.74,1.62-.21,3.06-.81,4.37-1.77.09-.06.23-.06.44-.11.02.85-.52,1.32-1.06,1.68ZM186.68,20.29c-.61.99-1.52,1.9-2.74,2.26-.35.11-.81.12-1.14-.02-.87-.37-1.8-.7-2.5-1.3-1.16-.98-2.54-1.38-3.91-1.55-1.92-.23-3.92-.49-5.75.58-.24.14-.81.17-.91.03-.27-.39-.58-.93-.5-1.35.25-1.47.82-2.82,2.12-3.72.24-.17.42-.43.52-.54.89-.15,1.65-.29,2.42-.4.59-.08,1.19-.12,1.79-.19.43-.05.87-.04,1.27-.17.95-.29,1.86-.23,2.76.14,1.39.57,2.78,1.15,4.17,1.71.2.08.42.11.63.12,1.21.05,1.8.84,1.95,1.89.11.83.24,1.88-.15,2.51Z"/>
  </g>
</svg>